<svg width="170" height="41" viewBox="0 0 170 41" fill="none" xmlns="http://www.w3.org/2000/svg">
<g clip-path="url(#clip0_254_2317)">
<path fill-rule="evenodd" clip-rule="evenodd" d="M4.1143 37.5548L7.62189 35.5437L9.03016 34.7356L10.4128 33.9385L12.5821 32.6953L16.0274 30.7281L19.4763 32.6953L21.642 33.9385L23.0244 34.7356L24.4365 35.5437L27.8706 37.5256L28.9148 38.1179L29.9333 38.6993L31.9998 39.884V20.8482L27.8706 18.4751V32.8123L25.0762 31.2034L20.958 28.8487L19.3879 27.9345L18.0938 27.2032V3.56381H13.9645V27.7663L11.0966 29.4154L6.9822 31.7885L4.1143 33.423V18.5043L-0.000305176 20.8628V39.9133L2.05143 38.7286L3.08107 38.1472L4.1143 37.5548ZM25.0726 27.9199V-0.707031H20.9544V25.5651L25.0726 27.9199ZM11.1004 26.1136V7.83098H6.98579V28.4867L11.1004 26.1136Z" fill="#5D53EA"/>
</g>
<path d="M49.4459 28.6112H53.0424L56.3578 17.1992H56.4942L59.818 28.6112H63.4146L68.4089 11.1566H64.3777L61.4885 23.31H61.3351L58.1561 11.1566H54.7044L51.5169 23.2844H51.372L48.4828 11.1566H44.4515L49.4459 28.6112Z" fill="#373E6E"/>
<path d="M70.3841 28.6112H82.1795V25.5685H74.0744V21.4009H81.5403V18.3583H74.0744V14.1992H82.1454V11.1566H70.3841V28.6112Z" fill="#373E6E"/>
<path d="M85.0794 28.6112H96.2527V25.5685H88.7697V11.1566H85.0794V28.6112Z" fill="#373E6E"/>
<path d="M95.4473 11.1566L101.814 22.4407V28.6112H105.479V22.4407L111.845 11.1566H107.711L103.731 18.6737H103.561L99.5808 11.1566H95.4473Z" fill="#373E6E"/>
<path d="M114.297 14.1992H119.641V28.6112H123.289V14.1992H128.633V11.1566H114.297V14.1992Z" fill="#373E6E"/>
<path d="M134.684 11.1566H130.993V28.6112H134.684V11.1566Z" fill="#373E6E"/>
<path d="M153.121 17.2674C152.635 13.2362 149.584 10.918 145.544 10.918C140.933 10.918 137.413 14.1737 137.413 19.8839C137.413 25.5771 140.873 28.8498 145.544 28.8498C150.018 28.8498 152.72 25.8754 153.121 22.6623L149.388 22.6452C149.038 24.5117 147.572 25.5856 145.604 25.5856C142.953 25.5856 141.155 23.6168 141.155 19.8839C141.155 16.2532 142.927 14.1822 145.629 14.1822C147.649 14.1822 149.106 15.3498 149.388 17.2674H153.121Z" fill="#373E6E"/>
<path d="M165.236 16.1765H168.773C168.721 13.0657 166.165 10.918 162.278 10.918C158.452 10.918 155.648 13.0316 155.665 16.2021C155.656 18.7759 157.471 20.2504 160.42 20.9577L162.321 21.435C164.221 21.8952 165.278 22.4407 165.287 23.6168C165.278 24.8952 164.068 25.7646 162.193 25.7646C160.275 25.7646 158.895 24.8782 158.775 23.131H155.204C155.298 26.9066 158 28.8583 162.236 28.8583C166.497 28.8583 169.003 26.8214 169.011 23.6254C169.003 20.7191 166.812 19.1765 163.778 18.4947L162.21 18.1197C160.693 17.7702 159.423 17.2077 159.449 15.9549C159.449 14.8299 160.446 14.0032 162.253 14.0032C164.017 14.0032 165.099 14.8043 165.236 16.1765Z" fill="#373E6E"/>
<defs>
<clipPath id="clip0_254_2317">
<rect width="32" height="40" fill="white" transform="translate(-0.000183105 0.109375)"/>
</clipPath>
</defs>
</svg>
