<svg width="170" height="41" viewBox="0 0 170 41" fill="none" xmlns="http://www.w3.org/2000/svg">
<g clip-path="url(#clip0_254_2313)">
<path fill-rule="evenodd" clip-rule="evenodd" d="M4.11448 37.5548L7.62207 35.5437L9.03035 34.7356L10.413 33.9385L12.5823 32.6953L16.0276 30.7281L19.4765 32.6953L21.6422 33.9385L23.0246 34.7356L24.4367 35.5437L27.8708 37.5256L28.915 38.1179L29.9335 38.6993L32 39.884V20.8482L27.8708 18.4751V32.8123L25.0764 31.2034L20.9582 28.8487L19.3881 27.9345L18.094 27.2032V3.56381H13.9647V27.7663L11.0968 29.4154L6.98238 31.7885L4.11448 33.423V18.5043L-0.00012207 20.8628V39.9133L2.05161 38.7286L3.08125 38.1472L4.11448 37.5548ZM25.0728 27.9199V-0.707031H20.9546V25.5651L25.0728 27.9199ZM11.1006 26.1136V7.83098H6.98597V28.4867L11.1006 26.1136Z" fill="#5D53EA"/>
</g>
<path d="M49.446 28.6112H53.0426L56.358 17.1992H56.4943L59.8182 28.6112H63.4148L68.4091 11.1566H64.3778L61.4886 23.31H61.3352L58.1563 11.1566H54.7045L51.517 23.2844H51.3722L48.483 11.1566H44.4517L49.446 28.6112Z" fill="#373E6E"/>
<path d="M70.3842 28.6112H82.1797V25.5685H74.0746V21.4009H81.5405V18.3583H74.0746V14.1992H82.1456V11.1566H70.3842V28.6112Z" fill="#373E6E"/>
<path d="M85.0795 28.6112H96.2528V25.5685H88.7699V11.1566H85.0795V28.6112Z" fill="#373E6E"/>
<path d="M95.4474 11.1566L101.814 22.4407V28.6112H105.479V22.4407L111.845 11.1566H107.712L103.732 18.6737H103.561L99.581 11.1566H95.4474Z" fill="#373E6E"/>
<path d="M114.298 14.1992H119.641V28.6112H123.289V14.1992H128.633V11.1566H114.298V14.1992Z" fill="#373E6E"/>
<path d="M134.684 11.1566H130.994V28.6112H134.684V11.1566Z" fill="#373E6E"/>
<path d="M153.121 17.2674C152.635 13.2362 149.584 10.918 145.544 10.918C140.933 10.918 137.413 14.1737 137.413 19.8839C137.413 25.5771 140.874 28.8498 145.544 28.8498C150.018 28.8498 152.72 25.8754 153.121 22.6623L149.388 22.6452C149.038 24.5117 147.572 25.5856 145.604 25.5856C142.953 25.5856 141.155 23.6168 141.155 19.8839C141.155 16.2532 142.928 14.1822 145.629 14.1822C147.649 14.1822 149.107 15.3498 149.388 17.2674H153.121Z" fill="#373E6E"/>
<path d="M165.236 16.1765H168.773C168.722 13.0657 166.165 10.918 162.278 10.918C158.452 10.918 155.648 13.0316 155.665 16.2021C155.656 18.7759 157.472 20.2504 160.42 20.9577L162.321 21.435C164.222 21.8952 165.278 22.4407 165.287 23.6168C165.278 24.8952 164.068 25.7646 162.193 25.7646C160.276 25.7646 158.895 24.8782 158.776 23.131H155.205C155.298 26.9066 158 28.8583 162.236 28.8583C166.497 28.8583 169.003 26.8214 169.011 23.6254C169.003 20.7191 166.812 19.1765 163.778 18.4947L162.21 18.1197C160.693 17.7702 159.423 17.2077 159.449 15.9549C159.449 14.8299 160.446 14.0032 162.253 14.0032C164.017 14.0032 165.099 14.8043 165.236 16.1765Z" fill="#373E6E"/>
<defs>
<clipPath id="clip0_254_2313">
<rect width="32" height="40" fill="white" transform="translate(0 0.109375)"/>
</clipPath>
</defs>
</svg>
