<svg width="153" height="41" viewBox="0 0 153 41" fill="none" xmlns="http://www.w3.org/2000/svg">
<g clip-path="url(#clip0_254_2321)">
<path fill-rule="evenodd" clip-rule="evenodd" d="M22.2572 39.3489C26.5863 38.8434 30.6181 36.8918 33.7 33.8099C36.7819 30.728 38.7335 26.6962 39.2389 22.3672H31.9633C31.5043 24.7697 30.3333 26.9787 28.6023 28.7068C26.8713 30.435 24.6605 31.6025 22.2572 32.0575V39.3489Z" fill="#373E6E"/>
<path fill-rule="evenodd" clip-rule="evenodd" d="M28.7201 2.81363L28.7658 2.78365C33.4737 0.0785796 37.2804 -0.716873 39.0527 1.05705C44.0667 6.06948 29.9274 21.6607 25.7388 25.8493C23.2198 28.3757 20.5504 30.7473 17.7451 32.9513V39.3415C15.4897 39.0855 13.2983 38.4281 11.2744 37.4003L11.2286 37.4303C6.52079 40.1354 2.71575 40.9308 0.941831 39.1663C-1.48863 36.7359 1.35527 31.1411 2.69991 28.8321C1.67855 26.8057 1.02151 24.6155 0.758732 22.3614H8.05007C8.36891 24.0537 9.04336 25.6591 10.0288 27.0714C11.0142 28.4837 12.2881 29.6707 13.7664 30.554C12.9252 31.1648 12.0698 31.7456 11.1828 32.2901C9.88397 33.1155 8.53936 33.8951 7.14737 34.5974C6.05796 33.6327 5.08355 32.5455 4.24346 31.3573C2.77571 34.1855 2.28647 36.264 3.06611 37.0389C6.41351 40.3532 21.4697 26.5232 23.9459 24.047C26.5823 21.4142 29.0482 18.6161 31.3288 15.6698C30.5773 13.7492 29.3497 12.0513 27.7614 10.7358C26.1731 9.42024 24.2763 8.53029 22.2493 8.1496V0.85819C24.5052 1.11199 26.697 1.76954 28.7201 2.79941V2.81363ZM35.751 8.8519C37.2187 6.02373 37.708 3.94521 36.9283 3.17031C36.1487 2.3954 34.0876 2.8957 31.2578 4.36345C32.9974 5.59802 34.5164 7.11703 35.751 8.85664V8.8519Z" fill="#373E6E"/>
<path fill-rule="evenodd" clip-rule="evenodd" d="M17.7483 0.875C13.4191 1.38075 9.38727 3.33268 6.3054 6.41484C3.22353 9.497 1.27195 13.529 0.766602 17.8582H8.05801C8.51072 15.4554 9.67768 13.245 11.4065 11.5159C13.1353 9.78684 15.3455 8.61947 17.7483 8.16637V0.875Z" fill="#373E6E"/>
</g>
<path d="M73.011 24.7408C73.011 25.5836 72.85 26.379 72.528 27.1271C72.2155 27.8658 71.7799 28.5144 71.2212 29.0732C70.672 29.6224 70.0233 30.058 69.2752 30.38C68.5366 30.6925 67.7458 30.8487 66.903 30.8487C66.1455 30.8487 65.4163 30.7161 64.7155 30.451C64.0243 30.1858 63.3993 29.7976 62.8405 29.2862C62.2818 29.7976 61.6521 30.1858 60.9513 30.451C60.2506 30.7161 59.5214 30.8487 58.7638 30.8487C57.921 30.8487 57.1256 30.6925 56.3775 30.38C55.6388 30.058 54.9902 29.6224 54.4315 29.0732C53.8822 28.5144 53.4466 27.8658 53.1246 27.1271C52.8121 26.379 52.6559 25.5836 52.6559 24.7408V10.1953H56.7326V24.7408C56.7326 25.0249 56.7847 25.2947 56.8888 25.5504C56.993 25.7966 57.1351 26.0144 57.315 26.2038C57.5044 26.3838 57.7222 26.5258 57.9684 26.63C58.2146 26.7341 58.4797 26.7862 58.7638 26.7862C59.0479 26.7862 59.3131 26.7341 59.5593 26.63C59.8055 26.5258 60.0186 26.3838 60.1985 26.2038C60.3879 26.0144 60.5347 25.7966 60.6388 25.5504C60.743 25.2947 60.7951 25.0249 60.7951 24.7408V10.1953H64.8718V24.7408C64.8718 25.0249 64.9239 25.2947 65.028 25.5504C65.1322 25.7966 65.2743 26.0144 65.4542 26.2038C65.6436 26.3838 65.8614 26.5258 66.1076 26.63C66.3538 26.7341 66.619 26.7862 66.903 26.7862C67.1871 26.7862 67.4523 26.7341 67.6985 26.63C67.9447 26.5258 68.1578 26.3838 68.3377 26.2038C68.5271 26.0144 68.6739 25.7966 68.778 25.5504C68.8917 25.2947 68.9485 25.0249 68.9485 24.7408V10.1953H73.011V24.7408Z" fill="#373E6E"/>
<path d="M80.8235 11.218C80.8235 11.5779 80.7525 11.9141 80.6104 12.2266C80.4779 12.5391 80.2932 12.8137 80.0565 13.0504C79.8197 13.2777 79.5404 13.4624 79.2184 13.6044C78.9059 13.737 78.5697 13.8033 78.2099 13.8033C77.85 13.8033 77.5091 13.737 77.1871 13.6044C76.8746 13.4624 76.6 13.2777 76.3633 13.0504C76.136 12.8137 75.9513 12.5391 75.8093 12.2266C75.6767 11.9141 75.6104 11.5779 75.6104 11.218C75.6104 10.8677 75.6767 10.5362 75.8093 10.2237C75.9513 9.90175 76.136 9.62713 76.3633 9.39986C76.6 9.16312 76.8746 8.97846 77.1871 8.84588C77.5091 8.70384 77.85 8.63281 78.2099 8.63281C78.5697 8.63281 78.9059 8.70384 79.2184 8.84588C79.5404 8.97846 79.8197 9.16312 80.0565 9.39986C80.2932 9.62713 80.4779 9.90175 80.6104 10.2237C80.7525 10.5362 80.8235 10.8677 80.8235 11.218ZM80.1559 30.5646H76.2496V15.3516H80.1559V30.5646Z" fill="#373E6E"/>
<path d="M91.4769 30.5646H82.6133V26.701H91.4769C91.7421 26.701 91.9693 26.6063 92.1587 26.4169C92.3481 26.2275 92.4428 26.0002 92.4428 25.7351C92.4428 25.4605 92.3481 25.2805 92.1587 25.1953C91.9693 25.1101 91.7421 25.0675 91.4769 25.0675H87.4428C86.7705 25.0675 86.1407 24.9396 85.5536 24.6839C84.9665 24.4283 84.4551 24.0826 84.0195 23.647C83.5839 23.2019 83.2383 22.6858 82.9826 22.0987C82.7364 21.5116 82.6133 20.8819 82.6133 20.2095C82.6133 19.5372 82.7364 18.9074 82.9826 18.3203C83.2383 17.7332 83.5839 17.2218 84.0195 16.7862C84.4551 16.3506 84.9665 16.0097 85.5536 15.7635C86.1407 15.5078 86.7705 15.38 87.4428 15.38H95.2979V19.2436H87.4428C87.1777 19.2436 86.9504 19.3383 86.761 19.5277C86.5716 19.7171 86.4769 19.9444 86.4769 20.2095C86.4769 20.4841 86.5716 20.7209 86.761 20.9197C86.9504 21.1091 87.1777 21.2038 87.4428 21.2038H91.4769C92.1398 21.2038 92.7648 21.3175 93.3519 21.5447C93.939 21.7625 94.4504 22.0703 94.886 22.468C95.3216 22.8658 95.6672 23.344 95.9229 23.9027C96.1786 24.4614 96.3064 25.0722 96.3064 25.7351C96.3064 26.4074 96.1786 27.0372 95.9229 27.6243C95.6672 28.2019 95.3216 28.7133 94.886 29.1584C94.4504 29.594 93.939 29.9396 93.3519 30.1953C92.7648 30.4415 92.1398 30.5646 91.4769 30.5646Z" fill="#373E6E"/>
<path d="M102.258 30.5646H98.3803V9.30043H102.258V16.0192C102.722 15.6688 103.2 15.4226 103.693 15.2805C104.185 15.129 104.687 15.0533 105.198 15.0533C106.136 15.0533 107.017 15.2332 107.841 15.593C108.664 15.9434 109.379 16.4311 109.985 17.0561C110.601 17.6716 111.084 18.3961 111.434 19.2294C111.794 20.0533 111.974 20.9339 111.974 21.8714V30.5646H108.068V21.8714H108.096C108.096 21.4737 108.02 21.0997 107.869 20.7493C107.717 20.3894 107.509 20.0769 107.244 19.8118C106.979 19.5466 106.671 19.3383 106.321 19.1868C105.97 19.0353 105.596 18.9595 105.198 18.9595C104.791 18.9595 104.408 19.0353 104.048 19.1868C103.688 19.3383 103.376 19.5466 103.11 19.8118C102.845 20.0769 102.637 20.3894 102.485 20.7493C102.334 21.0997 102.258 21.4737 102.258 21.8714V30.5646Z" fill="#373E6E"/>
<path d="M120.795 26.843C120.947 26.8904 121.098 26.9235 121.25 26.9425C121.401 26.9519 121.553 26.9567 121.704 26.9567C122.083 26.9567 122.448 26.9046 122.798 26.8004C123.148 26.6963 123.475 26.5495 123.778 26.3601C124.091 26.1612 124.365 25.9245 124.602 25.6499C124.848 25.3658 125.047 25.0533 125.198 24.7124L128.039 27.5675C127.68 28.0788 127.263 28.5381 126.789 28.9453C126.325 29.3525 125.819 29.6982 125.27 29.9822C124.73 30.2663 124.157 30.4794 123.551 30.6214C122.954 30.773 122.339 30.8487 121.704 30.8487C120.634 30.8487 119.626 30.6499 118.679 30.2521C117.741 29.8544 116.917 29.3004 116.207 28.5902C115.506 27.88 114.952 27.0372 114.545 26.0618C114.138 25.0769 113.934 23.9974 113.934 22.8232C113.934 21.6205 114.138 20.522 114.545 19.5277C114.952 18.5334 115.506 17.6858 116.207 16.9851C116.917 16.2843 117.741 15.7398 118.679 15.3516C119.626 14.9633 120.634 14.7692 121.704 14.7692C122.339 14.7692 122.959 14.8449 123.565 14.9964C124.171 15.148 124.744 15.3658 125.284 15.6499C125.833 15.9339 126.344 16.2843 126.818 16.701C127.291 17.1082 127.708 17.5675 128.068 18.0788L120.795 26.843ZM122.784 18.8459C122.604 18.7796 122.424 18.737 122.244 18.718C122.073 18.6991 121.894 18.6896 121.704 18.6896C121.174 18.6896 120.672 18.7891 120.198 18.9879C119.734 19.1773 119.327 19.4519 118.977 19.8118C118.636 20.1716 118.366 20.6072 118.167 21.1186C117.968 21.6205 117.869 22.1887 117.869 22.8232C117.869 22.9652 117.874 23.1262 117.883 23.3061C117.902 23.486 117.926 23.6707 117.954 23.8601C117.992 24.04 118.035 24.2152 118.082 24.3857C118.129 24.5561 118.191 24.7076 118.267 24.8402L122.784 18.8459Z" fill="#373E6E"/>
<path d="M133.934 30.5646H130.028V9.30043H133.934V30.5646Z" fill="#373E6E"/>
<path d="M140.809 36.3601H136.903V15.3516H137.841L139.389 17.1839C139.739 16.8525 140.123 16.54 140.539 16.2464C140.956 15.9529 141.387 15.7019 141.832 15.4936C142.287 15.2758 142.755 15.1054 143.238 14.9822C143.721 14.8591 144.209 14.7976 144.701 14.7976C145.771 14.7976 146.775 14.9917 147.713 15.38C148.66 15.7588 149.484 16.2985 150.184 16.9993C150.895 17.7 151.453 18.5476 151.86 19.5419C152.268 20.5268 152.471 21.6205 152.471 22.8232C152.471 24.0732 152.268 25.2 151.86 26.2038C151.453 27.1982 150.895 28.0457 150.184 28.7464C149.484 29.4377 148.66 29.968 147.713 30.3374C146.775 30.7067 145.771 30.8913 144.701 30.8913C144.36 30.8913 144.02 30.8535 143.679 30.7777C143.347 30.7019 143.016 30.6025 142.684 30.4794C142.362 30.3468 142.04 30.2 141.718 30.0391C141.406 29.8781 141.103 29.7124 140.809 29.5419V36.3601ZM148.579 22.8232C148.579 22.1792 148.475 21.6016 148.267 21.0902C148.068 20.5788 147.793 20.148 147.443 19.7976C147.092 19.4377 146.681 19.1631 146.207 18.9737C145.734 18.7843 145.232 18.6896 144.701 18.6896C144.171 18.6896 143.669 18.7843 143.196 18.9737C142.732 19.1631 142.324 19.4377 141.974 19.7976C141.624 20.148 141.344 20.5788 141.136 21.0902C140.937 21.6016 140.838 22.1792 140.838 22.8232C140.838 23.4387 140.937 24.0021 141.136 24.5135C141.344 25.0249 141.624 25.4605 141.974 25.8203C142.324 26.1802 142.732 26.4595 143.196 26.6584C143.669 26.8572 144.171 26.9567 144.701 26.9567C145.232 26.9567 145.734 26.8572 146.207 26.6584C146.681 26.4595 147.092 26.1802 147.443 25.8203C147.793 25.4605 148.068 25.0249 148.267 24.5135C148.475 24.0021 148.579 23.4387 148.579 22.8232Z" fill="#373E6E"/>
<defs>
<clipPath id="clip0_254_2321">
<rect width="40.1184" height="40" fill="white" transform="translate(-0.000366211 0.109375)"/>
</clipPath>
</defs>
</svg>
