<svg width="244" height="55" viewBox="0 0 244 55" fill="none" xmlns="http://www.w3.org/2000/svg">
<g clip-path="url(#clip0_831_2661)">
<path d="M243.333 39.3766C239.275 38.8788 235.215 38.3794 231.154 37.8783C223.111 36.8979 215.039 36.1921 206.96 35.5827C195.599 34.7235 184.227 34.0691 172.843 33.6194C161.418 33.1834 149.99 32.9233 138.56 32.7426C123.353 32.5017 108.148 32.6222 92.9481 32.9377C75.5826 33.2967 58.2292 34.0337 40.9023 35.3249C28.0221 36.2884 15.1588 37.4351 2.37255 39.3188C1.8691 39.3935 1.35122 39.5741 0.833313 39.3646C3.84198 38.3528 6.97106 37.8542 10.0737 37.2568C23.0478 34.7636 36.1544 33.2509 49.3092 32.1163C64.261 30.8276 79.2393 30.0664 94.2416 29.6834C107.96 29.3341 121.679 29.2016 135.399 29.3798C151.539 29.5894 167.644 30.1025 183.736 31.225C201.954 32.4921 220.109 34.2939 238.034 37.9409C239.824 38.3047 241.678 38.495 243.333 39.3766Z" fill="#0078BE"/>
<path d="M50.7642 17.8754C51.5398 15.4842 52.3139 13.0922 53.0863 10.6994C54.0499 7.6859 55.0544 4.67724 55.977 1.64689C56.254 0.748389 56.6779 0.326835 57.6632 0.348515C61.5173 0.432825 61.1753 -0.10677 59.966 3.49929C57.6728 10.3429 55.2639 17.1479 52.949 23.9746C52.6407 24.8876 52.1975 25.3188 51.2339 25.2176C50.9117 25.2059 50.5891 25.2245 50.2704 25.273C49.1358 25.3645 48.4782 24.9647 48.0904 23.7747C46.5511 19.0461 44.9034 14.356 43.2726 9.65394C43.1088 9.17217 43.1016 8.36521 42.6054 8.36521C41.9839 8.36521 42.008 9.21071 41.8346 9.70693C40.2013 14.4018 38.5561 19.1015 37.0168 23.8228C36.6435 24.9695 36.0243 25.3019 34.9259 25.2923C32.6784 25.273 32.6857 25.2923 31.9655 23.2086C29.5084 16.08 27.0489 8.95216 24.5871 1.82515C24.1053 0.464141 24.1559 0.430433 25.5988 0.365394C28.8122 0.22568 28.8171 0.223265 29.8023 3.28011C31.2476 7.74614 32.6841 12.213 34.1117 16.6806C34.2322 17.0564 34.3791 17.4249 34.5381 17.8657C35.1114 17.6008 35.1475 17.0877 35.2848 16.6613C36.9204 11.7521 38.5705 6.84763 40.1459 1.92151C40.4735 0.900151 40.9023 0.293125 42.0537 0.423204C42.4557 0.456853 42.8602 0.440654 43.2582 0.375009C44.2916 0.228068 44.7444 0.731529 45.0479 1.67821C46.6426 6.64287 48.2903 11.5883 49.9235 16.5409C50.0704 16.9865 50.2438 17.4249 50.4052 17.8682L50.7642 17.8754Z" fill="#0078BE"/>
<path d="M215.316 8.13369L212.377 12.4913C211.1 14.3895 209.809 16.278 208.564 18.1955C208.082 18.9326 207.738 18.9013 207.27 18.1955C205.332 15.2936 203.38 12.403 201.414 9.52357C201.135 9.11407 200.932 8.59619 200.311 8.37457C200.07 9.46579 200.123 10.5425 200.116 11.5952C200.089 15.5674 200.077 19.5444 200.116 23.5094C200.116 24.6271 199.779 25.1956 198.61 25.0872C198.53 25.0875 198.449 25.094 198.369 25.1065C195.852 25.251 195.734 25.1426 195.72 22.5989C195.72 15.777 195.72 8.9559 195.72 2.13562C195.72 0.449415 195.756 0.579493 197.358 0.357877C199.632 0.0447256 201.07 0.786633 202.19 2.86548C203.611 5.51523 205.399 7.95061 207.027 10.4799C207.868 11.7879 207.921 11.812 208.754 10.5522C210.657 7.67598 212.514 4.7709 214.415 1.88026C214.779 1.32623 215.034 0.560228 215.788 0.454238C217.056 0.234071 218.354 0.245471 219.618 0.487936C220.324 0.646921 220.129 1.40571 220.131 1.93325C220.154 8.3906 220.169 14.8496 220.177 21.3101C220.177 22.1532 220.131 22.9963 220.177 23.837C220.237 24.7404 219.837 25.0415 218.972 25.0415C215.138 25.0222 215.718 25.3907 215.692 21.9099C215.663 18.1786 215.692 14.4425 215.692 10.716V8.21317L215.316 8.13369Z" fill="#0078BE"/>
<path d="M105.732 16.7346C106.163 16.1782 106.033 15.6819 106.035 15.217C106.048 10.7245 106.067 6.22955 106.035 1.72739C106.035 0.706036 106.296 0.311003 107.384 0.332682C111.084 0.407357 110.352 0.176098 110.376 3.24499C110.429 9.78584 110.44 16.3251 110.408 22.8627C110.408 23.5493 110.841 24.4598 109.911 24.9006C108.707 25.474 106.809 25.1704 106.091 24.3153C105.445 23.5469 104.86 22.7303 104.246 21.9377C100.95 17.6901 97.6583 13.4425 94.3694 9.19486C94.1743 8.95397 93.9791 8.6866 93.7599 8.45294C93.6563 8.34454 93.4902 8.21205 93.3625 8.21205C93.1216 8.23133 93.1216 8.48186 93.1216 8.67698C93.1216 9.27919 93.1095 9.88141 93.1095 10.4812C93.1095 14.8557 93.071 19.2278 93.1095 23.5999C93.1095 24.7103 92.7169 25.0693 91.6378 25.0452C88.2365 24.9946 88.7929 25.2403 88.7808 22.2413C88.7519 15.4627 88.7953 8.68177 88.752 1.90323C88.752 0.73012 89.0554 0.351936 90.296 0.284487C92.2231 0.178498 93.4588 0.831308 94.632 2.40189C98.0044 6.97872 101.586 11.4279 105.084 15.9228C105.233 16.1974 105.455 16.4215 105.732 16.7346Z" fill="#0078BE"/>
<path d="M128.057 0.560593C124.526 0.0330524 120.932 0.435334 117.367 0.38234C116.23 0.365478 115.921 0.83039 115.938 1.89029C115.984 5.50358 115.958 9.11686 115.958 12.7181C115.958 16.4085 115.958 20.0989 115.958 23.7989C115.958 24.5215 116.068 25.0587 116.972 25.0659C120.46 25.1021 123.957 25.2875 127.429 24.9142C133.839 24.2301 138.317 19.2895 138.509 12.8699C138.697 6.68391 134.409 1.50728 128.057 0.560593ZM127.154 20.8504C125.244 21.178 123.314 20.9901 121.392 21.0263C120.527 21.0431 120.453 20.4891 120.455 19.8218C120.455 17.413 120.455 15.0041 120.455 12.6073C120.455 10.3213 120.486 8.03048 120.438 5.7517C120.414 4.72071 120.645 4.23893 121.833 4.27024C123.519 4.3136 125.205 4.21242 126.872 4.44367C130.95 5.00976 133.718 8.22561 133.824 12.5326C133.93 16.765 131.208 20.1591 127.154 20.8504Z" fill="#0078BE"/>
<path d="M163.564 12.6792C163.564 16.3287 163.535 19.9805 163.581 23.6275C163.581 24.6392 163.292 25.0367 162.232 25.0969C159.187 25.2679 159.134 25.2631 159.134 22.2063C159.134 20.0817 159.112 17.9546 159.134 15.83C159.134 14.9749 158.818 14.5967 157.93 14.6039C154.801 14.6296 151.67 14.6296 148.535 14.6039C147.704 14.6039 147.405 14.9484 147.412 15.7578C147.437 18.4075 147.388 21.0572 147.432 23.707C147.449 24.6705 147.133 25.0825 146.129 25.0728C142.515 25.0367 142.997 25.3763 142.997 22.0377C142.978 15.4205 142.997 8.80338 142.997 2.18624C142.997 0.372371 142.997 0.36998 144.792 0.367571C147.808 0.367571 147.398 0.30974 147.422 2.93781C147.441 5.02388 147.456 7.10995 147.422 9.20084C147.408 10.1644 147.723 10.5595 148.737 10.5426C151.747 10.4912 154.755 10.4912 157.761 10.5426C158.843 10.5619 159.153 10.1114 159.139 9.11172C159.103 6.66672 159.161 4.21933 159.122 1.77434C159.105 0.757799 159.447 0.355515 160.512 0.355515C163.489 0.355515 163.523 0.307338 163.562 3.30637C163.602 6.43789 163.562 9.5694 163.562 12.7009L163.564 12.6792Z" fill="#0078BE"/>
<path d="M192.227 23.3076C189.211 16.3966 186.205 9.48074 183.162 2.5914C181.842 -0.393175 182.681 0.247566 179.352 0.105443C178.227 0.054857 177.738 0.498105 177.314 1.47851C174.317 8.44253 171.263 15.3776 168.225 22.3224C166.963 25.213 167.052 25.319 170.292 25.1311C171.183 25.0805 171.788 24.7987 172.12 23.8978C172.602 22.6211 173.204 21.3949 173.693 20.1231C173.98 19.3739 174.442 19.0945 175.237 19.1041C177.846 19.1378 180.452 19.1041 183.061 19.1186C185.815 19.133 185.815 19.1427 186.884 21.7201C187.096 22.1525 187.28 22.5983 187.433 23.0547C187.86 24.6445 188.727 25.5213 190.201 25.0661H191.09C192.979 25.054 192.988 25.042 192.227 23.3076ZM182.979 15.1801C181.936 15.1801 180.893 15.1801 179.848 15.1801C178.884 15.1801 177.921 15.1801 176.957 15.1801C176.218 15.1801 175.892 14.9392 176.235 14.1635C177.335 11.6246 178.402 9.07605 179.508 6.53471C179.6 6.32273 179.682 6.05293 179.966 6.05293C180.25 6.05293 180.325 6.3444 180.416 6.55397C181.515 9.09291 182.596 11.6415 183.704 14.1756C184.054 14.9657 183.702 15.1849 182.979 15.1801Z" fill="#0078BE"/>
<path d="M65.4486 0.369862C67.012 -0.11191 67.9587 0.868514 68.821 2.34515C70.2664 4.84073 71.8803 7.23994 73.4267 9.6777C74.3518 11.123 74.3638 11.123 75.2696 9.73069C76.9437 7.13635 78.642 4.56371 80.2511 1.92359C80.9328 0.796248 81.7518 0.237395 83.0718 0.360247C84.0137 0.456601 85.406 -0.0275988 85.7939 0.642065C86.2058 1.35027 85.0881 2.27045 84.5894 3.05093C82.2047 6.71239 79.7958 10.357 77.3628 13.9847C76.831 14.7396 76.5526 15.6438 76.5679 16.567C76.5968 18.9325 76.5438 21.3005 76.5896 23.666C76.6089 24.709 76.2042 25.0848 75.1708 25.0703C71.4274 25.0197 72.179 25.3329 72.1139 22.1267C72.0778 20.3249 72.073 18.5134 72.1139 16.714C72.1275 15.7501 71.8302 14.8074 71.266 14.0257C68.6066 10.0109 65.9705 5.98654 63.3577 1.9525C63.1168 1.56467 62.5917 1.14553 62.8109 0.690259C63.0734 0.143448 63.748 0.449362 64.237 0.377096C64.6403 0.349775 65.045 0.347354 65.4486 0.369862Z" fill="#0078BE"/>
<path d="M146.374 45.4473C145.753 47.2251 145.196 48.7981 144.65 50.3735C144.308 51.3563 143.941 52.3343 143.657 53.3363C143.431 54.1361 143.05 54.5263 142.147 54.5408C141.243 54.5552 140.805 54.1722 140.523 53.3363C139.302 49.6893 138.008 46.064 136.794 42.4122C136.645 41.9665 135.932 41.2872 136.932 40.9235C137.931 40.5598 138.945 40.9379 139.22 41.769C140.012 44.1778 140.774 46.5867 141.559 48.9739C141.694 49.381 141.723 49.8435 142.108 50.1783C142.59 49.9182 142.621 49.3906 142.768 48.9739C143.558 46.659 144.324 44.3368 145.088 42.0147C145.329 41.3185 145.613 40.8103 146.502 40.844C147.391 40.8777 147.755 41.2752 148.005 42.0749C148.853 44.7825 149.771 47.4708 150.689 50.2434C151.315 49.9688 151.349 49.4436 151.483 49.0389C152.225 46.7939 152.999 44.5561 153.623 42.2773C153.933 41.1355 154.586 40.832 155.629 40.8922C156.352 40.9235 156.672 41.1331 156.398 41.9087C155.017 45.8432 153.651 49.7817 152.303 53.7242C152.028 54.5191 151.411 54.5119 150.754 54.548C150.05 54.5865 149.646 54.324 149.421 53.6326C148.699 51.4646 147.957 49.2967 147.217 47.1432C147.046 46.618 146.943 46.1001 146.374 45.4473Z" fill="#0078BE"/>
<path d="M54.4064 45.4037C53.7584 47.2802 53.1899 48.9327 52.619 50.5851C52.2794 51.5704 51.8963 52.546 51.6049 53.5432C51.3808 54.2876 50.9304 54.5308 50.1837 54.5212C49.473 54.5212 48.9793 54.3815 48.7095 53.6131C47.3726 49.7083 46.0067 45.8108 44.6385 41.9157C44.3976 41.193 44.5397 40.8822 45.3491 40.8557C46.4716 40.8196 47.1846 41.0725 47.517 42.3516C48.153 44.7918 49.0009 47.1694 49.7718 49.5782C49.8537 49.8191 49.8729 50.1395 50.2391 50.3009C50.6197 49.9347 50.6751 49.4024 50.8316 48.9375C51.6241 46.5816 52.4239 44.2282 53.1514 41.853C53.3923 41.0364 53.8909 40.8437 54.6545 40.8003C55.4735 40.7546 55.7698 41.1641 55.989 41.8603C56.7623 44.3052 57.5765 46.7382 58.3979 49.1711C58.5304 49.571 58.5617 50.0359 59.07 50.4237C59.8143 48.1377 60.5273 45.9384 61.238 43.7391C61.462 43.055 61.7052 42.3757 61.9124 41.6844C61.9647 41.4493 62.0951 41.239 62.2824 41.0876C62.4696 40.9362 62.7026 40.8528 62.9434 40.8509C64.4682 40.6919 64.7043 40.9352 64.2201 42.3685C62.9723 46.0493 61.6788 49.7179 60.4503 53.4059C60.1853 54.2008 59.7276 54.4441 58.9447 54.4369C58.1618 54.4297 57.6656 54.2394 57.4078 53.4324C56.7863 51.486 56.1143 49.5541 55.4374 47.6246C55.2013 46.9646 55.052 46.242 54.4064 45.4037Z" fill="#0078BE"/>
<path d="M177.338 41.0273C175.579 40.7865 173.816 40.9358 172.058 40.8443C170.978 40.7889 170.672 41.2538 170.682 42.2583C170.718 45.4621 170.682 48.6683 170.697 51.872C170.697 54.8181 170.542 54.5073 173.368 54.5483C173.688 54.5483 174.009 54.5483 174.332 54.5483C175.452 54.5483 176.574 54.6013 177.685 54.3893C181.057 53.7509 183.242 50.935 183.148 47.3747C183.059 44.1444 180.607 41.4898 177.338 41.0273ZM176.801 52.2237C173.655 52.8259 173.313 52.5634 173.231 49.468C173.216 48.9067 173.231 48.3479 173.231 47.7818H173.245C173.245 46.5774 173.267 45.3729 173.245 44.1829C173.226 43.4603 173.544 43.1664 174.247 43.1905C174.886 43.2098 175.526 43.1712 176.174 43.1905C178.651 43.2893 180.375 44.9634 180.549 47.4156C180.722 49.8679 179.267 51.7492 176.801 52.2237Z" fill="#0078BE"/>
<path d="M75.6959 40.6329C71.6129 40.6497 68.5127 43.7307 68.5127 47.7751C68.5127 51.8196 71.5503 54.7873 75.6309 54.7873C79.7934 54.7873 82.8574 51.8124 82.8791 47.7607C82.9008 43.709 79.7813 40.6184 75.6959 40.6329ZM75.6188 52.5591C73.063 52.511 71.042 50.2779 71.1263 47.568C71.1961 44.9375 73.1955 42.9261 75.7031 42.9598C78.3143 42.9936 80.3089 45.1278 80.2631 47.8594C80.2246 50.4971 78.1313 52.6073 75.6188 52.5591Z" fill="#0078BE"/>
<path d="M97.0625 50.2556C96.653 49.704 96.7469 49.3981 97.3395 49.0343C99.3461 47.8082 99.9892 46.334 99.5532 44.2166C99.1726 42.3907 97.7972 41.2368 95.569 40.9743C93.5335 40.7334 91.4739 40.9068 89.4456 40.8707C88.723 40.8707 88.4484 41.179 88.458 41.8896C88.4797 43.8167 88.458 45.7318 88.458 47.654C88.458 49.4968 88.4869 51.3396 88.446 53.18C88.4267 54.0809 88.5929 54.5747 89.6769 54.5843C90.7609 54.594 90.9416 54.0375 90.9054 53.1727C90.8862 52.7729 90.9054 52.3706 90.9054 51.9683C90.9054 49.8509 91.1849 49.6245 93.2685 49.8798C93.5047 49.9128 93.73 49.9997 93.9272 50.1338C94.1244 50.2679 94.288 50.4456 94.4055 50.6531C95.0728 51.6166 95.7906 52.5224 96.4024 53.5076C97.0143 54.4928 97.8237 54.6879 98.8667 54.5603C99.6833 54.4639 99.8447 54.1531 99.3629 53.4859C98.6066 52.4091 97.8477 51.3179 97.0625 50.2556ZM95.9303 47.2662C94.5224 47.8941 92.9283 47.963 91.4715 47.4589C90.2261 46.994 91.1295 45.4668 90.9127 44.4358C90.8259 44.0191 90.6934 43.3904 91.38 43.2651C92.0039 43.1543 92.6494 43.1663 93.495 43.1085C94.1831 43.1494 94.8684 43.2298 95.5473 43.3494C96.5109 43.5614 97.0263 44.2672 97.1034 45.2355C97.1781 46.1581 96.7951 46.8953 95.9303 47.2662Z" fill="#0078BE"/>
<path d="M126.532 41.0053C124.776 40.721 123.018 40.8944 121.257 40.9137C120.294 40.9137 120.016 41.3449 120.038 42.2434C120.082 44.0428 120.053 45.8567 120.053 47.6489C120.053 49.5326 120.069 51.4139 120.053 53.2977C120.053 54.0203 120.293 54.4467 121.057 54.4828C122.857 54.5695 124.67 54.7237 126.455 54.4828C130.131 53.9601 132.478 51.3513 132.499 47.8416C132.526 44.209 130.252 41.6051 126.532 41.0053ZM126.101 52.2233C122.82 52.84 122.527 52.5991 122.524 49.3158V47.7549C122.524 46.5914 122.524 45.4303 122.524 44.2692C122.524 43.5466 122.806 43.1419 123.596 43.1877C124.196 43.2214 124.8 43.1877 125.4 43.1877C127.932 43.272 129.69 44.9076 129.864 47.3261C130.059 49.906 128.638 51.7463 126.101 52.2233Z" fill="#0078BE"/>
<path d="M188.698 47.6316C188.698 45.8274 188.729 44.0183 188.698 42.2189C188.674 41.2698 188.97 40.829 189.996 40.8483C192.559 40.894 195.127 40.8748 197.705 40.8483C198.49 40.8483 199.001 40.9904 199.013 41.9563C199.025 42.9223 198.574 43.1246 197.76 43.1174C196.038 43.1006 194.311 43.1704 192.588 43.1174C191.143 43.062 191.271 44.0352 191.227 44.9602C191.184 45.8852 191.285 46.6464 192.523 46.603C194.005 46.5597 195.489 46.6199 196.972 46.603C197.695 46.603 198.093 46.7644 198.088 47.6003C198.088 48.3663 197.922 48.8216 197.04 48.8047C195.556 48.7806 194.072 48.8505 192.591 48.8047C191.61 48.7734 191.242 49.1564 191.218 50.1296C191.165 52.2663 191.237 52.3843 193.371 52.3843C194.896 52.3843 196.421 52.3988 197.948 52.353C198.82 52.3289 199.027 52.7673 199.049 53.5357C199.075 54.3499 198.707 54.5667 197.967 54.5595C195.319 54.5354 192.673 54.5354 190.03 54.5595C189.042 54.5595 188.688 54.1404 188.712 53.172C188.725 51.3196 188.698 49.4744 188.698 47.6316Z" fill="#0078BE"/>
<path d="M105.282 47.627C105.282 45.8637 105.308 44.098 105.282 42.3275C105.262 41.4025 105.388 40.8124 106.561 40.8244C107.686 40.8244 107.765 41.4194 107.746 42.2697C107.722 45.1603 107.772 48.051 107.722 50.9416C107.705 51.9317 108.081 52.3339 109.032 52.3267C110.595 52.3267 112.164 52.3508 113.722 52.3267C114.491 52.3267 114.927 52.5242 114.927 53.4011C114.927 54.2297 114.573 54.5477 113.763 54.5404C111.317 54.5196 108.872 54.5196 106.426 54.5404C105.604 54.5404 105.277 54.2104 105.286 53.3938C105.315 51.4667 105.286 49.5396 105.286 47.6126L105.282 47.627Z" fill="#0078BE"/>
<path d="M164.455 47.6694C164.455 49.5531 164.438 51.4369 164.455 53.3182C164.455 54.2817 163.973 54.5371 163.109 54.5636C162.184 54.5901 161.936 54.1854 161.94 53.3423C161.964 49.5772 161.96 45.8098 161.94 42.0447C161.94 41.2666 162.181 40.821 163.044 40.862C163.817 40.9005 164.489 40.9559 164.458 42.0206C164.426 43.9019 164.458 45.7857 164.455 47.6694Z" fill="#0078BE"/>
</g>
<defs>
<clipPath id="clip0_831_2661">
<rect width="242.5" height="54.6932" fill="white" transform="translate(0.833313 0.09375)"/>
</clipPath>
</defs>
</svg>
