<svg width="154" height="41" viewBox="0 0 154 41" fill="none" xmlns="http://www.w3.org/2000/svg">
<path d="M62.6953 24.7835C62.6953 26.6841 62.2493 28.0805 61.3574 28.9726C60.4655 29.8647 59.0888 30.3108 57.2274 30.3108C55.3854 30.3108 53.427 30.2138 51.3523 30.0199V26.0926C52.8647 26.1896 54.4159 26.2381 56.0058 26.2381C56.4518 26.2381 56.8008 26.112 57.0529 25.8599C57.3243 25.5884 57.4601 25.2296 57.4601 24.7835V13.729H53.6791V9.65625H62.6953V24.7835Z" fill="#110F14"/>
<path d="M75.7823 30.0199H65.3118V25.9472H67.9294V13.729H65.3118V9.65625H75.7823V13.729H73.1646V25.9472H75.7823V30.0199Z" fill="#110F14"/>
<path d="M95.8484 29.5835C91.3112 30.0684 87.1424 30.3108 83.342 30.3108C81.4418 30.3108 80.0457 29.8647 79.1538 28.9726C78.2619 28.0805 77.8159 26.6841 77.8159 24.7835V15.4744C77.8159 13.4381 78.2716 11.9641 79.1829 11.0526C80.1136 10.1217 81.5969 9.65625 83.6328 9.65625H94.1033V13.729H84.7962C83.6328 13.729 83.0511 14.3108 83.0511 15.4744V24.7835C83.0511 25.2296 83.1772 25.5884 83.4292 25.8599C83.7007 26.112 84.0594 26.2381 84.5054 26.2381C86.7352 26.2381 88.7711 26.1896 90.6131 26.0926V21.8744H86.8321V18.3835H95.8484V29.5835Z" fill="#110F14"/>
<path d="M116.213 29.5835C111.676 30.0684 107.507 30.3108 103.707 30.3108C101.807 30.3108 100.411 29.8647 99.5187 28.9726C98.6268 28.0805 98.1808 26.6841 98.1808 24.7835V15.4744C98.1808 13.4381 98.6365 11.9641 99.5478 11.0526C100.479 10.1217 101.962 9.65625 103.998 9.65625H114.468V13.729H105.161C103.998 13.729 103.416 14.3108 103.416 15.4744V24.7835C103.416 25.2296 103.542 25.5884 103.794 25.8599C104.066 26.112 104.424 26.2381 104.87 26.2381C107.1 26.2381 109.136 26.1896 110.978 26.0926V21.8744H107.197V18.3835H116.213V29.5835Z" fill="#110F14"/>
<path d="M124.363 25.9472H134.979V30.0199H119.127V9.65625H124.363V25.9472Z" fill="#110F14"/>
<path d="M153.163 30.0199H137.021V9.65625H153.163V13.729H142.257V17.6562H150.837V21.729H142.257V25.9472H153.163V30.0199Z" fill="#110F14"/>
<g clip-path="url(#clip0_254_2319)">
<path fill-rule="evenodd" clip-rule="evenodd" d="M2.21278 7.05115C2.80319 7.05371 3.36866 7.28945 3.78615 7.70703C4.20364 8.12461 4.43935 8.69022 4.44191 9.28076C4.45754 9.85976 4.69853 10.4098 5.11349 10.8138C5.52846 11.2178 6.08466 11.4439 6.66375 11.4439C7.24284 11.4439 7.79904 11.2178 8.21401 10.8138C8.62898 10.4098 8.86996 9.85976 8.8856 9.28076V2.33898C8.88816 1.74844 9.12379 1.18281 9.54127 0.765233C9.95876 0.347654 10.5243 0.111935 11.1147 0.109375C11.7029 0.114919 12.2651 0.35206 12.6796 0.76941C13.0942 1.18676 13.3275 1.75069 13.3292 2.33898V16.9133C13.3212 17.2102 13.3727 17.5057 13.4808 17.7823C13.5889 18.059 13.7513 18.3112 13.9584 18.524C14.1655 18.7368 14.4131 18.906 14.6866 19.0215C14.9602 19.137 15.2541 19.1965 15.5511 19.1965C15.848 19.1965 16.1419 19.137 16.4155 19.0215C16.689 18.906 16.9367 18.7368 17.1438 18.524C17.3509 18.3112 17.5133 18.059 17.6213 17.7823C17.7294 17.5057 17.7809 17.2102 17.7729 16.9133V9.28076C17.7755 8.69022 18.0112 8.12461 18.4287 7.70703C18.8461 7.28945 19.4116 7.05371 20.002 7.05115C20.5902 7.0567 21.1524 7.29386 21.5669 7.71121C21.9815 8.12856 22.2149 8.69247 22.2166 9.28076V16.9133C22.2166 17.5025 22.4506 18.0676 22.8671 18.4842C23.2836 18.9008 23.8485 19.1348 24.4376 19.1348C25.0266 19.1348 25.5916 18.9008 26.0081 18.4842C26.4246 18.0676 26.6586 17.5025 26.6586 16.9133V2.33898C26.6612 1.74816 26.8971 1.18228 27.3149 0.764659C27.7328 0.347034 28.2986 0.111509 28.8893 0.109375C29.4781 0.112378 30.0417 0.348751 30.4565 0.766698C30.8713 1.18465 31.1036 1.75006 31.1023 2.33898V9.28076C31.1179 9.85976 31.3589 10.4098 31.7738 10.8138C32.1888 11.2178 32.745 11.4439 33.3241 11.4439C33.9032 11.4439 34.4594 11.2178 34.8744 10.8138C35.2894 10.4098 35.5303 9.85976 35.5459 9.28076C35.5485 8.68994 35.7844 8.12408 36.2022 7.70646C36.6201 7.28883 37.186 7.05329 37.7767 7.05115C38.3655 7.05416 38.9291 7.29055 39.3439 7.7085C39.7587 8.12644 39.9909 8.69184 39.9896 9.28076V30.9542C39.9875 31.5406 39.7536 32.1023 39.3391 32.5169C38.9245 32.9316 38.363 33.1655 37.7767 33.1676C37.1885 33.1663 36.6245 32.9333 36.207 32.519C35.7894 32.1047 35.5519 31.5425 35.5459 30.9542C35.5539 30.6573 35.5025 30.3618 35.3944 30.0852C35.2864 29.8086 35.124 29.5564 34.9168 29.3435C34.7097 29.1307 34.4621 28.9616 34.1885 28.8461C33.9149 28.7306 33.621 28.671 33.3241 28.671C33.0271 28.671 32.7333 28.7306 32.4597 28.8461C32.1862 28.9616 31.9385 29.1307 31.7314 29.3435C31.5243 29.5564 31.3619 29.8086 31.2538 30.0852C31.1458 30.3618 31.0943 30.6573 31.1023 30.9542V37.8879C31.1027 38.1787 31.0458 38.4668 30.9347 38.7357C30.8237 39.0045 30.6607 39.2488 30.4552 39.4545C30.2496 39.6602 30.0055 39.8234 29.7368 39.9347C29.4681 40.0459 29.1801 40.1031 28.8893 40.1029C28.3004 40.1038 27.7351 39.8711 27.3173 39.456C26.8995 39.0408 26.6632 38.4769 26.6602 37.8879V23.2941C26.6602 22.7049 26.4263 22.1398 26.0098 21.7232C25.5932 21.3066 25.0283 21.0726 24.4392 21.0726C23.8502 21.0726 23.2852 21.3066 22.8687 21.7232C22.4522 22.1398 22.2182 22.7049 22.2182 23.2941V30.9429C22.2131 31.5286 21.9781 32.0889 21.5638 32.5029C21.1496 32.9169 20.5893 33.1516 20.0037 33.1562C19.4158 33.1546 18.8522 32.9213 18.435 32.5071C18.0178 32.0928 17.7805 31.5308 17.7746 30.9429V23.2941C17.7589 22.7151 17.5179 22.165 17.103 21.761C16.688 21.357 16.1318 21.131 15.5527 21.131C14.9736 21.131 14.4173 21.357 14.0024 21.761C13.5874 22.165 13.3465 22.7151 13.3309 23.2941V37.8879C13.3292 38.4748 13.0953 39.0372 12.6803 39.4522C12.2654 39.8673 11.7031 40.1012 11.1163 40.1029C10.5272 40.1042 9.96171 39.8717 9.54381 39.4564C9.1259 39.0412 8.88976 38.4771 8.88718 37.8879V30.9477C8.8952 30.6508 8.84364 30.3553 8.73559 30.0787C8.62754 29.8021 8.46521 29.5499 8.2581 29.3371C8.05099 29.1242 7.80331 28.9551 7.52976 28.8396C7.2562 28.7241 6.96227 28.6645 6.66534 28.6645C6.3684 28.6645 6.07447 28.7241 5.80091 28.8396C5.52736 28.9551 5.27976 29.1242 5.07265 29.3371C4.86554 29.5499 4.70313 29.8021 4.59508 30.0787C4.48703 30.3553 4.43547 30.6508 4.44349 30.9477C4.43752 31.5357 4.20028 32.0977 3.78306 32.5119C3.36585 32.9262 2.80225 33.1594 2.21436 33.1611C1.62875 33.1564 1.06846 32.9218 0.654209 32.5078C0.239955 32.0937 0.00496295 31.5334 -0.00012207 30.9477V9.28076C0.00155788 8.69247 0.234931 8.12856 0.64946 7.71121C1.06399 7.29386 1.62622 7.0567 2.21436 7.05115H2.21278ZM8.8856 15.6729C8.89362 15.376 8.84206 15.0805 8.73401 14.8038C8.62596 14.5272 8.46355 14.275 8.25644 14.0622C8.04933 13.8494 7.80173 13.6802 7.52817 13.5647C7.25461 13.4492 6.96069 13.3897 6.66375 13.3897C6.36682 13.3897 6.07289 13.4492 5.79933 13.5647C5.52577 13.6802 5.2781 13.8494 5.07099 14.0622C4.86388 14.275 4.70155 14.5272 4.5935 14.8038C4.48545 15.0805 4.43389 15.376 4.44191 15.6729V24.5621C4.45754 25.1411 4.69853 25.6911 5.11349 26.0951C5.52846 26.4991 6.08466 26.7252 6.66375 26.7252C7.24284 26.7252 7.79904 26.4991 8.21401 26.0951C8.62898 25.6911 8.86996 25.1411 8.8856 24.5621V15.6729ZM31.0958 24.5621V15.6729C31.0878 15.376 31.1393 15.0805 31.2473 14.8038C31.3554 14.5272 31.5178 14.275 31.7249 14.0622C31.932 13.8494 32.1797 13.6802 32.4532 13.5647C32.7268 13.4492 33.0207 13.3897 33.3177 13.3897C33.6146 13.3897 33.9084 13.4492 34.182 13.5647C34.4556 13.6802 34.7032 13.8494 34.9104 14.0622C35.1175 14.275 35.2799 14.5272 35.3879 14.8038C35.496 15.0805 35.5474 15.376 35.5394 15.6729V24.5621C35.5238 25.1411 35.2829 25.6911 34.8679 26.0951C34.453 26.4991 33.8968 26.7252 33.3177 26.7252C32.7386 26.7252 32.1823 26.4991 31.7673 26.0951C31.3524 25.6911 31.1115 25.1411 31.0958 24.5621Z" fill="#E15539"/>
</g>
<defs>
<clipPath id="clip0_254_2319">
<rect width="39.9914" height="40" fill="white" transform="translate(-0.000244141 0.109375)"/>
</clipPath>
</defs>
</svg>
