<svg width="153" height="41" viewBox="0 0 153 41" fill="none" xmlns="http://www.w3.org/2000/svg">
<g clip-path="url(#clip0_254_2315)">
<path fill-rule="evenodd" clip-rule="evenodd" d="M22.2617 39.3489C26.5915 38.8434 30.6241 36.8918 33.7066 33.8099C36.7891 30.728 38.741 26.6962 39.2465 22.3672H31.9696C31.5106 24.7697 30.3393 26.9787 28.608 28.7068C26.8767 30.435 24.6654 31.6025 22.2617 32.0575V39.3489Z" fill="#F7936F"/>
<path fill-rule="evenodd" clip-rule="evenodd" d="M28.7257 2.81363L28.7715 2.78365C33.4802 0.0785796 37.2876 -0.716873 39.0603 1.05705C44.0752 6.06948 29.9333 21.6607 25.7439 25.8493C23.2245 28.3757 20.5546 30.7473 17.7487 32.9513V39.3415C15.4929 39.0855 13.3011 38.4281 11.2768 37.4003L11.231 37.4303C6.52231 40.1354 2.71656 40.9308 0.942313 39.1663C-1.4886 36.7359 1.35583 31.1411 2.70072 28.8321C1.67917 26.8057 1.022 24.6155 0.75918 22.3614H8.05187C8.37077 24.0537 9.04536 25.6591 10.031 27.0714C11.0165 28.4837 12.2907 29.6707 13.7693 30.554C12.9279 31.1648 12.0724 31.7456 11.1852 32.2901C9.88612 33.1155 8.54125 33.8951 7.14901 34.5974C6.0594 33.6327 5.08481 32.5455 4.24455 31.3573C2.77653 34.1855 2.2872 36.264 3.06699 37.0389C6.41502 40.3532 21.474 26.5232 23.9507 24.047C26.5875 21.4142 29.0539 18.6161 31.335 15.6698C30.5833 13.7492 29.3555 12.0513 27.7669 10.7358C26.1783 9.42024 24.2811 8.53029 22.2538 8.1496V0.85819C24.5101 1.11199 26.7023 1.76954 28.7257 2.79941V2.81363ZM35.758 8.8519C37.226 6.02373 37.7153 3.94521 36.9355 3.17031C36.1557 2.3954 34.0943 2.8957 31.264 4.36345C33.0039 5.59802 34.5232 7.11703 35.758 8.85664V8.8519Z" fill="#F16063"/>
<path fill-rule="evenodd" clip-rule="evenodd" d="M17.7519 0.875C13.4219 1.38075 9.38934 3.33268 6.30689 6.41484C3.22445 9.497 1.2725 13.529 0.767059 17.8582H8.05983C8.51262 15.4554 9.6798 13.245 11.4089 11.5159C13.1381 9.78684 15.3487 8.61947 17.7519 8.16637V0.875Z" fill="#F7936F"/>
</g>
<path d="M73.0249 24.7408C73.0249 25.5836 72.8638 26.379 72.5418 27.1271C72.2293 27.8658 71.7936 28.5144 71.2348 29.0732C70.6854 29.6224 70.0366 30.058 69.2884 30.38C68.5496 30.6925 67.7587 30.8487 66.9158 30.8487C66.1581 30.8487 65.4287 30.7161 64.7279 30.451C64.0364 30.1858 63.4113 29.7976 62.8525 29.2862C62.2937 29.7976 61.6638 30.1858 60.963 30.451C60.2621 30.7161 59.5328 30.8487 58.775 30.8487C57.9321 30.8487 57.1365 30.6925 56.3882 30.38C55.6495 30.058 55.0007 29.6224 54.4419 29.0732C53.8925 28.5144 53.4568 27.8658 53.1348 27.1271C52.8222 26.379 52.666 25.5836 52.666 24.7408V10.1953H56.7434V24.7408C56.7434 25.0249 56.7955 25.2947 56.8997 25.5504C57.0039 25.7966 57.146 26.0144 57.3259 26.2038C57.5153 26.3838 57.7332 26.5258 57.9794 26.63C58.2257 26.7341 58.4909 26.7862 58.775 26.7862C59.0592 26.7862 59.3244 26.7341 59.5706 26.63C59.8169 26.5258 60.03 26.3838 60.21 26.2038C60.3994 26.0144 60.5462 25.7966 60.6504 25.5504C60.7546 25.2947 60.8067 25.0249 60.8067 24.7408V10.1953H64.8841V24.7408C64.8841 25.0249 64.9362 25.2947 65.0404 25.5504C65.1446 25.7966 65.2867 26.0144 65.4666 26.2038C65.6561 26.3838 65.8739 26.5258 66.1202 26.63C66.3664 26.7341 66.6316 26.7862 66.9158 26.7862C67.1999 26.7862 67.4651 26.7341 67.7114 26.63C67.9576 26.5258 68.1707 26.3838 68.3507 26.2038C68.5401 26.0144 68.6869 25.7966 68.7911 25.5504C68.9048 25.2947 68.9616 25.0249 68.9616 24.7408V10.1953H73.0249V24.7408Z" fill="#16192C"/>
<path d="M80.8388 11.218C80.8388 11.5779 80.7678 11.9141 80.6257 12.2266C80.4931 12.5391 80.3084 12.8137 80.0716 13.0504C79.8348 13.2777 79.5554 13.4624 79.2334 13.6044C78.9208 13.737 78.5846 13.8033 78.2247 13.8033C77.8648 13.8033 77.5238 13.737 77.2018 13.6044C76.8892 13.4624 76.6145 13.2777 76.3778 13.0504C76.1504 12.8137 75.9657 12.5391 75.8237 12.2266C75.6911 11.9141 75.6248 11.5779 75.6248 11.218C75.6248 10.8677 75.6911 10.5362 75.8237 10.2237C75.9657 9.90175 76.1504 9.62713 76.3778 9.39986C76.6145 9.16312 76.8892 8.97846 77.2018 8.84588C77.5238 8.70384 77.8648 8.63281 78.2247 8.63281C78.5846 8.63281 78.9208 8.70384 79.2334 8.84588C79.5554 8.97846 79.8348 9.16312 80.0716 9.39986C80.3084 9.62713 80.4931 9.90175 80.6257 10.2237C80.7678 10.5362 80.8388 10.8677 80.8388 11.218ZM80.1711 30.5646H76.2641V15.3516H80.1711V30.5646Z" fill="#16192C"/>
<path d="M91.4942 30.5646H82.6289V26.701H91.4942C91.7594 26.701 91.9867 26.6063 92.1762 26.4169C92.3656 26.2275 92.4603 26.0002 92.4603 25.7351C92.4603 25.4605 92.3656 25.2805 92.1762 25.1953C91.9867 25.1101 91.7594 25.0675 91.4942 25.0675H87.4594C86.7869 25.0675 86.157 24.9396 85.5698 24.6839C84.9826 24.4283 84.4711 24.0826 84.0354 23.647C83.5997 23.2019 83.254 22.6858 82.9983 22.0987C82.7521 21.5116 82.6289 20.8819 82.6289 20.2095C82.6289 19.5372 82.7521 18.9074 82.9983 18.3203C83.254 17.7332 83.5997 17.2218 84.0354 16.7862C84.4711 16.3506 84.9826 16.0097 85.5698 15.7635C86.157 15.5078 86.7869 15.38 87.4594 15.38H95.3159V19.2436H87.4594C87.1942 19.2436 86.9669 19.3383 86.7774 19.5277C86.588 19.7171 86.4933 19.9444 86.4933 20.2095C86.4933 20.4841 86.588 20.7209 86.7774 20.9197C86.9669 21.1091 87.1942 21.2038 87.4594 21.2038H91.4942C92.1572 21.2038 92.7823 21.3175 93.3696 21.5447C93.9568 21.7625 94.4683 22.0703 94.9039 22.468C95.3396 22.8658 95.6853 23.344 95.9411 23.9027C96.1968 24.4614 96.3247 25.0722 96.3247 25.7351C96.3247 26.4074 96.1968 27.0372 95.9411 27.6243C95.6853 28.2019 95.3396 28.7133 94.9039 29.1584C94.4683 29.594 93.9568 29.9396 93.3696 30.1953C92.7823 30.4415 92.1572 30.5646 91.4942 30.5646Z" fill="#16192C"/>
<path d="M102.277 30.5646H98.3989V9.30043H102.277V16.0192C102.742 15.6688 103.22 15.4226 103.712 15.2805C104.205 15.129 104.707 15.0533 105.218 15.0533C106.156 15.0533 107.037 15.2332 107.861 15.593C108.685 15.9434 109.4 16.4311 110.006 17.0561C110.622 17.6716 111.105 18.3961 111.455 19.2294C111.815 20.0533 111.995 20.9339 111.995 21.8714V30.5646H108.088V21.8714H108.117C108.117 21.4737 108.041 21.0997 107.889 20.7493C107.738 20.3894 107.529 20.0769 107.264 19.8118C106.999 19.5466 106.691 19.3383 106.341 19.1868C105.99 19.0353 105.616 18.9595 105.218 18.9595C104.811 18.9595 104.427 19.0353 104.068 19.1868C103.708 19.3383 103.395 19.5466 103.13 19.8118C102.865 20.0769 102.656 20.3894 102.505 20.7493C102.353 21.0997 102.277 21.4737 102.277 21.8714V30.5646Z" fill="#16192C"/>
<path d="M120.818 26.843C120.969 26.8904 121.121 26.9235 121.272 26.9425C121.424 26.9519 121.576 26.9567 121.727 26.9567C122.106 26.9567 122.471 26.9046 122.821 26.8004C123.172 26.6963 123.498 26.5495 123.801 26.3601C124.114 26.1612 124.389 25.9245 124.625 25.6499C124.872 25.3658 125.071 25.0533 125.222 24.7124L128.064 27.5675C127.704 28.0788 127.287 28.5381 126.813 28.9453C126.349 29.3525 125.842 29.6982 125.293 29.9822C124.753 30.2663 124.18 30.4794 123.574 30.6214C122.977 30.773 122.362 30.8487 121.727 30.8487C120.657 30.8487 119.648 30.6499 118.701 30.2521C117.763 29.8544 116.939 29.3004 116.229 28.5902C115.528 27.88 114.974 27.0372 114.567 26.0618C114.159 25.0769 113.956 23.9974 113.956 22.8232C113.956 21.6205 114.159 20.522 114.567 19.5277C114.974 18.5334 115.528 17.6858 116.229 16.9851C116.939 16.2843 117.763 15.7398 118.701 15.3516C119.648 14.9633 120.657 14.7692 121.727 14.7692C122.362 14.7692 122.982 14.8449 123.588 14.9964C124.194 15.148 124.767 15.3658 125.307 15.6499C125.857 15.9339 126.368 16.2843 126.842 16.701C127.315 17.1082 127.732 17.5675 128.092 18.0788L120.818 26.843ZM122.807 18.8459C122.627 18.7796 122.447 18.737 122.267 18.718C122.097 18.6991 121.917 18.6896 121.727 18.6896C121.197 18.6896 120.695 18.7891 120.221 18.9879C119.757 19.1773 119.35 19.4519 118.999 19.8118C118.658 20.1716 118.388 20.6072 118.19 21.1186C117.991 21.6205 117.891 22.1887 117.891 22.8232C117.891 22.9652 117.896 23.1262 117.905 23.3061C117.924 23.486 117.948 23.6707 117.976 23.8601C118.014 24.04 118.057 24.2152 118.104 24.3857C118.152 24.5561 118.213 24.7076 118.289 24.8402L122.807 18.8459Z" fill="#16192C"/>
<path d="M133.96 30.5646H130.053V9.30043H133.96V30.5646Z" fill="#16192C"/>
<path d="M140.836 36.3601H136.929V15.3516H137.866L139.415 17.1839C139.766 16.8525 140.149 16.54 140.566 16.2464C140.983 15.9529 141.414 15.7019 141.859 15.4936C142.313 15.2758 142.782 15.1054 143.265 14.9822C143.748 14.8591 144.236 14.7976 144.729 14.7976C145.799 14.7976 146.803 14.9917 147.74 15.38C148.688 15.7588 149.512 16.2985 150.213 16.9993C150.923 17.7 151.482 18.5476 151.889 19.5419C152.296 20.5268 152.5 21.6205 152.5 22.8232C152.5 24.0732 152.296 25.2 151.889 26.2038C151.482 27.1982 150.923 28.0457 150.213 28.7464C149.512 29.4377 148.688 29.968 147.74 30.3374C146.803 30.7067 145.799 30.8913 144.729 30.8913C144.388 30.8913 144.047 30.8535 143.706 30.7777C143.374 30.7019 143.043 30.6025 142.711 30.4794C142.389 30.3468 142.067 30.2 141.745 30.0391C141.432 29.8781 141.129 29.7124 140.836 29.5419V36.3601ZM148.607 22.8232C148.607 22.1792 148.503 21.6016 148.295 21.0902C148.096 20.5788 147.821 20.148 147.471 19.7976C147.12 19.4377 146.708 19.1631 146.235 18.9737C145.761 18.7843 145.259 18.6896 144.729 18.6896C144.198 18.6896 143.696 18.7843 143.223 18.9737C142.758 19.1631 142.351 19.4377 142.001 19.7976C141.65 20.148 141.371 20.5788 141.163 21.0902C140.964 21.6016 140.864 22.1792 140.864 22.8232C140.864 23.4387 140.964 24.0021 141.163 24.5135C141.371 25.0249 141.65 25.4605 142.001 25.8203C142.351 26.1802 142.758 26.4595 143.223 26.6584C143.696 26.8572 144.198 26.9567 144.729 26.9567C145.259 26.9567 145.761 26.8572 146.235 26.6584C146.708 26.4595 147.12 26.1802 147.471 25.8203C147.821 25.4605 148.096 25.0249 148.295 24.5135C148.503 24.0021 148.607 23.4387 148.607 22.8232Z" fill="#16192C"/>
<defs>
<clipPath id="clip0_254_2315">
<rect width="40.1258" height="40" fill="white" transform="translate(-9.15527e-05 0.109375)"/>
</clipPath>
</defs>
</svg>
