<svg width="154" height="41" viewBox="0 0 154 41" fill="none" xmlns="http://www.w3.org/2000/svg">
<path d="M62.5452 24.4202C62.5452 26.3208 62.0991 27.7172 61.207 28.6093C60.3149 29.5015 58.9379 29.9475 57.0761 29.9475C55.2336 29.9475 53.2749 29.8505 51.1997 29.6566V25.7293C52.7124 25.8263 54.2639 25.8748 55.8543 25.8748C56.3003 25.8748 56.6494 25.7487 56.9015 25.4966C57.173 25.2251 57.3088 24.8663 57.3088 24.4202V13.3657H53.527V9.29297H62.5452V24.4202Z" fill="#373E6E"/>
<path d="M75.6349 29.6566H65.1622V25.5839H67.7804V13.3657H65.1622V9.29297H75.6349V13.3657H73.0168V25.5839H75.6349V29.6566Z" fill="#373E6E"/>
<path d="M95.7054 29.2202C91.1672 29.7051 86.9975 29.9475 83.1963 29.9475C81.2957 29.9475 79.8993 29.5015 79.0072 28.6093C78.1151 27.7172 77.669 26.3208 77.669 24.4202V15.1112C77.669 13.0748 78.1248 11.6008 79.0363 10.6893C79.9672 9.75842 81.4508 9.29297 83.4872 9.29297H93.9599V13.3657H84.6508C83.4872 13.3657 82.9054 13.9475 82.9054 15.1112V24.4202C82.9054 24.8663 83.0315 25.2251 83.2836 25.4966C83.5551 25.7487 83.9139 25.8748 84.3599 25.8748C86.5902 25.8748 88.6266 25.8263 90.469 25.7293V21.5112H86.6872V18.0202H95.7054V29.2202Z" fill="#373E6E"/>
<path d="M116.075 29.2202C111.537 29.7051 107.367 29.9475 103.566 29.9475C101.665 29.9475 100.269 29.5015 99.3765 28.6093C98.4844 27.7172 98.0383 26.3208 98.0383 24.4202V15.1112C98.0383 13.0748 98.4941 11.6008 99.4056 10.6893C100.337 9.75842 101.82 9.29297 103.857 9.29297H114.329V13.3657H105.02C103.857 13.3657 103.275 13.9475 103.275 15.1112V24.4202C103.275 24.8663 103.401 25.2251 103.653 25.4966C103.924 25.7487 104.283 25.8748 104.729 25.8748C106.96 25.8748 108.996 25.8263 110.838 25.7293V21.5112H107.057V18.0202H116.075V29.2202Z" fill="#373E6E"/>
<path d="M124.226 25.5839H134.844V29.6566H118.989V9.29297H124.226V25.5839Z" fill="#373E6E"/>
<path d="M153.033 29.6566H136.887V9.29297H153.033V13.3657H142.124V17.293H150.705V21.3657H142.124V25.5839H153.033V29.6566Z" fill="#373E6E"/>
<g clip-path="url(#clip0_254_2325)">
<path fill-rule="evenodd" clip-rule="evenodd" d="M2.21313 7.05115C2.80367 7.05371 3.36927 7.28945 3.78684 7.70703C4.20442 8.12461 4.44018 8.69022 4.44274 9.28076C4.45838 9.85976 4.69942 10.4098 5.11448 10.8138C5.52953 11.2178 6.08585 11.4439 6.66507 11.4439C7.24428 11.4439 7.8006 11.2178 8.21566 10.8138C8.63072 10.4098 8.87175 9.85976 8.88739 9.28076V2.33898C8.88995 1.74844 9.12563 1.18281 9.54321 0.765233C9.96079 0.347654 10.5265 0.111935 11.117 0.109375C11.7053 0.114919 12.2676 0.35206 12.6822 0.76941C13.0969 1.18676 13.3303 1.75069 13.332 2.33898V16.9133C13.3239 17.2102 13.3755 17.5057 13.4836 17.7823C13.5917 18.059 13.7541 18.3112 13.9613 18.524C14.1684 18.7368 14.4161 18.906 14.6897 19.0215C14.9633 19.137 15.2573 19.1965 15.5543 19.1965C15.8513 19.1965 16.1453 19.137 16.4189 19.0215C16.6925 18.906 16.9402 18.7368 17.1474 18.524C17.3546 18.3112 17.5169 18.059 17.625 17.7823C17.7331 17.5057 17.7846 17.2102 17.7766 16.9133V9.28076C17.7792 8.69022 18.0149 8.12461 18.4325 7.70703C18.8501 7.28945 19.4157 7.05371 20.0062 7.05115C20.5945 7.0567 21.1568 7.29386 21.5715 7.71121C21.9861 8.12856 22.2196 8.69247 22.2213 9.28076V16.9133C22.2213 17.5025 22.4553 18.0676 22.8719 18.4842C23.2885 18.9008 23.8535 19.1348 24.4427 19.1348C25.0319 19.1348 25.597 18.9008 26.0136 18.4842C26.4302 18.0676 26.6642 17.5025 26.6642 16.9133V2.33898C26.6668 1.74816 26.9028 1.18228 27.3207 0.764659C27.7386 0.347034 28.3046 0.111509 28.8954 0.109375C29.4844 0.112378 30.0481 0.348751 30.463 0.766698C30.8779 1.18465 31.1102 1.75006 31.1089 2.33898V9.28076C31.1245 9.85976 31.3655 10.4098 31.7806 10.8138C32.1956 11.2178 32.7519 11.4439 33.3311 11.4439C33.9104 11.4439 34.4668 11.2178 34.8818 10.8138C35.2969 10.4098 35.5378 9.85976 35.5535 9.28076C35.556 8.68994 35.792 8.12408 36.2099 7.70646C36.6278 7.28883 37.1939 7.05329 37.7847 7.05115C38.3737 7.05416 38.9374 7.29055 39.3523 7.7085C39.7672 8.12644 39.9994 8.69184 39.9981 9.28076V30.9542C39.996 31.5406 39.7621 32.1023 39.3474 32.5169C38.9328 32.9316 38.3711 33.1655 37.7847 33.1676C37.1964 33.1663 36.6323 32.9333 36.2147 32.519C35.797 32.1047 35.5594 31.5425 35.5535 30.9542C35.5615 30.6573 35.51 30.3618 35.4019 30.0852C35.2938 29.8086 35.1314 29.5564 34.9243 29.3435C34.7171 29.1307 34.4694 28.9616 34.1958 28.8461C33.9221 28.7306 33.6281 28.671 33.3311 28.671C33.0341 28.671 32.7402 28.7306 32.4666 28.8461C32.193 28.9616 31.9453 29.1307 31.7381 29.3435C31.531 29.5564 31.3685 29.8086 31.2604 30.0852C31.1524 30.3618 31.1009 30.6573 31.1089 30.9542V37.8879C31.1093 38.1787 31.0523 38.4668 30.9413 38.7357C30.8302 39.0045 30.6672 39.2488 30.4616 39.4545C30.256 39.6602 30.0118 39.8234 29.7431 39.9347C29.4744 40.0459 29.1863 40.1031 28.8954 40.1029C28.3064 40.1038 27.741 39.8711 27.3231 39.456C26.9052 39.0408 26.6688 38.4769 26.6658 37.8879V23.2941C26.6658 22.7049 26.4319 22.1398 26.0152 21.7232C25.5986 21.3066 25.0336 21.0726 24.4444 21.0726C23.8552 21.0726 23.2901 21.3066 22.8735 21.7232C22.4569 22.1398 22.2228 22.7049 22.2228 23.2941V30.9429C22.2178 31.5286 21.9827 32.0889 21.5684 32.5029C21.154 32.9169 20.5936 33.1516 20.0079 33.1562C19.4199 33.1546 18.8561 32.9213 18.4388 32.5071C18.0215 32.0928 17.7842 31.5308 17.7783 30.9429V23.2941C17.7626 22.7151 17.5216 22.165 17.1065 21.761C16.6915 21.357 16.1352 21.131 15.556 21.131C14.9767 21.131 14.4203 21.357 14.0053 21.761C13.5902 22.165 13.3493 22.7151 13.3336 23.2941V37.8879C13.3319 38.4748 13.098 39.0372 12.683 39.4522C12.2679 39.8673 11.7055 40.1012 11.1186 40.1029C10.5294 40.1042 9.96374 39.8717 9.54574 39.4564C9.12775 39.0412 8.89155 38.4771 8.88898 37.8879V30.9477C8.897 30.6508 8.84543 30.3553 8.73735 30.0787C8.62928 29.8021 8.46691 29.5499 8.25976 29.3371C8.05261 29.1242 7.80487 28.9551 7.53126 28.8396C7.25764 28.7241 6.96365 28.6645 6.66665 28.6645C6.36965 28.6645 6.07566 28.7241 5.80204 28.8396C5.52843 28.9551 5.28077 29.1242 5.07362 29.3371C4.86647 29.5499 4.70402 29.8021 4.59595 30.0787C4.48787 30.3553 4.43631 30.6508 4.44433 30.9477C4.43836 31.5357 4.20106 32.0977 3.78376 32.5119C3.36645 32.9262 2.80273 33.1594 2.21472 33.1611C1.62898 33.1564 1.06857 32.9218 0.654228 32.5078C0.239884 32.0937 0.00484198 31.5334 -0.000244141 30.9477V9.28076C0.00143617 8.69247 0.23486 8.12856 0.649478 7.71121C1.0641 7.29386 1.62645 7.0567 2.21472 7.05115H2.21313ZM8.88739 15.6729C8.89541 15.376 8.84384 15.0805 8.73577 14.8038C8.62769 14.5272 8.46525 14.275 8.2581 14.0622C8.05094 13.8494 7.80329 13.6802 7.52967 13.5647C7.25606 13.4492 6.96206 13.3897 6.66507 13.3897C6.36807 13.3897 6.07408 13.4492 5.80046 13.5647C5.52684 13.6802 5.27911 13.8494 5.07196 14.0622C4.8648 14.275 4.70244 14.5272 4.59437 14.8038C4.48629 15.0805 4.43472 15.376 4.44274 15.6729V24.5621C4.45838 25.1411 4.69942 25.6911 5.11448 26.0951C5.52953 26.4991 6.08585 26.7252 6.66507 26.7252C7.24428 26.7252 7.8006 26.4991 8.21566 26.0951C8.63072 25.6911 8.87175 25.1411 8.88739 24.5621V15.6729ZM31.1024 24.5621V15.6729C31.0944 15.376 31.1459 15.0805 31.2539 14.8038C31.362 14.5272 31.5245 14.275 31.7316 14.0622C31.9388 13.8494 32.1865 13.6802 32.4601 13.5647C32.7337 13.4492 33.0277 13.3897 33.3247 13.3897C33.6217 13.3897 33.9156 13.4492 34.1893 13.5647C34.4629 13.6802 34.7106 13.8494 34.9178 14.0622C35.1249 14.275 35.2874 14.5272 35.3954 14.8038C35.5035 15.0805 35.555 15.376 35.547 15.6729V24.5621C35.5313 25.1411 35.2904 25.6911 34.8753 26.0951C34.4603 26.4991 33.9039 26.7252 33.3247 26.7252C32.7455 26.7252 32.1891 26.4991 31.7741 26.0951C31.359 25.6911 31.118 25.1411 31.1024 24.5621Z" fill="#373E6E"/>
</g>
<defs>
<clipPath id="clip0_254_2325">
<rect width="40" height="40" fill="white" transform="translate(-0.000366211 0.109375)"/>
</clipPath>
</defs>
</svg>
