<svg width="35" height="34" viewBox="0 0 35 34" fill="none" xmlns="http://www.w3.org/2000/svg">
<path d="M26.574 4.0155L22.3688 8.82395C23.7709 10.5017 24.6935 12.5272 25.039 14.6863L34.578 4.0155H26.574Z" fill="#F72B13"/>
<path d="M0.220825 4.0155H7.81811C7.81811 4.0155 8.70932 6.68234 8.86858 8.1801C8.86858 8.1801 7.13022 9.79647 6.52705 10.891L0.220825 4.0155Z" fill="#F72B13"/>
<path d="M9.0144 32.8425C8.87434 32.9893 8.73201 33.1351 8.58743 33.2796H1.10876L9.74634 23.7644L11.8202 21.4805C11.8202 21.4805 14.0024 27.4885 9.0144 32.8425Z" fill="#F72B13"/>
<path d="M33.8901 33.2796H23.5006L21.3082 30.7076L19.1903 28.2543C21.263 26.7215 22.9223 24.6978 24.0191 22.3649L25.2559 23.7203L33.8901 33.2796Z" fill="#F72B13"/>
<path d="M12.1793 6.60779C12.0584 6.60588 11.9376 6.61954 11.8202 6.64846C11.2986 6.80239 10.7961 7.01497 10.3224 7.28213C10.3224 6.32654 9.91237 4.96771 9.44813 3.74103C8.86528 2.18904 8.19773 0.853925 8.18079 0.81665C11.7049 3.25984 12.1793 6.60779 12.1793 6.60779Z" fill="url(#paint0_linear_488_3439)"/>
<path d="M22.5179 17.692C21.8978 21.6871 19.7189 24.8352 17.5163 27.0886C15.9242 28.7246 14.1064 30.1247 12.1182 31.2464C14.5682 28.2814 14.0565 23.2967 14.0565 23.2967C13.0603 16.8584 6.60157 18.3392 6.60157 18.3392C2.48102 18.634 1.43054 16.5059 1.43054 16.5059C1.68168 16.3932 1.90496 16.2266 2.08454 16.018C2.19097 15.8867 2.26212 15.7304 2.29125 15.5639C2.32353 15.2559 2.24938 14.9462 2.08116 14.6863C1.9619 14.4827 1.81477 14.2967 1.64403 14.1339C5.06653 13.7307 6.60157 12.4396 6.60157 12.4396C7.46567 12.1007 8.87872 10.3353 8.87872 10.3353C9.91535 9.19075 11.233 8.33687 12.7011 7.85819C14.9206 7.18047 17.6451 7.50238 19.5156 8.93577C19.8836 9.21737 20.2159 9.54282 20.5051 9.90491C21.1346 10.7082 21.6238 11.6121 21.952 12.5785C22.5408 14.2146 22.7347 15.9667 22.5179 17.692Z" fill="url(#paint1_linear_488_3439)"/>
<path d="M19.2751 9.85071C19.004 12.5616 16.3913 13.7036 16.3913 13.7036C16.4499 13.5943 16.5009 13.481 16.5438 13.3647C16.6866 13.0448 16.7604 12.6984 16.7604 12.3481C16.7604 11.9978 16.6866 11.6514 16.5438 11.3315C15.8288 9.13571 12.9316 9.35258 12.9316 9.35258C14.6055 6.55359 11.3152 0.0813268 11.2745 0C11.6676 0.169431 12.0437 0.338858 12.3995 0.515066L12.4978 0.562512C20.1629 4.37809 19.2751 9.85071 19.2751 9.85071Z" fill="url(#paint2_linear_488_3439)"/>
<path d="M17.1029 11.5213C17.1029 11.5213 16.964 13.0293 16.5539 13.3647C16.7435 12.8536 16.7884 12.3 16.6838 11.765C16.5791 11.2299 16.329 10.7341 15.9609 10.3319C15.229 9.58303 14.1412 9.39665 13.494 9.35599C13.3135 9.34447 13.1324 9.34447 12.9518 9.35599C14.6258 6.55699 11.3355 0.0847448 11.2948 0.00341797C11.6879 0.172849 12.064 0.342276 12.4198 0.518484L12.6435 0.731968C12.6435 0.731968 17.5163 5.10667 17.1029 11.5213Z" fill="#FDA704"/>
<path d="M15.961 10.3319C15.2291 9.58301 14.1414 9.39664 13.4941 9.35598L13.545 9.28482C15.3579 7.59051 13.2061 3.18531 13.1553 3.08704C16.3609 7.66506 15.961 10.3319 15.961 10.3319Z" fill="#FFE72E"/>
<path opacity="0.11" d="M9.01428 32.8425C10.8916 28.5762 9.74622 23.7644 9.74622 23.7644L11.8201 21.4805C11.8201 21.4805 14.0023 27.4885 9.01428 32.8425Z" fill="black"/>
<path d="M15.4222 16.0519L7.34711 15.8858L5.21906 16.0519L2.28114 16.2891L2.07443 16.018C2.18085 15.8867 2.25201 15.7304 2.28114 15.5639C2.31341 15.256 2.23927 14.9462 2.07104 14.6863C2.60567 14.6638 3.13855 14.6106 3.66708 14.527C4.78758 14.3756 5.88487 14.0853 6.9337 13.6629C7.68136 13.328 8.40788 12.9478 9.1092 12.5243C9.42056 12.3559 9.71751 12.1621 9.99701 11.9449C10.3883 11.6261 10.8216 11.3627 11.2847 11.1621C12.1509 10.7564 13.1208 10.6263 14.0634 10.7894C14.9483 10.9895 15.7476 11.4639 16.3473 12.1448C16.3473 12.1448 18.1907 14.1949 15.4222 16.0519Z" fill="url(#paint3_linear_488_3439)"/>
<path opacity="0.11" d="M25.2627 23.7305C24.6739 26.4001 23.2961 28.831 21.3082 30.7076L19.1903 28.2543C21.263 26.7215 22.9223 24.6978 24.0191 22.3649L25.2627 23.7305Z" fill="black"/>
<path d="M11.8202 6.64846C11.2985 6.80239 10.7961 7.01497 10.3224 7.28213C10.3224 6.32654 9.91236 4.96771 9.44812 3.74103C10.5247 4.43685 11.3546 5.45414 11.8202 6.64846Z" fill="#FDA704"/>
<path d="M18.655 22.5241C18.5631 24.1033 18.177 25.6513 17.5165 27.0886C16.2337 28.3939 14.8122 29.5551 13.2773 30.5518C12.5691 31.0126 12.1218 31.2295 12.1218 31.2295C12.3471 30.9581 12.5521 30.6704 12.7351 30.3688C14.4769 27.3936 14.0567 23.3069 14.0567 23.3069C13.379 18.9017 10.1259 18.2003 8.14694 18.2003C7.62474 18.1964 7.10353 18.2464 6.59156 18.3494C2.47101 18.6442 1.42053 16.5161 1.42053 16.5161C1.98982 16.2383 2.22703 15.9028 2.28124 15.5741C2.40323 15.5944 2.54217 15.6317 2.62011 15.6385C4.42425 15.7716 6.23812 15.6576 8.0114 15.2996C9.81075 14.9879 11.6575 14.71 13.4569 15.1776C14.9379 15.572 16.2398 16.4602 17.1471 17.6954C18.182 19.0878 18.7136 20.7902 18.655 22.5241Z" fill="#FDA704"/>
<path d="M12.7351 30.3687C14.4768 27.3935 14.0566 23.3069 14.0566 23.3069C13.3789 18.9017 10.1258 18.2002 8.14689 18.2002V18.1731C8.14689 18.1731 4.75828 18.2477 3.40283 17.3497C3.40283 17.3497 5.07342 17.9698 8.89917 17.2548C8.89917 17.2548 12.403 16.611 14.5853 20.2741C14.5683 20.2639 17.408 25.069 12.7351 30.3687Z" fill="#FFE72E"/>
<path d="M18.655 22.5242C18.5631 24.1033 18.1769 25.6513 17.5164 27.0886C16.2336 28.3939 14.8121 29.5552 13.2772 30.5518C19.5326 24.2727 17.2012 17.858 17.1369 17.675C18.1798 19.0717 18.7153 20.7822 18.655 22.5242Z" fill="#FFE72E"/>
<path d="M22.5179 17.6919C21.8977 21.6871 19.7189 24.8352 17.5163 27.0886C18.6616 24.4658 18.8005 22.5953 18.5667 21.0399C18.3881 19.7656 17.8693 18.5631 17.0648 17.5589C16.2604 16.5546 15.2 15.7859 13.9955 15.3335C17.8077 14.4626 19.3156 18.8712 19.3156 18.8712C22.833 13.9272 19.5731 9.0442 19.5054 8.93237C19.8734 9.21397 20.2057 9.53943 20.4948 9.90152C21.1244 10.7048 21.6136 11.6088 21.9418 12.5751C22.5346 14.2115 22.732 15.9648 22.5179 17.6919Z" fill="url(#paint4_linear_488_3439)"/>
<path d="M9.93945 13.5036C10.0208 13.5239 10.2004 13.3647 10.2478 13.324C10.6206 13.0156 10.7866 12.5446 11.1627 12.243C11.4984 11.9813 11.9014 11.8203 12.325 11.7788C12.5256 11.7585 12.7277 11.7585 12.9282 11.7788C13.0434 11.7788 13.1586 11.8059 13.2671 11.8262C13.3755 11.8466 13.5822 11.9448 13.6432 11.9177C13.3518 12.066 13.1085 12.2939 12.9418 12.5751C12.7396 12.8796 12.478 13.1401 12.1726 13.341C11.8392 13.5136 11.4667 13.5966 11.0916 13.5815C10.7058 13.6126 10.3175 13.5864 9.93945 13.5036Z" fill="black"/>
<path d="M0.593578 15.1911C0.8612 15.1911 1.07815 14.9742 1.07815 14.7066C1.07815 14.4389 0.8612 14.222 0.593578 14.222C0.325957 14.222 0.109009 14.4389 0.109009 14.7066C0.109009 14.9742 0.325957 15.1911 0.593578 15.1911Z" fill="black"/>
<defs>
<linearGradient id="paint0_linear_488_3439" x1="12.0845" y1="6.76028" x2="7.64538" y2="2.32459" gradientUnits="userSpaceOnUse">
<stop stop-color="#BB862A"/>
<stop offset="0.06" stop-color="#C48E24"/>
<stop offset="0.17" stop-color="#DBA414"/>
<stop offset="0.24" stop-color="#F0B706"/>
<stop offset="0.68" stop-color="#FEF387"/>
<stop offset="0.84" stop-color="#ECCB64"/>
<stop offset="1" stop-color="#BB862A"/>
</linearGradient>
<linearGradient id="paint1_linear_488_3439" x1="12.0166" y1="20.5452" x2="12.0166" y2="7.93613" gradientUnits="userSpaceOnUse">
<stop stop-color="#BB862A"/>
<stop offset="0.06" stop-color="#C48E24"/>
<stop offset="0.17" stop-color="#DBA414"/>
<stop offset="0.24" stop-color="#F0B706"/>
<stop offset="0.68" stop-color="#FEF387"/>
<stop offset="0.84" stop-color="#ECCB64"/>
<stop offset="1" stop-color="#BB862A"/>
</linearGradient>
<linearGradient id="paint2_linear_488_3439" x1="11.2949" y1="6.85178" x2="19.3157" y2="6.85178" gradientUnits="userSpaceOnUse">
<stop stop-color="#BB862A"/>
<stop offset="0.06" stop-color="#C48E24"/>
<stop offset="0.17" stop-color="#DBA414"/>
<stop offset="0.24" stop-color="#F0B706"/>
<stop offset="0.68" stop-color="#FEF387"/>
<stop offset="0.84" stop-color="#ECCB64"/>
<stop offset="1" stop-color="#BB862A"/>
</linearGradient>
<linearGradient id="paint3_linear_488_3439" x1="2.09815" y1="15.1132" x2="16.3642" y2="13.0733" gradientUnits="userSpaceOnUse">
<stop stop-opacity="0.1"/>
<stop offset="1" stop-opacity="0"/>
</linearGradient>
<linearGradient id="paint4_linear_488_3439" x1="15.8626" y1="16.7601" x2="20.5287" y2="18.9661" gradientUnits="userSpaceOnUse">
<stop stop-opacity="0"/>
<stop offset="1" stop-opacity="0.1"/>
</linearGradient>
</defs>
</svg>
