<svg width="520" height="263" viewBox="0 0 520 263" fill="none" xmlns="http://www.w3.org/2000/svg">
<rect x="315.556" y="66.5293" width="70.5088" height="18.6065" rx="9.30324" fill="#F3F5FE"/>
<rect x="396.348" y="66.5293" width="26.4408" height="18.6065" rx="9.30324" fill="#F3F5FE"/>
<rect x="311.538" y="103.739" width="90.9076" height="18.6065" rx="9.30324" fill="#F3F5FE"/>
<path d="M356.677 84.5308C351.404 84.5308 347.129 88.8054 347.129 94.0786C347.129 99.3519 351.403 103.626 356.677 103.626H314.823C309.55 103.626 305.275 99.3517 305.275 94.0786C305.275 88.8056 309.55 84.531 314.823 84.5308H356.677Z" fill="#F3F5FE"/>
<rect width="115.102" height="21.6862" rx="10.8431" transform="matrix(-1 0 0 1 226.062 123.299)" fill="#F3F5FE"/>
<rect width="36.7359" height="22.034" rx="11.017" transform="matrix(-1 0 0 1 87.8856 123.299)" fill="#F3F5FE"/>
<rect width="169.24" height="21.13" rx="10.565" transform="matrix(-1 0 0 1 234.849 166.802)" fill="#F3F5FE"/>
<path d="M157.616 144.989C163.604 144.989 168.458 149.844 168.458 155.832C168.458 161.82 163.604 166.675 157.616 166.675H235.676C241.665 166.675 246.519 161.821 246.519 155.832C246.519 149.844 241.665 144.989 235.676 144.989H157.616Z" fill="#F3F5FE"/>
<rect x="336.62" y="184.609" width="61.5364" height="13.2725" rx="6.63627" fill="#F3F5FE"/>
<rect x="290.769" y="207.536" width="153.238" height="13.2725" rx="6.63627" fill="#F3F5FE"/>
<path d="M377.976 197.661C375.272 197.661 373.08 199.852 373.08 202.556C373.08 205.26 375.272 207.452 377.976 207.452H351.857C354.561 207.452 356.752 205.26 356.752 202.556C356.752 199.852 354.561 197.661 351.857 197.661H377.976Z" fill="#F3F5FE"/>
<path d="M340.481 107.814C346.507 128.576 356.368 143.228 350.939 156.501C347.977 163.74 345.509 168.628 330.49 192.52C320.445 204.898 318.247 217.168 310.073 225.968C294.105 243.161 282.508 240.979 260.987 233.352C250.916 229.784 243.547 220.211 221.892 216.411C216.599 215.483 199.954 216.823 186.272 211.633C164.934 199.012 157.567 190.244 160.643 168.628C159.506 154.628 154.06 151.32 152.389 144.737C146.484 121.475 147.101 109.901 160.643 93.9135C169.407 83.0552 182.716 80.0798 199.304 73.0629C215.391 65.6782 218.771 56.1694 229.711 49.1715C247.185 37.9939 270.029 31.5236 285.748 36.1398C307.624 42.5645 319.606 47.0044 335.268 73.0629C339.486 80.0798 338.498 87.4651 340.481 107.814Z" fill="#F3F5FE"/>
<path d="M243.25 126.25L254 137M254 137L264.75 147.75M254 137L243.25 147.75M254 137L264.75 126.25M254 169.25C236.189 169.25 221.75 154.811 221.75 137C221.75 119.189 236.189 104.75 254 104.75C271.812 104.75 286.25 119.189 286.25 137C286.25 154.811 271.812 169.25 254 169.25Z" stroke="#0E53E2" stroke-width="6" stroke-linecap="round" stroke-linejoin="round"/>
<ellipse cx="212.18" cy="36.4422" rx="12.6693" ry="12.6692" fill="#F3F5FE"/>
<ellipse cx="192.876" cy="20.7583" rx="6.63628" ry="6.63627" fill="#F3F5FE"/>
<ellipse cx="210.891" cy="234.189" rx="12.6693" ry="12.6692" transform="rotate(174.849 210.891 234.189)" fill="#F3F5FE"/>
<ellipse cx="231.527" cy="248.079" rx="6.63628" ry="6.63627" transform="rotate(174.849 231.527 248.079)" fill="#F3F5FE"/>
<ellipse cx="144.759" cy="155.619" rx="6.63628" ry="6.63627" transform="rotate(174.849 144.759 155.619)" fill="#F3F5FE"/>
<g opacity="0.25">
<g clip-path="url(#clip0_650_19038)">
<path d="M501.154 218.13L505.014 222.171L503.978 223.261L500.321 219.25L500.073 219.364V224.674L498.776 224.741V219.274L494.875 223.493L493.749 222.05C495.048 220.835 496.344 219.623 497.636 218.414L497.49 218.137H492.18C492.148 217.664 492.124 217.31 492.092 216.841H497.422L497.603 216.569L493.716 212.645L494.634 211.798L498.71 215.684L498.681 215.65C497.402 216.855 497.256 217.878 498.231 218.761C499.132 219.572 500.008 219.391 501.179 218.157L501.154 218.13Z" fill="#0E53E2"/>
<path d="M500.016 215.686L504.15 211.843L505.029 212.638L501.155 216.819L501.191 216.783L500.065 215.656L500.016 215.686Z" fill="#0E53E2"/>
<path d="M501.15 216.821H506.705L506.784 218.13H501.154L501.186 218.157V216.785L501.15 216.821Z" fill="#0E53E2"/>
<path d="M498.71 215.681V210.13L500.016 210.049V215.681L500.05 215.645H498.681L498.71 215.681Z" fill="#0E53E2"/>
<path d="M499.437 218.84C498.971 218.177 498.482 217.783 498.52 217.452C498.563 217.078 499.081 216.758 499.394 216.414C499.739 216.742 500.295 217.033 500.362 217.409C500.419 217.731 499.91 218.153 499.437 218.84Z" fill="#0E53E2"/>
</g>
<g clip-path="url(#clip1_650_19038)">
<path d="M82.509 37.4581L86.3688 41.4993L85.333 42.5896L81.6758 38.5776L81.4281 38.6925V44.002L80.131 44.0695V38.6024L76.2306 42.8216L75.1047 41.3777C76.4033 40.1627 77.6989 38.9508 78.9915 37.7419L78.8451 37.4648H73.5351C73.5036 36.9918 73.4788 36.6381 73.4473 36.1696H78.7776L78.9577 35.897L75.0709 31.973L75.9897 31.126L80.0657 35.0117L80.0364 34.978C78.7573 36.1831 78.6109 37.2058 79.586 38.0888C80.4868 38.8998 81.3628 38.7196 82.5338 37.4851L82.509 37.4581Z" fill="#0E53E2"/>
<path d="M81.371 35.0134L85.5055 31.1704L86.3838 31.9656L82.5104 36.1464L82.5465 36.1104L81.4205 34.9841L81.371 35.0134Z" fill="#0E53E2"/>
<path d="M82.5048 36.1488H88.0603L88.1391 37.4576H82.5093L82.5408 37.4846V36.1128L82.5048 36.1488Z" fill="#0E53E2"/>
<path d="M80.0652 35.009V29.4585L81.3713 29.3774V35.009L81.4051 34.973H80.0359L80.0652 35.009Z" fill="#0E53E2"/>
<path d="M80.7921 38.1673C80.3259 37.505 79.8372 37.1108 79.8755 36.7797C79.9183 36.4057 80.4363 36.0859 80.7493 35.7412C81.0938 36.0701 81.6501 36.3607 81.7176 36.7369C81.7739 37.059 81.265 37.4802 80.7921 38.1673Z" fill="#0E53E2"/>
</g>
<g clip-path="url(#clip2_650_19038)">
<path d="M15.4048 198.814L21.9664 205.684L20.2054 207.537L13.9883 200.717L13.5672 200.912V209.938L11.3621 210.053V200.759L4.7315 207.932L2.81736 205.477C5.02501 203.412 7.22755 201.352 9.42498 199.296L9.17616 198.825H0.149064C0.0954685 198.021 0.0533518 197.42 -0.000244141 196.623H9.06129L9.36757 196.16L2.75995 189.489L4.3219 188.049L11.2511 194.655L11.2013 194.598C9.02684 196.646 8.77801 198.385 10.4357 199.886C11.967 201.265 13.4562 200.958 15.4469 198.86L15.4048 198.814Z" fill="#0E53E2"/>
<path d="M13.4725 194.662L20.5013 188.129L21.9943 189.481L15.4096 196.588L15.4709 196.527L13.5568 194.612L13.4725 194.662Z" fill="#0E53E2"/>
<path d="M15.3967 196.588H24.8411L24.9751 198.813H15.4044L15.458 198.859V196.526L15.3967 196.588Z" fill="#0E53E2"/>
<path d="M11.2511 194.653V185.217L13.4715 185.079V194.653L13.5289 194.591H11.2013L11.2511 194.653Z" fill="#0E53E2"/>
<path d="M12.486 200.015C11.6936 198.89 10.8628 198.219 10.9279 197.656C11.0006 197.021 11.8812 196.477 12.4133 195.891C12.999 196.45 13.9446 196.944 14.0595 197.584C14.1552 198.131 13.29 198.847 12.486 200.015Z" fill="#0E53E2"/>
</g>
<g clip-path="url(#clip3_650_19038)">
<path d="M0.368053 18.9502C0.79926 17.7847 1.57761 16.7795 2.5981 16.0702C3.61858 15.3609 4.83206 14.9818 6.07481 14.9839C7.32043 14.982 8.53689 15.3609 9.5611 16.0698C10.5853 16.7787 11.3684 17.7838 11.8053 18.9502C11.7343 18.9502 11.7106 18.9502 11.6869 18.9502C11.4998 18.4689 11.2489 18.015 10.941 17.6005C10.5945 17.1199 10.1751 16.6965 9.69779 16.3455C8.83462 15.6856 7.8065 15.276 6.72602 15.1615C5.9313 15.0627 5.12471 15.1313 4.35806 15.3628C3.98091 15.4761 3.616 15.6269 3.26878 15.8127C2.44981 16.2255 1.7399 16.8259 1.19682 17.565C0.891182 17.9852 0.640509 18.4428 0.450904 18.9266C0.425922 18.9674 0.393862 19.0035 0.356201 19.0331L0.368053 18.9502Z" fill="#F3F5FE" stroke="#F3F5FE" stroke-width="0.603298" stroke-miterlimit="10"/>
<path d="M11.7915 23.2375C11.3926 24.3216 10.6929 25.2694 9.77437 25.9698C8.85585 26.6702 7.75664 27.0942 6.60568 27.192C5.28429 27.2937 3.96566 26.963 2.84869 26.2497C1.73173 25.5363 0.876998 24.4791 0.413452 23.2375C0.484491 23.2375 0.508178 23.2375 0.531857 23.2375C0.638416 23.4743 0.744972 23.7111 0.863371 23.9361C1.07451 24.3292 1.33295 24.695 1.63295 25.0254C2.10209 25.5594 2.66361 26.0046 3.29055 26.3396C4.05678 26.7552 4.90633 26.9938 5.77688 27.0381C6.40601 27.0856 7.03865 27.0256 7.64759 26.8605C8.08844 26.7351 8.51653 26.5686 8.92628 26.3633C9.44357 26.1059 9.91548 25.766 10.3234 25.3569C10.9383 24.7678 11.4188 24.053 11.7323 23.2612C11.7086 23.2257 11.7086 23.2257 11.7915 23.2375Z" fill="#F3F5FE" stroke="#F3F5FE" stroke-width="0.603298" stroke-miterlimit="10"/>
<path d="M9.75586 23.262C9.36571 23.9301 8.79919 24.4779 8.11838 24.8455C7.43756 25.2131 6.66871 25.3861 5.89607 25.3458C5.18437 25.3201 4.49101 25.1131 3.8818 24.7443C3.2726 24.3754 2.76775 23.857 2.41516 23.2383C2.4862 23.2383 2.52174 23.2383 2.54542 23.2383C2.74675 23.5571 2.98961 23.8478 3.26763 24.1026C3.81604 24.6082 4.4911 24.956 5.22119 25.109C6.22305 25.334 7.27305 25.1689 8.15747 24.6472C8.75397 24.3131 9.25526 23.8322 9.61378 23.2501C9.61378 23.2501 9.68482 23.1791 9.72034 23.1436L9.75586 23.262Z" fill="#F3F5FE" stroke="#F3F5FE" stroke-width="0.603298" stroke-miterlimit="10"/>
<path d="M2.41587 18.947C2.79243 18.2891 3.34035 17.7457 4.00128 17.3746C4.6622 17.0035 5.4114 16.8186 6.1691 16.8395C6.89158 16.853 7.5983 17.053 8.22065 17.4202C8.84301 17.7874 9.35987 18.3093 9.72104 18.9351L9.61449 18.8759C9.2868 18.3335 8.83671 17.8754 8.30025 17.538C7.93779 17.3015 7.53726 17.1293 7.11627 17.0289C6.4972 16.8677 5.84983 16.8474 5.2219 16.9697C4.53693 17.1167 3.89861 17.4298 3.36307 17.8814C3.0371 18.1579 2.7538 18.481 2.52242 18.8404C2.52242 18.8404 2.45141 18.9115 2.40405 18.947H2.41587Z" fill="#F3F5FE" stroke="#F3F5FE" stroke-width="0.603298" stroke-miterlimit="10"/>
</g>
<g clip-path="url(#clip4_650_19038)">
<path d="M426.359 85.0479C426.79 83.8823 427.568 82.8771 428.589 82.1679C429.609 81.4586 430.823 81.0794 432.065 81.0816C433.311 81.0797 434.527 81.4586 435.552 82.1675C436.576 82.8764 437.359 83.8814 437.796 85.0479C437.725 85.0479 437.701 85.0479 437.677 85.0479C437.49 84.5666 437.239 84.1126 436.931 83.6982C436.585 83.2176 436.166 82.7941 435.688 82.4431C434.825 81.7832 433.797 81.3736 432.717 81.2592C431.922 81.1604 431.115 81.2289 430.349 81.4604C429.971 81.5738 429.606 81.7245 429.259 81.9103C428.44 82.3232 427.73 82.9236 427.187 83.6626C426.882 84.0829 426.631 84.5404 426.441 85.0242C426.416 85.0651 426.384 85.1012 426.347 85.1308L426.359 85.0479Z" fill="#F3F5FE" stroke="#F3F5FE" stroke-width="0.603298" stroke-miterlimit="10"/>
<path d="M437.782 89.3318C437.383 90.4158 436.683 91.3636 435.765 92.0641C434.846 92.7645 433.747 93.1885 432.596 93.2863C431.275 93.388 429.956 93.0572 428.839 92.3439C427.722 91.6306 426.867 90.5734 426.404 89.3318C426.475 89.3318 426.499 89.3318 426.522 89.3318C426.629 89.5686 426.735 89.8054 426.854 90.0303C427.065 90.4235 427.323 90.7893 427.623 91.1196C428.093 91.6536 428.654 92.0988 429.281 92.4338C430.047 92.8494 430.897 93.0881 431.767 93.1324C432.396 93.1799 433.029 93.1198 433.638 92.9548C434.079 92.8294 434.507 92.6629 434.917 92.4575C435.434 92.2002 435.906 91.8603 436.314 91.4511C436.929 90.862 437.409 90.1472 437.723 89.3555C437.699 89.3199 437.699 89.3199 437.782 89.3318Z" fill="#F3F5FE" stroke="#F3F5FE" stroke-width="0.603298" stroke-miterlimit="10"/>
<path d="M435.746 89.3601C435.356 90.0282 434.79 90.5761 434.109 90.9436C433.428 91.3112 432.659 91.4843 431.887 91.4439C431.175 91.4183 430.481 91.2112 429.872 90.8424C429.263 90.4736 428.758 89.9552 428.406 89.3364C428.477 89.3364 428.512 89.3364 428.536 89.3364C428.737 89.6553 428.98 89.9459 429.258 90.2007C429.807 90.7064 430.482 91.0541 431.212 91.2071C432.214 91.4322 433.264 91.2671 434.148 90.7454C434.744 90.4113 435.246 89.9304 435.604 89.3483C435.604 89.3483 435.675 89.2772 435.711 89.2417L435.746 89.3601Z" fill="#F3F5FE" stroke="#F3F5FE" stroke-width="0.603298" stroke-miterlimit="10"/>
<path d="M428.406 85.0446C428.783 84.3868 429.331 83.8434 429.992 83.4723C430.653 83.1012 431.402 82.9162 432.16 82.9371C432.882 82.9506 433.589 83.1507 434.211 83.5179C434.833 83.8851 435.35 84.4069 435.712 85.0328L435.605 84.9736C435.277 84.4312 434.827 83.973 434.291 83.6357C433.928 83.3992 433.528 83.227 433.107 83.1266C432.488 82.9653 431.84 82.9451 431.212 83.0674C430.527 83.2143 429.889 83.5274 429.354 83.979C429.028 84.2555 428.744 84.5787 428.513 84.9381C428.513 84.9381 428.442 85.0091 428.395 85.0446H428.406Z" fill="#F3F5FE" stroke="#F3F5FE" stroke-width="0.603298" stroke-miterlimit="10"/>
</g>
<g clip-path="url(#clip5_650_19038)">
<path d="M114.578 101.673C115.247 99.8523 116.449 98.2831 118.022 97.1758C119.595 96.0684 121.465 95.476 123.38 95.4781C125.3 95.4732 127.175 96.0654 128.752 97.175C130.33 98.2846 131.534 99.8582 132.203 101.684C132.101 101.73 132.058 101.684 132.02 101.588C131.737 100.832 131.353 100.118 130.881 99.4652C130.343 98.7172 129.698 98.0557 128.966 97.503C127.634 96.4844 126.056 95.8506 124.398 95.6688C123.188 95.5288 121.962 95.6363 120.793 95.985C120.215 96.1689 119.653 96.4023 119.114 96.6826C117.852 97.3318 116.76 98.2751 115.927 99.4352C115.449 100.086 115.06 100.8 114.772 101.558C114.748 101.618 114.683 101.662 114.638 101.714L114.578 101.673Z" fill="#0E53E2"/>
<path d="M132.195 108.366C131.573 110.075 130.48 111.567 129.045 112.663C127.611 113.758 125.896 114.413 124.105 114.547C122.072 114.707 120.042 114.191 118.323 113.078C116.603 111.965 115.287 110.315 114.573 108.377C114.675 108.317 114.713 108.377 114.756 108.462C114.92 108.832 115.081 109.203 115.266 109.552C115.592 110.163 115.987 110.733 116.446 111.25C117.164 112.086 118.027 112.783 118.993 113.305C120.174 113.949 121.481 114.321 122.821 114.395C123.79 114.467 124.765 114.375 125.704 114.122C126.383 113.92 127.045 113.66 127.681 113.345C128.478 112.941 129.204 112.407 129.831 111.765C130.769 110.843 131.502 109.728 131.98 108.494C132.06 108.358 132.063 108.358 132.195 108.366Z" fill="#0E53E2"/>
<path d="M129.052 108.411C127.657 110.592 125.688 111.734 123.095 111.665C122 111.626 120.933 111.303 119.995 110.727C119.057 110.152 118.28 109.342 117.738 108.376C117.851 108.308 117.899 108.376 117.948 108.469C118.252 108.975 118.627 109.433 119.06 109.831C119.903 110.618 120.94 111.16 122.061 111.398C123.605 111.743 125.22 111.485 126.585 110.676C127.502 110.153 128.274 109.403 128.829 108.496C128.878 108.437 128.935 108.386 128.998 108.343L129.052 108.411Z" fill="#0E53E2"/>
<path d="M117.74 101.677C118.319 100.649 119.161 99.7998 120.178 99.2187C121.194 98.6377 122.347 98.3466 123.514 98.3766C125.932 98.4529 127.758 99.5948 129.045 101.647L129.008 101.715C128.951 101.68 128.876 101.658 128.844 101.606C128.331 100.765 127.638 100.052 126.815 99.5212C126.264 99.1623 125.659 98.8972 125.023 98.7364C124.074 98.4716 123.077 98.4417 122.114 98.6491C121.058 98.8694 120.073 99.3548 119.25 100.061C118.748 100.499 118.312 101.008 117.955 101.573C117.903 101.632 117.846 101.685 117.783 101.731L117.74 101.677Z" fill="#0E53E2"/>
</g>
<g clip-path="url(#clip6_650_19038)">
<path d="M502.378 178.058C503.046 176.238 504.248 174.669 505.821 173.562C507.395 172.454 509.264 171.862 511.179 171.864C513.099 171.859 514.974 172.451 516.552 173.561C518.129 174.67 519.334 176.244 520.002 178.069C519.9 178.116 519.857 178.069 519.82 177.974C519.536 177.217 519.153 176.503 518.681 175.851C518.143 175.103 517.497 174.441 516.765 173.889C515.434 172.87 513.855 172.236 512.198 172.055C510.987 171.915 509.761 172.022 508.592 172.371C508.014 172.555 507.452 172.788 506.913 173.068C505.651 173.718 504.559 174.661 503.727 175.821C503.248 176.472 502.859 177.186 502.571 177.944C502.547 178.004 502.483 178.047 502.437 178.099L502.378 178.058Z" fill="#0E53E2"/>
<path d="M519.994 184.748C519.372 186.457 518.279 187.948 516.845 189.044C515.41 190.14 513.695 190.795 511.905 190.929C509.871 191.089 507.841 190.573 506.122 189.46C504.403 188.347 503.087 186.697 502.372 184.759C502.474 184.699 502.512 184.759 502.555 184.844C502.719 185.214 502.88 185.585 503.065 185.934C503.391 186.545 503.787 187.115 504.245 187.632C504.964 188.468 505.827 189.164 506.792 189.686C507.973 190.331 509.281 190.703 510.62 190.777C511.59 190.849 512.564 190.757 513.503 190.504C514.182 190.302 514.844 190.042 515.481 189.727C516.277 189.323 517.003 188.789 517.63 188.147C518.568 187.224 519.301 186.109 519.779 184.876C519.86 184.74 519.862 184.74 519.994 184.748Z" fill="#0E53E2"/>
<path d="M516.851 184.794C515.457 186.974 513.487 188.116 510.895 188.048C509.799 188.009 508.732 187.686 507.794 187.11C506.857 186.534 506.08 185.725 505.537 184.759C505.65 184.691 505.699 184.759 505.747 184.851C506.051 185.357 506.426 185.816 506.859 186.214C507.702 187.001 508.739 187.543 509.86 187.781C511.404 188.126 513.02 187.868 514.385 187.059C515.302 186.536 516.073 185.786 516.628 184.879C516.677 184.82 516.734 184.769 516.797 184.726L516.851 184.794Z" fill="#0E53E2"/>
<path d="M505.539 178.059C506.118 177.032 506.961 176.182 507.977 175.601C508.994 175.02 510.146 174.729 511.313 174.759C513.731 174.835 515.558 175.977 516.845 178.029L516.807 178.097C516.751 178.062 516.676 178.04 516.643 177.988C516.131 177.147 515.437 176.435 514.615 175.904C514.064 175.545 513.458 175.28 512.823 175.119C511.874 174.854 510.876 174.824 509.913 175.031C508.857 175.252 507.873 175.737 507.049 176.443C506.548 176.881 506.112 177.391 505.754 177.956C505.703 178.015 505.645 178.068 505.582 178.114L505.539 178.059Z" fill="#0E53E2"/>
</g>
<g clip-path="url(#clip7_650_19038)">
<path d="M348.193 6.77591L341.637 13.339L334.915 6.61624C335.993 5.72546 337.326 4.77307 338.469 3.6302C339.611 2.48732 340.568 1.15115 341.482 0.050293L348.193 6.77591Z" fill="#0E53E2"/>
<path d="M354.145 -0.000976562L356.958 2.85342L354.018 5.53694L351.466 2.73577L354.145 -0.000976562Z" fill="#0E53E2"/>
<path d="M353.29 12.3878C352.573 13.1077 351.729 13.9565 351.003 14.6904L348.622 12.2786L351.155 10.1665L353.29 12.3878Z" fill="#0E53E2"/>
</g>
<g clip-path="url(#clip8_650_19038)">
<path d="M138.135 255.023L131.579 261.586L124.857 254.863C125.935 253.973 127.269 253.02 128.411 251.877C129.553 250.734 130.51 249.398 131.424 248.297L138.135 255.023Z" fill="#0E53E2"/>
<path d="M144.087 248.246L146.901 251.1L143.96 253.784L141.408 250.983L144.087 248.246Z" fill="#0E53E2"/>
<path d="M143.232 260.635C142.515 261.355 141.671 262.204 140.945 262.938L138.564 260.526L141.097 258.414L143.232 260.635Z" fill="#0E53E2"/>
</g>
<g clip-path="url(#clip9_650_19038)">
<path d="M146.952 86.1011L140.396 92.6642L133.674 85.9414C134.751 85.0507 136.085 84.0983 137.228 82.9554C138.37 81.8125 139.327 80.4763 140.241 79.3755L146.952 86.1011Z" fill="#F3F5FE"/>
<path d="M152.903 79.3242L155.717 82.1786L152.777 84.8621L150.225 82.061L152.903 79.3242Z" fill="#F3F5FE"/>
<path d="M152.049 91.7135C151.332 92.4334 150.487 93.2822 149.761 94.0161L147.381 91.6043L149.913 89.4922L152.049 91.7135Z" fill="#F3F5FE"/>
</g>
<g clip-path="url(#clip10_650_19038)">
<path d="M490.68 44.9644L484.124 51.5275L477.402 44.8047C478.48 43.9139 479.813 42.9616 480.956 41.8187C482.098 40.6758 483.055 39.3396 483.969 38.2388L490.68 44.9644Z" fill="#0E53E2"/>
<path d="M496.632 38.1875L499.445 41.0419L496.505 43.7254L493.953 40.9242L496.632 38.1875Z" fill="#0E53E2"/>
<path d="M495.777 50.5729C495.06 51.2928 494.216 52.1416 493.49 52.8755L491.109 50.4637L493.642 48.3516L495.777 50.5729Z" fill="#0E53E2"/>
</g>
<g clip-path="url(#clip11_650_19038)">
<path d="M40.0302 104.149C40.4614 102.983 41.2397 101.978 42.2602 101.269C43.2807 100.56 44.4942 100.181 45.7369 100.183C46.9825 100.181 48.199 100.56 49.2232 101.269C50.2474 101.977 51.0305 102.982 51.4674 104.149C51.3964 104.149 51.3727 104.149 51.349 104.149C51.1619 103.668 50.9111 103.214 50.6031 102.799C50.2567 102.319 49.8372 101.895 49.3599 101.544C48.4967 100.884 47.4686 100.475 46.3881 100.36C45.5934 100.261 44.7868 100.33 44.0202 100.561C43.643 100.675 43.2781 100.826 42.9309 101.011C42.1119 101.424 41.402 102.025 40.8589 102.764C40.5533 103.184 40.3026 103.641 40.113 104.125C40.088 104.166 40.056 104.202 40.0183 104.232L40.0302 104.149Z" fill="#0E53E2" stroke="#0E53E2" stroke-width="0.603298" stroke-miterlimit="10"/>
<path d="M51.4536 108.433C51.0547 109.517 50.355 110.465 49.4365 111.165C48.518 111.866 47.4187 112.29 46.2678 112.387C44.9464 112.489 43.6278 112.158 42.5108 111.445C41.3938 110.732 40.5391 109.674 40.0756 108.433C40.1466 108.433 40.1703 108.433 40.194 108.433C40.3005 108.67 40.4071 108.906 40.5255 109.131C40.7366 109.525 40.9951 109.89 41.2951 110.221C41.7642 110.755 42.3257 111.2 42.9527 111.535C43.7189 111.95 44.5684 112.189 45.439 112.233C46.0681 112.281 46.7008 112.221 47.3097 112.056C47.7505 111.93 48.1786 111.764 48.5884 111.559C49.1057 111.301 49.5776 110.961 49.9855 110.552C50.6004 109.963 51.081 109.248 51.3944 108.457C51.3707 108.421 51.3708 108.421 51.4536 108.433Z" fill="#0E53E2" stroke="#0E53E2" stroke-width="0.603298" stroke-miterlimit="10"/>
<path d="M49.418 108.457C49.0278 109.125 48.4613 109.673 47.7805 110.041C47.0997 110.408 46.3308 110.581 45.5582 110.541C44.8465 110.515 44.1531 110.308 43.5439 109.94C42.9347 109.571 42.4299 109.052 42.0773 108.434C42.1483 108.434 42.1838 108.434 42.2075 108.434C42.4089 108.752 42.6517 109.043 42.9297 109.298C43.4782 109.804 44.1532 110.151 44.8833 110.304C45.8852 110.529 46.9352 110.364 47.8196 109.843C48.4161 109.508 48.9174 109.028 49.2759 108.445C49.2759 108.445 49.3469 108.374 49.3824 108.339L49.418 108.457Z" fill="#0E53E2" stroke="#0E53E2" stroke-width="0.603298" stroke-miterlimit="10"/>
<path d="M42.078 104.142C42.4545 103.484 43.0025 102.941 43.6634 102.57C44.3243 102.199 45.0735 102.014 45.8312 102.035C46.5537 102.048 47.2604 102.248 47.8828 102.616C48.5051 102.983 49.022 103.505 49.3832 104.13L49.2766 104.071C48.9489 103.529 48.4988 103.071 47.9624 102.733C47.5999 102.497 47.1994 102.325 46.7784 102.224C46.1593 102.063 45.5119 102.043 44.884 102.165C44.199 102.312 43.5607 102.625 43.0252 103.077C42.6992 103.353 42.4159 103.676 42.1845 104.036C42.1845 104.036 42.1135 104.107 42.0662 104.142H42.078Z" fill="#0E53E2" stroke="#0E53E2" stroke-width="0.603298" stroke-miterlimit="10"/>
</g>
</g>
<defs>
<clipPath id="clip0_650_19038">
<rect width="14.6893" height="14.6893" fill="white" transform="translate(492.091 210.05)"/>
</clipPath>
<clipPath id="clip1_650_19038">
<rect width="14.6893" height="14.6893" fill="white" transform="translate(73.4464 29.377)"/>
</clipPath>
<clipPath id="clip2_650_19038">
<rect width="24.9719" height="24.9718" fill="white" transform="translate(0 185.08)"/>
</clipPath>
<clipPath id="clip3_650_19038">
<rect width="12.2068" height="12.8107" fill="white" transform="translate(0 14.687)"/>
</clipPath>
<clipPath id="clip4_650_19038">
<rect width="12.2068" height="12.8107" fill="white" transform="translate(425.99 80.7861)"/>
</clipPath>
<clipPath id="clip5_650_19038">
<rect width="17.6272" height="19.0961" fill="white" transform="translate(114.574 95.4795)"/>
</clipPath>
<clipPath id="clip6_650_19038">
<rect width="17.6272" height="19.0961" fill="white" transform="translate(502.373 171.865)"/>
</clipPath>
<clipPath id="clip7_650_19038">
<rect width="22.034" height="14.6893" fill="white" transform="translate(334.915)"/>
</clipPath>
<clipPath id="clip8_650_19038">
<rect width="22.034" height="14.6893" fill="white" transform="translate(124.857 248.248)"/>
</clipPath>
<clipPath id="clip9_650_19038">
<rect width="22.034" height="14.6893" fill="white" transform="translate(133.673 79.3237)"/>
</clipPath>
<clipPath id="clip10_650_19038">
<rect width="22.034" height="14.6893" fill="white" transform="translate(477.401 38.188)"/>
</clipPath>
<clipPath id="clip11_650_19038">
<rect width="12.2068" height="12.8107" fill="white" transform="translate(39.6611 99.8838)"/>
</clipPath>
</defs>
</svg>
