<svg width="50" height="66" viewBox="0 0 50 66" fill="none" xmlns="http://www.w3.org/2000/svg">
<path d="M0 8C0 3.58172 3.58172 0 8 0H33.547L39.9573 5.98291L50 14.7436V57.812C50 62.2302 46.4183 65.812 42 65.812H8C3.58172 65.812 0 62.2302 0 57.812V8Z" fill="#45B058"/>
<path d="M33.3929 10.5228L33.5477 0L50.0007 14.7436L37.3412 14.5813C35.1293 14.5529 33.3604 12.7346 33.3929 10.5228Z" fill="#A2D7AB"/>
<path d="M17.191 45.711C17.317 45.855 17.389 46.035 17.389 46.233C17.389 46.611 17.083 46.953 16.686 46.953C16.506 46.953 16.308 46.881 16.182 46.719C15.48 45.873 14.291 45.332 13.175 45.332C10.546 45.332 8.548 47.349 8.548 50.212C8.548 53.057 10.547 55.091 13.175 55.091C14.309 55.091 15.425 54.605 16.182 53.722C16.307 53.578 16.506 53.489 16.686 53.489C17.101 53.489 17.389 53.848 17.389 54.227C17.389 54.407 17.317 54.587 17.191 54.731C16.254 55.703 14.976 56.424 13.176 56.424C9.719 56.424 7 53.903 7 50.212C7 46.521 9.719 44 13.176 44C14.976 44.001 16.272 44.721 17.191 45.711ZM23.993 56.425C22.211 56.425 20.806 55.831 19.78 54.93C19.618 54.786 19.546 54.588 19.546 54.39C19.546 54.029 19.816 53.633 20.248 53.633C20.392 53.633 20.554 53.669 20.68 53.777C21.508 54.516 22.66 55.091 24.047 55.091C26.19 55.091 26.874 53.939 26.874 53.02C26.874 49.923 19.762 51.634 19.762 47.348C19.762 45.368 21.526 44.017 23.885 44.017C25.433 44.017 26.766 44.484 27.738 45.295C27.9 45.439 27.99 45.637 27.99 45.835C27.99 46.195 27.684 46.555 27.287 46.555C27.143 46.555 26.981 46.501 26.855 46.393C25.973 45.673 24.875 45.349 23.776 45.349C22.336 45.349 21.309 46.123 21.309 47.258C21.309 49.959 28.421 48.41 28.421 52.894C28.422 54.642 27.234 56.425 23.993 56.425ZM40.987 45.171L36.828 55.506C36.63 55.992 36.143 56.316 35.64 56.316H35.604C35.082 56.316 34.596 55.992 34.397 55.506L30.255 45.171C30.219 45.081 30.201 44.991 30.201 44.883C30.201 44.523 30.524 44.09 31.011 44.09C31.317 44.09 31.605 44.27 31.731 44.576L35.62 54.568L39.509 44.576C39.617 44.288 39.905 44.09 40.229 44.09C40.697 44.09 41.039 44.468 41.039 44.883C41.04 44.973 41.022 45.081 40.987 45.171Z" fill="white"/>
</svg>
