<svg width="49" height="67" viewBox="0 0 49 67" fill="none" xmlns="http://www.w3.org/2000/svg">
<path d="M33.88 0H4.92603C2.20543 0 0 2.20566 0 4.92602V61.0916C0 63.8122 2.20566 66.0176 4.92603 66.0176H44.074C46.7946 66.0176 49 63.8119 49 61.0916V15.12L33.88 0Z" fill="#008AFE"/>
<path d="M40.7423 28.698H7.98242V31.0781H40.7423V28.698Z" fill="white"/>
<path d="M40.7423 34.5803H7.98242V36.9604H40.7423V34.5803Z" fill="white"/>
<path d="M40.7423 41.198H7.98242V43.5781H40.7423V41.198Z" fill="white"/>
<path d="M25.0624 47.3601H7.98242V49.7402H25.0624V47.3601Z" fill="white"/>
<path d="M38.8067 15.12H49.0006L33.8809 0.000244141V10.1942C33.8806 12.9146 36.0861 15.12 38.8067 15.12Z" fill="#55C2F9"/>
</svg>
