<svg width="180" height="46" viewBox="0 0 180 46" fill="none" xmlns="http://www.w3.org/2000/svg">
<path d="M72.0817 3.54117L68.3684 7.79169C69.6085 9.27262 70.4245 11.0617 70.7298 12.969L79.16 3.52344L72.0817 3.54117Z" fill="#F72B13"/>
<path d="M48.7982 3.54297H55.5105C55.9177 4.74247 56.2296 5.97224 56.4432 7.22083C55.663 7.93777 54.9677 8.74198 54.3711 9.61765L48.7982 3.54297Z" fill="#F72B13"/>
<path d="M56.5673 29.032C56.4492 29.1619 56.3252 29.2918 56.1894 29.4217H49.5834L57.2166 21.0151L59.0467 18.9961C59.5618 20.7384 59.6036 22.5865 59.1678 24.3503C58.732 26.1141 57.8344 27.73 56.5673 29.032Z" fill="#F72B13"/>
<path d="M78.5459 29.4237H69.366L67.4179 27.1567L65.5465 24.9901C67.3846 23.6341 68.8573 21.8429 69.8324 19.7773L70.9246 20.958L78.5459 29.4237Z" fill="#F72B13"/>
<path d="M59.3655 5.85634C59.2601 5.85961 59.1553 5.87346 59.0527 5.89766C58.5908 6.04344 58.1471 6.24151 57.7303 6.48801C57.6388 5.41085 57.3778 4.3549 56.9569 3.35917C56.4374 1.98956 55.853 0.808858 55.8353 0.773438C57.6308 1.9416 58.8978 3.76596 59.3655 5.85634Z" fill="url(#paint0_linear_427_116)"/>
<path d="M68.4982 15.6484C67.9307 18.809 66.3863 21.712 64.0824 23.9487C62.676 25.3944 61.0697 26.6309 59.3123 27.6207C61.4789 25.0054 61.0244 20.6014 61.0244 20.6014C60.1447 14.9105 54.4302 16.221 54.4302 16.221C50.7877 16.4808 49.8609 14.5976 49.8609 14.5976C50.0862 14.5005 50.2877 14.3554 50.4512 14.1725C50.5421 14.0545 50.6047 13.9171 50.6342 13.7711C50.6607 13.4975 50.5941 13.2229 50.4453 12.9918C50.3415 12.8128 50.2122 12.6497 50.0616 12.5077C53.0842 12.1476 54.4419 11.0024 54.4419 11.0024C55.2035 10.6954 56.4551 9.14274 56.4551 9.14274C57.37 8.13151 58.5344 7.37829 59.8318 6.95844C60.8368 6.64814 61.8996 6.5725 62.9383 6.73728C63.9771 6.90205 64.9643 7.30287 65.8239 7.90893C66.1473 8.15749 66.4387 8.44497 66.6917 8.76491C67.248 9.47469 67.6811 10.2729 67.9728 11.1263C68.5026 12.571 68.6827 14.1207 68.4982 15.6484Z" fill="url(#paint1_linear_427_116)"/>
<path d="M65.6409 8.71931C65.4048 11.1279 63.0965 12.1256 63.0965 12.1256C63.1497 12.0252 63.191 11.9249 63.2323 11.8304C63.3532 11.5508 63.4155 11.2495 63.4155 10.9449C63.4155 10.6403 63.3532 10.339 63.2323 10.0594C62.6006 8.12303 60.0444 8.28833 60.0444 8.28833C61.5203 5.81476 58.6158 0.100183 58.5803 0.0234375C58.9286 0.176928 59.2592 0.324533 59.5721 0.483927L59.6607 0.525256C66.4143 3.89025 65.6409 8.71931 65.6409 8.71931Z" fill="url(#paint2_linear_427_116)"/>
<path d="M63.7164 10.1953C63.7164 10.1953 63.5924 11.5295 63.2323 11.8306C63.398 11.3775 63.4366 10.8878 63.344 10.4143C63.2514 9.94085 63.0311 9.50173 62.7068 9.1445C62.1037 8.5979 61.3245 8.28579 60.5108 8.26489C60.3516 8.25226 60.1917 8.25226 60.0326 8.26489C61.5085 5.79133 58.6039 0.0767454 58.5685 0C58.9168 0.153491 59.2474 0.301095 59.5603 0.46049L59.7551 0.643496C59.7551 0.643496 64.0824 4.53389 63.7164 10.1953Z" fill="#FDA704"/>
<path d="M62.7069 9.14566C62.1037 8.59905 61.3245 8.28695 60.5108 8.26604L60.5521 8.20111C62.1579 6.70163 60.251 2.81121 60.2097 2.72266C63.0611 6.79607 62.7069 9.14566 62.7069 9.14566Z" fill="#FFE72E"/>
<path opacity="0.11" d="M56.5673 29.032C58.2262 25.2656 57.2167 21.0151 57.2167 21.0151L59.0468 18.9961C59.5618 20.7384 59.6036 22.5865 59.1678 24.3503C58.7321 26.1141 57.8345 27.73 56.5673 29.032Z" fill="black"/>
<path d="M62.2346 14.2042L55.0973 14.0566L53.214 14.2042L50.6224 14.4108L50.4394 14.1747C50.5303 14.0566 50.5929 13.9193 50.6224 13.7733C50.6489 13.4997 50.5823 13.2251 50.4335 12.994C50.9063 12.9763 51.3775 12.929 51.8444 12.8523C52.8354 12.7234 53.8057 12.4674 54.7312 12.0907C55.3904 11.7951 56.0311 11.46 56.6499 11.0872C56.927 10.9375 57.1915 10.7657 57.4409 10.5735C57.7844 10.2911 58.1659 10.0586 58.5744 9.88284C59.3399 9.52402 60.1971 9.40863 61.0303 9.55225C61.8097 9.72613 62.5155 10.1389 63.0492 10.7329C63.0492 10.7329 64.6786 12.563 62.2346 14.2042Z" fill="url(#paint3_linear_427_116)"/>
<path opacity="0.11" d="M70.9246 20.9876C70.4018 23.3495 69.1798 25.4992 67.4179 27.1567L65.5465 24.9901C67.3846 23.6341 68.8573 21.8429 69.8324 19.7773L70.9246 20.9876Z" fill="black"/>
<path d="M59.0526 5.90178C58.5908 6.04755 58.1471 6.24562 57.7302 6.49212C57.6388 5.41496 57.3778 4.35901 56.9569 3.36328C57.9028 3.9705 58.6355 4.85797 59.0526 5.90178Z" fill="#FDA704"/>
<path d="M65.086 19.9184C65.0087 21.3137 64.6682 22.6818 64.0824 23.9505C62.9474 25.1045 61.6905 26.1318 60.3337 27.0144C59.7079 27.4159 59.3124 27.6048 59.3124 27.6048C59.5153 27.3589 59.6971 27.0962 59.8555 26.8196C61.3963 24.1984 61.0362 20.5855 61.0362 20.5855C60.4459 16.6892 57.5649 16.0752 55.8175 16.0752C55.3558 16.0716 54.8949 16.1152 54.442 16.2051C50.7995 16.4649 49.8727 14.5817 49.8727 14.5817C50.0583 14.518 50.2251 14.4091 50.3581 14.2648C50.4911 14.1205 50.586 13.9454 50.6343 13.7552L50.9235 13.8083C52.5179 13.9266 54.1209 13.8253 55.6876 13.5072C57.2757 13.2298 58.905 12.9877 60.499 13.401C61.8055 13.7499 62.9546 14.5326 63.7577 15.6207C64.6777 16.8598 65.1464 18.3763 65.086 19.9184Z" fill="#FDA704"/>
<path d="M59.8555 26.8371C61.3963 24.2159 61.0362 20.603 61.0362 20.603C60.4458 16.7067 57.5649 16.0927 55.8175 16.0927C55.8175 16.0927 52.8185 16.1636 51.6201 15.3666C51.6201 15.3666 53.096 15.9156 56.4787 15.2839C56.4787 15.2839 59.5721 14.6936 61.5025 17.9523C61.4789 17.9228 63.9879 22.1674 59.8555 26.8371Z" fill="#FFE72E"/>
<path d="M65.086 19.9187C65.0087 21.3139 64.6682 22.682 64.0824 23.9507C62.9474 25.1047 61.6905 26.1321 60.3337 27.0147C65.8652 21.4654 63.8049 15.798 63.7459 15.6445C64.6649 16.8757 65.1376 18.3831 65.086 19.9187Z" fill="#FFE72E"/>
<path d="M68.4982 15.6496C67.9308 18.8102 66.3863 21.7132 64.0824 23.9499C65.0919 21.6358 65.2159 19.9828 65.0093 18.6073C64.8515 17.4815 64.3933 16.4191 63.6827 15.5319C62.972 14.6447 62.0354 13.9654 60.9713 13.5657C64.3363 12.7982 65.6941 16.6886 65.6941 16.6886C68.8052 12.326 65.9243 7.99871 65.8653 7.91016C66.1886 8.15872 66.4801 8.4462 66.7331 8.76613C67.2894 9.47592 67.7225 10.2742 68.0141 11.1275C68.5301 12.5756 68.696 14.1252 68.4982 15.6496Z" fill="url(#paint4_linear_427_116)"/>
<path d="M57.3878 11.9505C57.4587 11.9505 57.618 11.8265 57.6594 11.7911C57.99 11.5195 58.1375 11.1063 58.4681 10.8347C58.7665 10.6068 59.122 10.4659 59.4954 10.4273C59.672 10.4096 59.85 10.4096 60.0267 10.4273L60.3337 10.4687C60.3986 10.4687 60.6111 10.5749 60.6642 10.5513C60.418 10.6915 60.214 10.8954 60.0739 11.1417C59.8957 11.4115 59.6648 11.6424 59.395 11.8206C59.1003 11.974 58.7705 12.0473 58.4386 12.0331C58.0862 12.062 57.7314 12.0341 57.3878 11.9505Z" fill="black"/>
<path d="M49.1288 13.444C49.3669 13.444 49.5598 13.251 49.5598 13.013C49.5598 12.775 49.3669 12.582 49.1288 12.582C48.8908 12.582 48.6979 12.775 48.6979 13.013C48.6979 13.251 48.8908 13.444 49.1288 13.444Z" fill="black"/>
<path d="M81.2616 8.51698H89.4792V28.8309H95.123V8.51698H103.341V3.89453H81.2616V8.51698Z" fill="white"/>
<path d="M104.025 16.3631C104.025 23.9196 109.675 29.4216 117.45 29.4216C120.324 29.4689 123.141 28.6232 125.514 27.0012V21.1331H124.859C123.986 22.269 122.864 23.1897 121.58 23.8242C120.295 24.4587 118.883 24.7902 117.45 24.7933C112.975 24.7933 109.746 21.2512 109.746 16.3572C109.746 11.4632 112.975 7.9211 117.45 7.9211C118.884 7.92533 120.298 8.2592 121.583 8.89692C122.868 9.53463 123.988 10.4591 124.859 11.599H125.514V5.73093C123.141 4.10893 120.324 3.2632 117.45 3.31047C109.675 3.31047 104.025 8.81252 104.025 16.3631Z" fill="white"/>
<path d="M141.501 3.3125C133.726 3.3125 128.076 8.81455 128.076 16.3651C128.076 23.9157 133.726 29.4237 141.501 29.4237C149.276 29.4237 154.925 23.9216 154.925 16.3651C154.925 8.80864 149.276 3.3125 141.501 3.3125ZM141.501 24.8012C137.026 24.8012 133.797 21.2591 133.797 16.3651C133.797 11.4711 137.026 7.92904 141.501 7.92904C145.976 7.92904 149.175 11.4711 149.175 16.3651C149.175 21.2591 145.976 24.7953 141.501 24.7953V24.8012Z" fill="white"/>
<path d="M173.651 3.89453V15.5598C170.168 10.0932 165.622 5.8781 163.828 3.89453H158.178V28.8309H163.822V10.4947C168.663 15.7429 173.645 22.3016 173.645 28.8309H179.295V3.89453H173.651Z" fill="white"/>
<path d="M0.0354614 28.8309H5.68511V15.5185C8.63685 17.5375 12.728 18.1633 17.1615 18.1633V13.5409C9.42792 13.5409 5.68511 11.817 5.68511 8.51698H18.6728V3.89453H0.0354614V28.8309Z" fill="white"/>
<path d="M33.8978 3.3125C26.1229 3.3125 20.4733 8.81455 20.4733 16.3651C20.4733 23.9157 26.1229 29.4237 33.8978 29.4237C41.6727 29.4237 47.3165 23.9216 47.3165 16.3651C47.3165 8.80864 41.6727 3.3125 33.8978 3.3125ZM33.8978 24.8012C29.423 24.8012 26.2233 21.2591 26.2233 16.3651C26.2233 11.4711 29.4525 7.93494 33.8978 7.93494C38.3431 7.93494 41.5723 11.477 41.5723 16.3651C41.5723 21.2532 38.3726 24.7953 33.8978 24.7953V24.8012Z" fill="white"/>
<path d="M2.65657 36.1398L2.79234 36.311C2.88711 36.4651 3.01346 36.5974 3.16304 36.6991C3.31261 36.8009 3.48204 36.8698 3.66017 36.9013C3.68633 36.902 3.71227 36.8965 3.73588 36.8852C3.75948 36.8739 3.78006 36.8572 3.79594 36.8364H3.91993V37.781C3.52723 37.8391 3.1261 37.7826 2.76478 37.6181C2.40345 37.4537 2.09733 37.1884 1.88322 36.8541L1.05671 35.7856V37.781H0V33.1172H2.14297C3.1997 33.1172 3.96126 33.7666 3.96126 34.6462C3.96041 35.0106 3.82789 35.3625 3.58814 35.6369C3.3484 35.9114 3.01757 36.09 2.65657 36.1398ZM2.21381 35.3074C2.3033 35.3122 2.39284 35.2987 2.47688 35.2676C2.56092 35.2365 2.63767 35.1884 2.7024 35.1264C2.76714 35.0645 2.81847 34.9899 2.85323 34.9073C2.888 34.8247 2.90545 34.7358 2.90451 34.6462C2.90097 34.5517 2.87807 34.459 2.83724 34.3737C2.7964 34.2884 2.73852 34.2125 2.66713 34.1505C2.59574 34.0885 2.51238 34.0418 2.42222 34.0134C2.33206 33.9849 2.23701 33.9753 2.14297 33.985H1.05671V34.0559C1.05169 34.3752 1.17068 34.684 1.38868 34.9174C1.60667 35.1508 1.9067 35.2906 2.22563 35.3074H2.21381Z" fill="white"/>
<path d="M8.808 33.1172V33.985H6.36986C6.36986 34.5754 7.07239 34.9296 8.52465 34.9296V35.7974C7.77337 35.846 7.02428 35.6736 6.36986 35.3015V36.9309H8.808V37.781H5.30724V33.1172H8.808Z" fill="white"/>
<path d="M14.3454 35.4565C14.3462 35.7805 14.2803 36.1011 14.1517 36.3985C14.0232 36.6959 13.8349 36.9637 13.5985 37.1852C13.362 37.4067 13.0825 37.5772 12.7774 37.686C12.4722 37.7949 12.1479 37.8397 11.8247 37.8179H10.1422V33.1187H11.8247C12.1459 33.0969 12.4683 33.1411 12.7718 33.2485C13.0754 33.3559 13.3538 33.5243 13.5899 33.7433C13.826 33.9622 14.0148 34.2271 14.1447 34.5218C14.2747 34.8164 14.343 35.1345 14.3454 35.4565ZM11.8247 36.9323C12.2161 36.9323 12.5915 36.7768 12.8683 36.5001C13.1451 36.2233 13.3006 35.8479 13.3006 35.4565C13.3006 35.065 13.1451 34.6897 12.8683 34.4129C12.5915 34.1361 12.2161 33.9806 11.8247 33.9806H11.2343V36.9323H11.8247Z" fill="white"/>
<path d="M19.1037 33.1172V33.985H16.6655C16.6655 34.5754 17.368 34.9296 18.8203 34.9296V35.7974C18.069 35.846 17.3199 35.6736 16.6655 35.3015V36.9309H19.1037V37.781H15.6029V33.1172H19.1037Z" fill="white"/>
<path d="M23.9386 33.1172V33.985H21.5005C21.5005 34.5754 22.203 34.9296 23.6553 34.9296V35.7974C22.904 35.846 22.1549 35.6736 21.5005 35.3015V37.781H20.4379V33.1172H23.9386Z" fill="white"/>
<path d="M26.2056 33.1172V37.781H25.1489V33.1172H26.2056Z" fill="white"/>
<path d="M30.5919 35.3074V33.1172H31.6486V37.781H30.5919C30.5919 36.553 29.6532 35.3251 28.7441 34.3392V37.781H27.6874V33.1172H28.7441C29.4294 33.7858 30.0482 34.5193 30.5919 35.3074Z" fill="white"/>
<path d="M34.193 33.1172V37.781H33.1304V33.1172H34.193Z" fill="white"/>
<path d="M38.5734 35.3074V33.1172H39.636V37.781H38.5734C38.5734 36.553 37.6406 35.3251 36.7315 34.3392V37.781H35.6689V33.1172H36.7315C37.4144 33.7863 38.0313 34.5198 38.5734 35.3074Z" fill="white"/>
<path d="M43.432 33.0069C43.9726 32.9975 44.5028 33.1564 44.9492 33.4614V34.5654H44.8252C44.6608 34.3519 44.4499 34.1787 44.2085 34.059C43.967 33.9393 43.7015 33.8762 43.432 33.8747C43.2311 33.8773 43.033 33.9211 42.8497 34.0033C42.6664 34.0855 42.5019 34.2044 42.3664 34.3527C42.2309 34.501 42.1271 34.6754 42.0617 34.8653C41.9962 35.0552 41.9703 35.2565 41.9856 35.4568C41.9716 35.663 42.0008 35.8698 42.0711 36.0641C42.1415 36.2583 42.2515 36.4358 42.3942 36.5852C42.537 36.7346 42.7093 36.8527 42.9001 36.9318C43.091 37.0109 43.2963 37.0494 43.5028 37.0449C43.7288 37.0557 43.9543 37.0174 44.164 36.9327V35.3447H45.2266V37.4581C44.6829 37.7535 44.0744 37.9096 43.4556 37.9127C43.1234 37.929 42.7913 37.8776 42.4795 37.7617C42.1677 37.6458 41.8827 37.4678 41.6418 37.2384C41.4009 37.009 41.2091 36.7331 41.078 36.4273C40.947 36.1216 40.8794 35.7924 40.8794 35.4598C40.8794 35.1271 40.947 34.7979 41.078 34.4922C41.2091 34.1865 41.4009 33.9105 41.6418 33.6812C41.8827 33.4518 42.1677 33.2737 42.4795 33.1578C42.7913 33.0419 43.1234 32.9906 43.4556 33.0069H43.432Z" fill="white"/>
<path d="M50.1207 33.1172V34.3333C50.1207 35.0299 51.3014 34.6167 52.1042 34.8115V33.1172H53.1669V37.781H52.1042V36.0099C52.1042 35.3133 50.9235 35.7266 50.1207 35.5376V37.781H49.058V33.1172H50.1207Z" fill="white"/>
<path d="M54.442 35.4568C54.429 34.9557 54.5659 34.4621 54.8349 34.0391C55.1039 33.6161 55.4929 33.2829 55.9522 33.0821C56.4116 32.8813 56.9203 32.8221 57.4135 32.9119C57.9067 33.0017 58.3619 33.2365 58.721 33.5863C59.08 33.9361 59.3266 34.3851 59.4293 34.8757C59.5319 35.3664 59.486 35.8765 59.2972 36.3409C59.1085 36.8054 58.7856 37.2029 58.3697 37.4829C57.9539 37.7629 57.4641 37.9125 56.9628 37.9127C56.6329 37.929 56.3033 37.8771 55.9944 37.7604C55.6855 37.6436 55.4039 37.4643 55.1674 37.2339C54.9308 37.0034 54.7443 36.7267 54.6195 36.4209C54.4947 36.1152 54.4342 35.787 54.442 35.4568ZM56.9628 37.0449C57.2829 37.0746 57.6045 37.0069 57.8855 36.8505C58.1664 36.6942 58.3935 36.4566 58.5369 36.1688C58.6803 35.8811 58.7334 35.5567 58.6891 35.2382C58.6448 34.9198 58.5053 34.6222 58.2888 34.3845C58.0723 34.1468 57.789 33.9801 57.476 33.9063C57.1631 33.8326 56.8352 33.8552 56.5353 33.9711C56.2355 34.0871 55.9777 34.2911 55.7959 34.5562C55.614 34.8214 55.5166 35.1353 55.5164 35.4568C55.4993 35.6583 55.5241 35.861 55.5892 36.0524C55.6543 36.2438 55.7584 36.4197 55.8948 36.5688C56.0312 36.718 56.1971 36.8373 56.3819 36.9193C56.5667 37.0012 56.7665 37.044 56.9687 37.0449H56.9628Z" fill="white"/>
<path d="M64.2004 33.4624V34.5663H64.0529C63.8709 34.3384 63.6374 34.1568 63.3716 34.0368C63.1057 33.9167 62.8152 33.8615 62.5238 33.8756C61.9335 33.8756 61.6265 34.0645 61.6265 34.3597C61.6265 35.322 64.5074 34.4542 64.5074 36.3846C64.5074 37.3528 63.7222 37.9136 62.3408 37.9136C61.7351 37.9421 61.1353 37.7834 60.6229 37.4591V36.3551H60.7469C60.9413 36.5853 61.1864 36.7675 61.4629 36.8873C61.7394 37.0071 62.0399 37.0614 62.3408 37.0458C63.1083 37.0458 63.5215 36.8274 63.5215 36.4909C63.5215 35.5286 60.6406 36.3964 60.6406 34.466C60.6406 33.5391 61.3313 33.0078 62.5297 33.0078C63.121 32.9764 63.7066 33.1358 64.2004 33.4624Z" fill="white"/>
<path d="M68.1027 36.1752C67.659 36.1766 67.2274 36.0313 66.8748 35.762V37.781H65.8239V33.1172H67.9728C69.0236 33.1172 69.7911 33.7666 69.7911 34.6462C69.7869 34.8595 69.7392 35.0697 69.6508 35.2639C69.5624 35.4581 69.4352 35.6321 69.2771 35.7753C69.1189 35.9185 68.9332 36.0279 68.7312 36.0966C68.5293 36.1654 68.3154 36.1922 68.1027 36.1752ZM68.0318 35.3074C68.1213 35.3122 68.2109 35.2987 68.2949 35.2676C68.379 35.2365 68.4557 35.1884 68.5204 35.1264C68.5852 35.0645 68.6365 34.9899 68.6713 34.9073C68.706 34.8247 68.7235 34.7358 68.7225 34.6462C68.7189 34.5523 68.6962 34.4601 68.6558 34.3752C68.6153 34.2904 68.5579 34.2147 68.4872 34.1528C68.4164 34.0909 68.3338 34.0441 68.2444 34.0153C68.1549 33.9864 68.0605 33.9761 67.9669 33.985H66.8748V34.0559C66.8711 34.3729 66.9889 34.6792 67.2041 34.912C67.4193 35.1448 67.7155 35.2863 68.0318 35.3074Z" fill="white"/>
<path d="M72.0521 33.1172V37.781H70.9954V33.1172H72.0521Z" fill="white"/>
<path d="M75.7772 33.985V37.781H74.7205V33.9673H73.1738V33.1172H77.3062V33.985H75.7772Z" fill="white"/>
<path d="M80.1104 33.1172L82.3832 37.7987H81.2025C81.1447 37.67 81.0522 37.5599 80.9355 37.4807C80.8187 37.4014 80.6823 37.3562 80.5413 37.35C80.0041 37.35 79.4374 37.9404 78.5814 37.9404C77.7254 37.9404 77.1704 37.0726 77.991 35.4373L79.1717 33.1467L80.1104 33.1172ZM79.6617 34.6108L79.1363 35.6439C78.8706 36.1752 78.4869 36.9722 78.9828 36.9722C79.3783 36.9722 79.9687 36.4822 80.5413 36.4173L79.6617 34.6108Z" fill="white"/>
<path d="M83.4695 33.1172H84.5321V36.9309H86.4862V37.781H83.4518L83.4695 33.1172Z" fill="white"/>
<path d="M88.6822 33.1172V37.781H87.6196V33.1172H88.6822Z" fill="white"/>
<path d="M92.3897 33.985V37.781H91.3271V33.9673H89.7863V33.1172H93.9187V33.985H92.3897Z" fill="white"/>
<path d="M94.6743 33.1172H95.855L96.9353 35.3074L98.0157 33.1172H99.1964L96.9176 37.781H95.7369L96.3686 36.4999L94.6743 33.1172Z" fill="white"/>
<path d="M102.426 33.1168H103.606L104.893 36.2633L105.714 34.6812L104.958 33.1168H106.139L106.399 33.654C106.597 33.4423 106.838 33.275 107.105 33.163C107.373 33.0511 107.661 32.9971 107.951 33.0046C109.498 33.0046 109.935 34.3329 109.327 35.5077L108.146 37.7983H107.255L106.322 35.8855L105.289 37.7805H104.391L102.426 33.1168ZM108.187 35.2716C108.601 34.4569 108.465 33.8665 107.863 33.8665C107.449 33.8665 107.19 34.1617 106.889 34.7048L107.668 36.3047L108.187 35.2716Z" fill="white"/>
<path d="M111.824 33.1172V37.781H110.761V33.1172H111.824Z" fill="white"/>
<path d="M115.549 33.985V37.781H114.486V33.9673H112.946V33.1172H117.078V33.985H115.549Z" fill="white"/>
<path d="M119.274 33.1172V34.3333C119.274 35.0299 120.455 34.6167 121.258 34.8115V33.1172H122.314V37.781H121.258V36.0099C121.258 35.3133 120.077 35.7266 119.274 35.5376V37.781H118.212V33.1172H119.274Z" fill="white"/>
<path d="M127.321 33.1172V37.781H126.258V33.1172H127.321Z" fill="white"/>
<path d="M131.701 35.3074V33.1172H132.764V37.781H131.701C131.701 36.553 130.762 35.3251 129.853 34.3392V37.781H128.796V33.1172H129.853C130.54 33.7843 131.159 34.5179 131.701 35.3074Z" fill="white"/>
<path d="M136.489 33.985V37.781H135.426V33.9673H133.885V33.1172H138.018V33.985H136.489Z" fill="white"/>
<path d="M142.652 33.1172V33.985H140.208C140.208 34.5754 140.91 34.9296 142.363 34.9296V35.7974C141.611 35.846 140.862 35.6736 140.208 35.3015V36.9309H142.646V37.781H139.145V33.1172H142.652Z" fill="white"/>
<path d="M143.986 33.1172H145.049V36.9309H147.015V37.781H143.986V33.1172Z" fill="white"/>
<path d="M148.136 33.1172H149.199V36.9309H151.165V37.781H148.136V33.1172Z" fill="white"/>
<path d="M153.349 33.1172V37.781H152.286V33.1172H153.349Z" fill="white"/>
<path d="M157.145 33.0069C157.684 32.9984 158.212 33.1572 158.656 33.4614V34.5654H158.509C158.345 34.3526 158.135 34.1799 157.895 34.0603C157.654 33.9406 157.39 33.8771 157.121 33.8747C156.717 33.9062 156.341 34.0912 156.068 34.3916C155.796 34.692 155.649 35.0851 155.657 35.4904C155.666 35.8957 155.829 36.2825 156.113 36.5715C156.397 36.8606 156.781 37.0299 157.186 37.0449C157.412 37.0557 157.638 37.0174 157.848 36.9327V35.3447H158.91V37.4581C158.367 37.7544 157.758 37.9106 157.139 37.9127C156.807 37.929 156.475 37.8776 156.163 37.7617C155.851 37.6458 155.566 37.4678 155.325 37.2384C155.084 37.009 154.893 36.7331 154.762 36.4273C154.631 36.1216 154.563 35.7924 154.563 35.4598C154.563 35.1271 154.631 34.7979 154.762 34.4922C154.893 34.1865 155.084 33.9105 155.325 33.6812C155.566 33.4518 155.851 33.2737 156.163 33.1578C156.475 33.0419 156.807 32.9906 157.139 33.0069H157.145Z" fill="white"/>
<path d="M163.822 33.1172V33.985H161.384C161.384 34.5754 162.086 34.9296 163.539 34.9296V35.7974C162.787 35.8454 162.038 35.673 161.384 35.3015V36.9309H163.822V37.781H160.28V33.1172H163.822Z" fill="white"/>
<path d="M168.049 35.3074V33.1172H169.135V37.781H168.078C168.078 36.553 167.14 35.3251 166.231 34.3392V37.781H165.168V33.1172H166.183C166.875 33.785 167.499 34.5185 168.049 35.3074Z" fill="white"/>
<path d="M172.907 33.0069C173.446 32.9984 173.974 33.1572 174.419 33.4614V34.5654H174.295C174.131 34.3526 173.921 34.1799 173.681 34.0603C173.44 33.9406 173.176 33.8771 172.907 33.8747C172.516 33.9161 172.154 34.101 171.89 34.3937C171.627 34.6863 171.481 35.0661 171.481 35.4598C171.481 35.8535 171.627 36.2332 171.89 36.5259C172.154 36.8186 172.516 37.0034 172.907 37.0449C173.176 37.0424 173.44 36.979 173.681 36.8593C173.921 36.7396 174.131 36.5669 174.295 36.3542H174.448V37.4581C174.004 37.7624 173.476 37.9212 172.937 37.9127C172.605 37.929 172.273 37.8776 171.961 37.7617C171.649 37.6458 171.364 37.4678 171.123 37.2384C170.882 37.009 170.69 36.7331 170.559 36.4273C170.428 36.1216 170.361 35.7924 170.361 35.4598C170.361 35.1271 170.428 34.7979 170.559 34.4922C170.69 34.1865 170.882 33.9105 171.123 33.6812C171.364 33.4518 171.649 33.2737 171.961 33.1578C172.273 33.0419 172.605 32.9906 172.937 33.0069H172.907Z" fill="white"/>
<path d="M179.271 33.1172V33.985H176.81C176.81 34.5754 177.512 34.9296 178.964 34.9296V35.7974C178.213 35.846 177.464 35.6736 176.81 35.3015V36.9309H179.248V37.781H175.747V33.1172H179.271Z" fill="white"/>
<path d="M63.3858 41.1758L65.6527 45.8572H64.472C64.4131 45.7294 64.3204 45.62 64.2039 45.5409C64.0873 45.4619 63.9515 45.4161 63.8109 45.4086C63.2736 45.4086 62.701 45.9989 61.8509 45.9989C61.0008 45.9989 60.44 45.1311 61.2605 43.4958L62.4412 41.2053L63.3858 41.1758ZM62.9371 42.6694L62.4117 43.7025C62.146 44.2338 61.7564 45.0308 62.2523 45.0308C62.6538 45.0308 63.2441 44.5408 63.8167 44.4758L62.9371 42.6694Z" fill="white"/>
<path d="M69.6494 43.366V41.1758H70.7121V45.8572H69.6494C69.6494 44.6352 68.7167 43.4014 67.8075 42.4155V45.8572H66.7449V41.1758H67.8075C68.4922 41.8433 69.1092 42.577 69.6494 43.366Z" fill="white"/>
<path d="M76.3912 43.5169C76.392 43.8409 76.326 44.1615 76.1975 44.4589C76.069 44.7563 75.8807 45.0241 75.6442 45.2456C75.4078 45.4671 75.1283 45.6376 74.8231 45.7464C74.518 45.8552 74.1937 45.9001 73.8704 45.8783H72.1938V41.1968H73.8704C74.1902 41.1751 74.5111 41.2188 74.8135 41.3251C75.1158 41.4315 75.3934 41.5982 75.6293 41.8153C75.8651 42.0324 76.0543 42.2951 76.1853 42.5877C76.3163 42.8802 76.3864 43.1964 76.3912 43.5169ZM73.8704 44.9928C74.2619 44.9928 74.6372 44.8373 74.914 44.5605C75.1908 44.2837 75.3463 43.9083 75.3463 43.5169C75.3463 43.1255 75.1908 42.7501 74.914 42.4733C74.6372 42.1965 74.2619 42.041 73.8704 42.041H73.2801V44.9928H73.8704Z" fill="white"/>
<path d="M81.173 41.1758V45.8572H80.1104V41.1758H81.173Z" fill="white"/>
<path d="M85.5593 43.366V41.1758H86.6219V45.8572H85.5593C85.5593 44.6352 84.6266 43.4014 83.7174 42.4155V45.8572H82.6548V41.1758H83.7174C84.4021 41.8433 85.019 42.577 85.5593 43.366Z" fill="white"/>
<path d="M90.347 42.0436V45.8572H89.2903V42.0436H87.7436V41.1758H91.8761V42.0436H90.347Z" fill="white"/>
<path d="M96.5221 41.1758V42.0436H94.084C94.084 42.6339 94.7865 42.9882 96.2388 42.9882V43.856C95.4875 43.9046 94.7384 43.7322 94.084 43.3601V44.9894H96.5221V45.8572H93.0214V41.1758H96.5221Z" fill="white"/>
<path d="M100.117 41.0655C100.658 41.0569 101.188 41.2157 101.635 41.52V42.624H101.511C101.346 42.4104 101.135 42.2372 100.894 42.1175C100.652 41.9978 100.387 41.9348 100.117 41.9333C99.9165 41.9359 99.7183 41.9797 99.535 42.0619C99.3517 42.1441 99.1872 42.263 99.0517 42.4113C98.9162 42.5595 98.8124 42.734 98.747 42.9239C98.6815 43.1138 98.6556 43.3151 98.671 43.5154C98.657 43.7216 98.6861 43.9283 98.7564 44.1226C98.8268 44.3169 98.9368 44.4944 99.0796 44.6438C99.2223 44.7932 99.3946 44.9113 99.5855 44.9904C99.7763 45.0695 99.9816 45.108 100.188 45.1035C100.414 45.1132 100.639 45.075 100.849 44.9913V43.4032H101.906V45.5167C101.363 45.8137 100.754 45.97 100.135 45.9713C99.8028 45.9876 99.4707 45.9362 99.1589 45.8203C98.8471 45.7044 98.5621 45.5263 98.3212 45.2969C98.0803 45.0676 97.8885 44.7916 97.7575 44.4859C97.6264 44.1802 97.5588 43.851 97.5588 43.5184C97.5588 43.1857 97.6264 42.8565 97.7575 42.5508C97.8885 42.2451 98.0803 41.9691 98.3212 41.7398C98.5621 41.5104 98.8471 41.3323 99.1589 41.2164C99.4707 41.1005 99.8028 41.0491 100.135 41.0655H100.117Z" fill="white"/>
<path d="M105.968 44.1984L106.103 44.3696C106.198 44.5237 106.325 44.6559 106.474 44.7577C106.624 44.8594 106.793 44.9284 106.971 44.9599C106.997 44.9606 107.023 44.9551 107.047 44.9438C107.071 44.9325 107.091 44.9158 107.107 44.895H107.231V45.8572C106.838 45.9154 106.437 45.8588 106.076 45.6944C105.715 45.53 105.408 45.2647 105.194 44.9304L104.368 43.8619V45.8572H103.311V41.1758H105.454C106.511 41.1758 107.272 41.8252 107.272 42.7048C107.272 43.0692 107.139 43.421 106.899 43.6955C106.659 43.97 106.329 44.1485 105.968 44.1984ZM105.525 43.366C105.614 43.3708 105.704 43.3573 105.788 43.3261C105.872 43.295 105.949 43.247 106.014 43.185C106.078 43.123 106.13 43.0485 106.164 42.9659C106.199 42.8833 106.217 42.7944 106.216 42.7048C106.212 42.6103 106.189 42.5176 106.148 42.4323C106.107 42.347 106.05 42.271 105.978 42.209C105.907 42.1471 105.823 42.1004 105.733 42.0719C105.643 42.0435 105.548 42.0338 105.454 42.0436H104.368V42.1145C104.364 42.4267 104.477 42.7291 104.686 42.9611C104.895 43.1932 105.184 43.3378 105.495 43.366H105.525Z" fill="white"/>
<path d="M109.64 41.1758V45.8572H108.577V41.1758H109.64Z" fill="white"/>
<path d="M113.365 42.0436V45.8572H112.302V42.0436H110.761V41.1758H114.894V42.0436H113.365Z" fill="white"/>
<path d="M115.632 41.1758H116.812L117.893 43.366L118.973 41.1758H120.154L117.84 45.8572H116.659L117.291 44.5762L115.632 41.1758Z" fill="white"/>
<defs>
<linearGradient id="paint0_linear_427_116" x1="59.2829" y1="5.99212" x2="55.3571" y2="2.07221" gradientUnits="userSpaceOnUse">
<stop stop-color="#BB862A"/>
<stop offset="0.06" stop-color="#C48E24"/>
<stop offset="0.17" stop-color="#DBA414"/>
<stop offset="0.24" stop-color="#F0B706"/>
<stop offset="0.68" stop-color="#FEF387"/>
<stop offset="0.84" stop-color="#ECCB64"/>
<stop offset="1" stop-color="#BB862A"/>
</linearGradient>
<linearGradient id="paint1_linear_427_116" x1="59.2238" y1="18.1692" x2="59.2238" y2="7.0293" gradientUnits="userSpaceOnUse">
<stop stop-color="#BB862A"/>
<stop offset="0.06" stop-color="#C48E24"/>
<stop offset="0.17" stop-color="#DBA414"/>
<stop offset="0.24" stop-color="#F0B706"/>
<stop offset="0.68" stop-color="#FEF387"/>
<stop offset="0.84" stop-color="#ECCB64"/>
<stop offset="1" stop-color="#BB862A"/>
</linearGradient>
<linearGradient id="paint2_linear_427_116" x1="58.5862" y1="6.07452" x2="65.6704" y2="6.07452" gradientUnits="userSpaceOnUse">
<stop stop-color="#BB862A"/>
<stop offset="0.06" stop-color="#C48E24"/>
<stop offset="0.17" stop-color="#DBA414"/>
<stop offset="0.24" stop-color="#F0B706"/>
<stop offset="0.68" stop-color="#FEF387"/>
<stop offset="0.84" stop-color="#ECCB64"/>
<stop offset="1" stop-color="#BB862A"/>
</linearGradient>
<linearGradient id="paint3_linear_427_116" x1="50.4571" y1="13.3718" x2="63.067" y2="11.5712" gradientUnits="userSpaceOnUse">
<stop stop-opacity="0.1"/>
<stop offset="1" stop-opacity="0"/>
</linearGradient>
<linearGradient id="paint4_linear_427_116" x1="62.6184" y1="14.829" x2="66.7449" y2="16.7772" gradientUnits="userSpaceOnUse">
<stop stop-opacity="0"/>
<stop offset="1" stop-opacity="0.1"/>
</linearGradient>
</defs>
</svg>
