<svg width="180" height="47" viewBox="0 0 180 47" fill="none" xmlns="http://www.w3.org/2000/svg">
<path d="M81.6043 8.87233H89.8208V29.1932H95.4683V8.87233H103.685V4.25H81.6043V8.87233Z" fill="url(#paint0_linear_427_352)"/>
<path d="M104.372 16.7236C104.372 24.2806 110.023 29.7812 117.799 29.7812C120.674 29.8271 123.493 28.982 125.868 27.3621V21.5018H125.209C124.337 22.6394 123.215 23.5615 121.93 24.1972C120.646 24.8328 119.232 25.1649 117.799 25.1679C113.323 25.1679 110.095 21.6097 110.095 16.7326C110.095 11.8554 113.323 8.29427 117.799 8.29427C119.232 8.29785 120.646 8.63052 121.931 9.26665C123.215 9.90278 124.337 10.8254 125.209 11.9634H125.868V6.08502C123.493 4.46386 120.674 3.61872 117.799 3.66594C110.023 3.66594 104.372 9.16657 104.372 16.7236Z" fill="url(#paint1_linear_427_352)"/>
<path d="M141.855 3.66406C134.079 3.66406 128.428 9.1647 128.428 16.7217C128.428 24.2787 134.079 29.7793 141.855 29.7793C149.63 29.7793 155.281 24.2787 155.281 16.7217C155.281 9.1647 149.63 3.66406 141.855 3.66406ZM141.855 25.157C137.379 25.157 134.151 21.5988 134.151 16.7217C134.151 11.8446 137.379 8.2864 141.855 8.2864C146.33 8.2864 149.558 11.8416 149.558 16.7217C149.558 21.6018 146.33 25.157 141.855 25.157Z" fill="url(#paint2_linear_427_352)"/>
<path d="M174.016 4.25V15.9167C170.53 10.4521 165.982 6.23143 164.184 4.25H158.536V29.1932H164.184V10.8538C169.028 16.0996 174.016 22.6644 174.016 29.1932H179.663V4.25H174.016Z" fill="url(#paint3_linear_427_352)"/>
<path d="M0.363876 29.1971H6.0114V15.8817C8.98204 17.8991 13.0528 18.5226 17.4923 18.5226V13.9003C9.75243 13.9003 6.0114 12.1766 6.0114 8.87324H18.9971V4.25391H0.363876V29.1971Z" fill="url(#paint4_linear_427_352)"/>
<path d="M34.2273 3.66406C26.4515 3.66406 20.804 9.1647 20.804 16.7217C20.804 24.2787 26.4515 29.7793 34.2273 29.7793C42.0032 29.7793 47.6537 24.2787 47.6537 16.7217C47.6537 9.1647 42.0032 3.66406 34.2273 3.66406ZM34.2273 25.16C29.7519 25.16 26.5264 21.6018 26.5264 16.7217C26.5264 11.8416 29.7519 8.2864 34.2273 8.2864C38.7028 8.2864 41.9312 11.8446 41.9312 16.7217C41.9312 21.5988 38.7028 25.16 34.2273 25.16Z" fill="url(#paint5_linear_427_352)"/>
<path d="M2.99217 36.4898L3.13006 36.6637C3.38486 36.9934 3.69961 37.2632 3.99638 37.2632C4.02308 37.2629 4.04935 37.2565 4.07323 37.2445C4.09711 37.2326 4.11798 37.2154 4.13427 37.1943H4.26017V38.1595C3.3429 38.1595 2.88126 38.0845 2.22179 37.2302L1.39444 36.1631V38.1595H0.333282V33.4922H2.48857C3.54074 33.4922 4.30513 34.1397 4.30513 35.021C4.30068 35.3831 4.16525 35.7314 3.92389 36.0014C3.68252 36.2714 3.35155 36.4449 2.99217 36.4898ZM2.55153 35.6565C2.64093 35.6618 2.73048 35.6487 2.81457 35.6179C2.89866 35.587 2.97548 35.5391 3.0402 35.4772C3.10493 35.4153 3.15617 35.3407 3.19072 35.2581C3.22527 35.1754 3.24238 35.0865 3.24098 34.997C3.23776 34.9026 3.2152 34.81 3.17469 34.7247C3.13419 34.6394 3.0766 34.5633 3.0055 34.5012C2.93439 34.4391 2.85129 34.3923 2.76134 34.3636C2.67139 34.3349 2.57651 34.325 2.48258 34.3345H1.39444V34.4035C1.3868 34.7229 1.50295 35.0329 1.7186 35.2687C1.93425 35.5044 2.23269 35.6477 2.55153 35.6685V35.6565Z" fill="#F72B13"/>
<path d="M9.13119 33.4922V34.3585H6.68513C6.68513 34.979 7.38657 35.3028 8.84042 35.3028V36.1691C8.00708 36.1691 7.24269 36.0522 6.68513 35.6745V37.3052H9.1222V38.1745H5.63297V33.4922H9.13119Z" fill="#F72B13"/>
<path d="M14.6704 35.8213C14.6704 37.1763 13.6093 38.1625 12.1494 38.1625H10.4707V33.4922H12.1494C13.6093 33.4922 14.6704 34.4664 14.6704 35.8213ZM12.1494 37.2932C12.5287 37.2761 12.8867 37.1134 13.149 36.8389C13.4114 36.5645 13.5578 36.1995 13.5578 35.8198C13.5578 35.4402 13.4114 35.0752 13.149 34.8007C12.8867 34.5263 12.5287 34.3636 12.1494 34.3465H11.5319V37.2932H12.1494Z" fill="#F72B13"/>
<path d="M19.4278 33.4922V34.3585H16.9907C16.9907 34.979 17.6952 35.3028 19.146 35.3028V36.1691C18.3127 36.1691 17.5483 36.0522 16.9907 35.6745V37.3052H19.4278V38.1745H15.9326V33.4922H19.4278Z" fill="#F72B13"/>
<path d="M24.2656 33.4922V34.3585H21.8286C21.8286 34.979 22.53 35.3028 23.9839 35.3028V36.1691C23.1505 36.1691 22.3861 36.0522 21.8286 35.6745V38.1745H20.7734V33.4922H24.2656Z" fill="#F72B13"/>
<path d="M26.5348 33.4922V38.1745H25.4766V33.4922H26.5348Z" fill="#F72B13"/>
<path d="M30.9218 35.6685V33.4922H31.9829V38.1745H30.9218C30.9218 36.9484 29.9865 35.7164 29.0782 34.7302V38.1745H28.0171V33.4922H29.0782C29.7612 34.1567 30.3786 34.8855 30.9218 35.6685Z" fill="#F72B13"/>
<path d="M34.5248 33.4922V38.1745H33.4636V33.4922H34.5248Z" fill="#F72B13"/>
<path d="M38.9072 35.6685V33.4922H39.9594V38.1745H38.8983C38.8983 36.9484 37.963 35.7164 37.0547 34.7302V38.1745H36.0025V33.4922H37.0637C37.7467 34.1567 38.364 34.8855 38.9072 35.6685Z" fill="#F72B13"/>
<path d="M43.7694 33.3675C44.3091 33.3586 44.8382 33.5178 45.2832 33.8232V34.9233H45.1603C44.9965 34.7101 44.7859 34.5373 44.5447 34.4183C44.3036 34.2992 44.0383 34.2372 43.7694 34.2369C42.9301 34.2369 42.3215 34.9023 42.3215 35.8196C42.31 36.0249 42.3408 36.2304 42.4121 36.4232C42.4834 36.6161 42.5936 36.7923 42.7359 36.9407C42.8781 37.0892 43.0494 37.2068 43.2391 37.2862C43.4288 37.3656 43.6327 37.4051 43.8383 37.4023C44.0636 37.4135 44.2886 37.3757 44.4978 37.2914V35.7027H45.559V37.816C45.008 38.1186 44.3889 38.2754 43.7604 38.2717C43.1101 38.2717 42.4864 38.0133 42.0265 37.5535C41.5667 37.0936 41.3083 36.4699 41.3083 35.8196C41.3083 35.1693 41.5667 34.5456 42.0265 34.0857C42.4864 33.6259 43.1101 33.3675 43.7604 33.3675H43.7694Z" fill="#F72B13"/>
<path d="M50.4498 33.4922V34.6912C50.4498 35.3867 51.6069 34.973 52.4312 35.1649V33.4922H53.4924V38.1745H52.4312V36.4059C52.4312 35.7104 51.2771 36.1211 50.4498 35.9293V38.1745H49.3886V33.4922H50.4498Z" fill="#F72B13"/>
<path d="M54.7765 35.8204C54.7627 35.3191 54.8989 34.8251 55.1674 34.4015C55.4359 33.978 55.8247 33.6442 56.284 33.4427C56.7433 33.2413 57.2522 33.1815 57.7457 33.2708C58.2391 33.3601 58.6948 33.5946 59.0543 33.9443C59.4138 34.294 59.6608 34.7429 59.7638 35.2337C59.8668 35.7246 59.821 36.2349 59.6324 36.6996C59.4438 37.1643 59.1209 37.5622 58.705 37.8423C58.289 38.1225 57.799 38.2723 57.2975 38.2725C56.9678 38.2895 56.6381 38.2382 56.3291 38.1219C56.0201 38.0056 55.7385 37.8268 55.5018 37.5966C55.2652 37.3664 55.0786 37.0899 54.9538 36.7842C54.829 36.4786 54.7686 36.1505 54.7765 35.8204ZM57.2975 37.4032C58.1368 37.4032 58.7423 36.7347 58.7423 35.8204C58.7423 34.9061 58.1428 34.2377 57.2975 34.2377C56.4521 34.2377 55.8496 34.9031 55.8496 35.8204C55.8496 36.7377 56.4461 37.4032 57.2975 37.4032Z" fill="#F72B13"/>
<path d="M64.5389 33.8262V34.9263H64.413C64.2318 34.6986 63.9988 34.5174 63.7334 34.398C63.4679 34.2786 63.1778 34.2244 62.8872 34.2399C62.3147 34.2399 61.9879 34.4257 61.9879 34.7195C61.9879 35.6847 64.8656 34.8184 64.8656 36.7459C64.8656 37.7141 64.0803 38.2747 62.7044 38.2747C62.0979 38.3005 61.4979 38.1416 60.9837 37.819V36.7159H61.1066C61.3014 36.9466 61.5471 37.1289 61.8244 37.2486C62.1016 37.3682 62.4028 37.4219 62.7044 37.4053C63.4687 37.4053 63.8734 37.1925 63.8734 36.8538C63.8734 35.8915 60.9957 36.7579 60.9957 34.8304C60.9957 33.9011 61.6852 33.3705 62.8842 33.3705C63.4703 33.3415 64.0503 33.5012 64.5389 33.8262Z" fill="#F72B13"/>
<path d="M68.436 36.5378C67.9927 36.5398 67.5614 36.3943 67.21 36.1241V38.1625H66.1488V33.4922H68.2981C69.3503 33.4922 70.1147 34.1397 70.1147 35.021C70.1147 35.9023 69.4102 36.5378 68.436 36.5378ZM68.367 35.6685C68.4563 35.6739 68.5457 35.6607 68.6297 35.6298C68.7136 35.599 68.7902 35.551 68.8547 35.4891C68.9192 35.4271 68.9702 35.3525 69.0044 35.2698C69.0386 35.1872 69.0553 35.0984 69.0535 35.009C69.0507 34.9148 69.0285 34.8221 68.9883 34.7369C68.9481 34.6516 68.8908 34.5755 68.82 34.5134C68.7491 34.4512 68.6662 34.4043 68.5764 34.3756C68.4866 34.3469 68.3919 34.337 68.2981 34.3465H67.21V34.4155C67.2055 34.7338 67.3239 35.0416 67.5405 35.275C67.7571 35.5083 68.0553 35.6492 68.373 35.6685H68.367Z" fill="#F72B13"/>
<path d="M72.3935 33.4922V38.1745H71.3353V33.4922H72.3935Z" fill="#F72B13"/>
<path d="M76.1186 34.3465V38.1625H75.0575V34.3465H73.5317V33.4922H77.6774V34.3585L76.1186 34.3465Z" fill="#F72B13"/>
<path d="M80.4507 33.4922L82.7229 38.1745H81.5508C81.4922 38.0466 81.3998 37.9372 81.2836 37.858C81.1674 37.7788 81.0318 37.7327 80.8913 37.7248C80.3548 37.7248 79.7822 38.2854 78.9279 38.2854C78.0736 38.2854 77.516 37.4161 78.3644 35.7854L79.5634 33.4922H80.4507ZM80.0041 34.991L79.4795 36.0252C79.2097 36.5558 78.826 37.3531 79.3206 37.3531C79.7193 37.3531 80.3128 36.8645 80.8854 36.7956L80.0041 34.991Z" fill="#F72B13"/>
<path d="M83.8144 33.4922H84.8756V37.3052H86.845V38.1745H83.8144V33.4922Z" fill="#F72B13"/>
<path d="M89.0266 33.4922V38.1745H87.9655V33.4922H89.0266Z" fill="#F72B13"/>
<path d="M92.75 34.3465V38.1625H91.6918V34.3465H90.1481V33.4922H94.2938V34.3585L92.75 34.3465Z" fill="#F72B13"/>
<path d="M95.0195 33.4922H96.2185L97.3007 35.6804L98.3828 33.4922H99.5819L97.2707 38.1745H96.0717L96.7041 36.8945L95.0195 33.4922Z" fill="#F72B13"/>
<path d="M102.743 33.4907H103.912L105.201 36.6382L106.02 35.0524L105.261 33.4907H106.433L106.694 34.0272C106.892 33.8154 107.132 33.6481 107.399 33.5365C107.667 33.4248 107.955 33.3714 108.244 33.3798C109.791 33.3798 110.225 34.7107 109.62 35.8798L108.421 38.173H107.522L106.592 36.2575L105.621 38.173H104.722L102.743 33.4907ZM108.505 35.646C108.919 34.8336 108.781 34.2401 108.181 34.2401C107.767 34.2401 107.507 34.5398 107.204 35.0824L107.98 36.6771L108.505 35.646Z" fill="#F72B13"/>
<path d="M112.171 33.4922V38.1745H111.113V33.4922H112.171Z" fill="#F72B13"/>
<path d="M115.897 34.3465V38.1625H114.836V34.3465H113.295V33.4922H117.441V34.3585L115.897 34.3465Z" fill="#F72B13"/>
<path d="M119.621 33.4922V34.6912C119.621 35.3867 120.778 34.973 121.606 35.1649V33.4922H122.667V38.1745H121.606V36.4059C121.606 35.7104 120.448 36.1211 119.621 35.9293V38.1745H118.563V33.4922H119.621Z" fill="#F72B13"/>
<path d="M127.669 33.4922V38.1745H126.608V33.4922H127.669Z" fill="#F72B13"/>
<path d="M132.055 35.6685V33.4922H133.113V38.1745H132.055C132.055 36.9484 131.116 35.7164 130.208 34.7302V38.1745H129.147V33.4922H130.208C130.892 34.1565 131.511 34.8853 132.055 35.6685Z" fill="#F72B13"/>
<path d="M136.842 34.3465V38.1625H135.781V34.3465H134.24V33.4922H138.383V34.3585L136.842 34.3465Z" fill="#F72B13"/>
<path d="M143.001 33.4922V34.3585H140.564C140.564 34.979 141.269 35.3028 142.72 35.3028V36.1691C141.886 36.1691 141.122 36.0522 140.564 35.6745V37.3052H143.001V38.1745H139.506V33.4922H143.001Z" fill="#F72B13"/>
<path d="M144.342 33.4922H145.404V37.3052H147.373V38.1745H144.342V33.4922Z" fill="#F72B13"/>
<path d="M148.494 33.4922H149.555V37.3052H151.521V38.1745H148.494V33.4922Z" fill="#F72B13"/>
<path d="M153.704 33.4922V38.1745H152.646V33.4922H153.704Z" fill="#F72B13"/>
<path d="M157.502 33.3673C158.037 33.3615 158.56 33.5206 159.001 33.823V34.9231H158.878C158.714 34.7097 158.504 34.5368 158.263 34.4177C158.021 34.2987 157.756 34.2367 157.487 34.2367C156.648 34.2367 156.042 34.9021 156.042 35.8194C156.031 36.0244 156.061 36.2297 156.133 36.4223C156.204 36.615 156.314 36.791 156.456 36.9394C156.597 37.0878 156.768 37.2055 156.958 37.2851C157.147 37.3647 157.351 37.4045 157.556 37.4021C157.781 37.4136 158.006 37.3758 158.216 37.2912V35.7025H159.277V37.8158C158.726 38.1184 158.107 38.2752 157.478 38.2715C156.828 38.2715 156.204 38.0131 155.744 37.5533C155.284 37.0934 155.026 36.4697 155.026 35.8194C155.026 35.1691 155.284 34.5454 155.744 34.0855C156.204 33.6257 156.828 33.3673 157.478 33.3673H157.502Z" fill="#F72B13"/>
<path d="M164.162 33.4922V34.3585H161.725C161.725 34.979 162.426 35.3028 163.88 35.3028V36.1691C163.047 36.1691 162.282 36.0522 161.725 35.6745V37.3052H164.162V38.1745H160.664V33.4922H164.162Z" fill="#F72B13"/>
<path d="M168.408 35.6685V33.4922H169.457V38.1745H168.408C168.408 36.9484 167.469 35.7164 166.561 34.7302V38.1745H165.503V33.4922H166.561C167.246 34.1557 167.865 34.8846 168.408 35.6685Z" fill="#F72B13"/>
<path d="M173.265 33.3674C173.8 33.3611 174.324 33.5202 174.764 33.823V34.9231H174.641C174.478 34.7097 174.267 34.5368 174.026 34.4178C173.785 34.2987 173.519 34.2368 173.25 34.2367C172.411 34.2367 171.806 34.9021 171.806 35.8194C171.806 36.7367 172.405 37.4022 173.25 37.4022C173.52 37.4022 173.785 37.34 174.027 37.2204C174.268 37.1008 174.478 36.927 174.641 36.7127H174.764V37.8158C174.323 38.1174 173.8 38.2764 173.265 38.2715C172.615 38.2715 171.991 38.0131 171.532 37.5533C171.072 37.0934 170.813 36.4697 170.813 35.8194C170.813 35.1691 171.072 34.5454 171.532 34.0856C171.991 33.6257 172.615 33.3674 173.265 33.3674Z" fill="#F72B13"/>
<path d="M179.63 33.4922V34.3585H177.193C177.193 34.979 177.897 35.3028 179.348 35.3028V36.1691C178.515 36.1691 177.75 36.0522 177.193 35.6745V37.3052H179.63V38.1745H176.135V33.4922H179.63Z" fill="#F72B13"/>
<path d="M63.7216 41.5391L65.9938 46.2213H64.8397C64.78 46.0937 64.687 45.9845 64.5704 45.9054C64.4538 45.8262 64.3179 45.78 64.1773 45.7717C63.6407 45.7717 63.0681 46.3293 62.2168 46.3293C61.3655 46.3293 60.8049 45.4629 61.6503 43.8322L62.8493 41.5391H63.7216ZM63.275 43.0379L62.7414 44.0661C62.4746 44.5966 62.0879 45.394 62.5825 45.394C62.9842 45.394 63.5747 44.9054 64.1473 44.8364L63.275 43.0379Z" fill="#F72B13"/>
<path d="M69.9926 43.7273V41.5391H71.0507V46.2213H69.9926C69.9926 44.9953 69.0543 43.7633 68.146 42.7771V46.2213H67.0849V41.5391H68.137C68.8249 42.2067 69.4463 42.9396 69.9926 43.7273Z" fill="#F72B13"/>
<path d="M76.7341 43.8802C76.7341 45.2351 75.6729 46.2213 74.2131 46.2213H72.5344V41.5391H74.2131C75.6729 41.5391 76.7341 42.5223 76.7341 43.8802ZM74.2131 45.352C74.5924 45.3349 74.9504 45.1722 75.2127 44.8978C75.4751 44.6234 75.6215 44.2583 75.6215 43.8787C75.6215 43.4991 75.4751 43.134 75.2127 42.8596C74.9504 42.5852 74.5924 42.4225 74.2131 42.4054H73.5926V45.352H74.2131Z" fill="#F72B13"/>
<path d="M81.5214 41.5391V46.2213H80.4603V41.5391H81.5214Z" fill="#F72B13"/>
<path d="M85.9039 43.7273V41.5391H86.9651V46.2213H85.9039C85.9039 44.9953 84.9686 43.7633 84.0604 42.7771V46.2213H82.9992V41.5391H84.0604C84.7439 42.2074 85.3613 42.9402 85.9039 43.7273Z" fill="#F72B13"/>
<path d="M90.6913 42.4054V46.2213H89.6331V42.4054H88.0894V41.5391H92.2351V42.4054H90.6913Z" fill="#F72B13"/>
<path d="M96.8536 41.5391V42.4054H94.4166C94.4166 43.0259 95.118 43.3496 96.5719 43.3496V44.2159C95.7385 44.2159 94.9741 44.099 94.4166 43.7213V45.352H96.8536V46.2213H93.3554V41.5391H96.8536Z" fill="#F72B13"/>
<path d="M100.463 41.4312C100.997 41.4249 101.521 41.584 101.962 41.8868V42.987H101.839C101.675 42.7735 101.464 42.6006 101.223 42.4816C100.982 42.3625 100.717 42.3006 100.448 42.3005C99.6085 42.3005 99.003 42.966 99.003 43.8832C98.9914 44.0883 99.0222 44.2935 99.0933 44.4862C99.1644 44.6788 99.2743 44.8548 99.4163 45.0032C99.5582 45.1517 99.7291 45.2693 99.9185 45.3489C100.108 45.4285 100.311 45.4684 100.517 45.466C100.743 45.4774 100.969 45.4396 101.179 45.3551V43.7663H102.237V45.8797C101.686 46.1801 101.067 46.3358 100.439 46.3323C100.11 46.3438 99.7818 46.2889 99.4745 46.171C99.1671 46.053 98.8867 45.8743 98.6498 45.6457C98.413 45.417 98.2246 45.1429 98.096 44.8399C97.9673 44.5368 97.901 44.211 97.901 43.8817C97.901 43.5525 97.9673 43.2267 98.096 42.9236C98.2246 42.6206 98.413 42.3465 98.6498 42.1178C98.8867 41.8891 99.1671 41.7105 99.4745 41.5925C99.7818 41.4745 100.11 41.4197 100.439 41.4312H100.463Z" fill="#F72B13"/>
<path d="M106.285 44.5607L106.423 44.7345C106.678 45.0643 106.992 45.3341 107.289 45.3341C107.316 45.3337 107.342 45.3273 107.366 45.3154C107.39 45.3035 107.411 45.2863 107.427 45.2651H107.55V46.2303C106.636 46.2303 106.174 46.1524 105.514 45.3011L104.687 44.2339V46.2303H103.626V41.5391H105.775C106.827 41.5391 107.592 42.1866 107.592 43.0679C107.593 43.4332 107.461 43.7866 107.221 44.0615C106.98 44.3364 106.647 44.5139 106.285 44.5607ZM105.844 43.7273C105.934 43.7327 106.023 43.7196 106.107 43.6887C106.191 43.6579 106.268 43.61 106.333 43.5481C106.398 43.4862 106.449 43.4116 106.483 43.3289C106.518 43.2463 106.535 43.1574 106.534 43.0679C106.53 42.9735 106.508 42.8808 106.467 42.7955C106.427 42.7102 106.369 42.6342 106.298 42.5721C106.227 42.51 106.144 42.4631 106.054 42.4345C105.964 42.4058 105.869 42.3959 105.775 42.4054H104.687V42.4833C104.685 42.7991 104.803 43.1039 105.019 43.3351C105.234 43.5664 105.529 43.7067 105.844 43.7273Z" fill="#F72B13"/>
<path d="M109.987 41.5391V46.2213H108.926V41.5391H109.987Z" fill="#F72B13"/>
<path d="M113.7 42.4054V46.2213H112.651V42.4054H111.11V41.5391H115.252V42.4054H113.7Z" fill="#F72B13"/>
<path d="M115.978 41.5391H117.177L118.256 43.7273L119.338 41.5391H120.538L118.223 46.2213H117.024L117.66 44.9414L115.978 41.5391Z" fill="#F72B13"/>
<path d="M72.494 3.88281L68.774 8.13644C70.0143 9.62061 70.8305 11.4124 71.1361 13.3223L79.5744 3.88281H72.494Z" fill="#F72B13"/>
<path d="M49.1827 3.88281H55.9034C55.9034 3.88281 56.6918 6.24193 56.8327 7.56688C56.8327 7.56688 55.2949 8.99675 54.7613 9.96498L49.1827 3.88281Z" fill="#F72B13"/>
<path d="M56.9608 29.3831C56.8369 29.513 56.711 29.6419 56.5831 29.7698H49.9674L57.6083 21.3524L59.4428 19.332C59.4428 19.332 61.3733 24.6468 56.9608 29.3831Z" fill="#F72B13"/>
<path d="M78.9665 29.7725H69.7758L67.8363 27.4973L65.9628 25.3271C67.7963 23.9712 69.2642 22.1809 70.2344 20.1172L71.3285 21.3162L78.9665 29.7725Z" fill="#F72B13"/>
<path d="M59.7602 6.17762C59.6532 6.17593 59.5464 6.18802 59.4424 6.21359C58.981 6.34976 58.5365 6.53782 58.1175 6.77415C58.1175 5.92882 57.7548 4.72678 57.3441 3.64164C56.8285 2.26873 56.238 1.08766 56.223 1.05469C59.3405 3.21597 59.7602 6.17762 59.7602 6.17762Z" fill="url(#paint6_linear_427_352)"/>
<path d="M68.9061 15.9846C68.3575 19.5188 66.43 22.3036 64.4816 24.297C63.0731 25.7442 61.4651 26.9827 59.7064 27.9751C61.8736 25.3521 61.421 20.9426 61.421 20.9426C60.5397 15.2472 54.8262 16.5571 54.8262 16.5571C51.1811 16.8179 50.2518 14.9354 50.2518 14.9354C50.474 14.8357 50.6715 14.6883 50.8304 14.5037C50.9245 14.3876 50.9875 14.2493 51.0132 14.1021C51.0418 13.8296 50.9762 13.5556 50.8274 13.3257C50.7219 13.1456 50.5917 12.9811 50.4407 12.8371C53.4683 12.4803 54.8262 11.3383 54.8262 11.3383C55.5906 11.0385 56.8406 9.47673 56.8406 9.47673C57.7576 8.46427 58.9232 7.70892 60.2219 7.28547C62.1854 6.68595 64.5955 6.97072 66.2502 8.23871C66.5757 8.48782 66.8697 8.77572 67.1255 9.09603C67.6824 9.80663 68.1151 10.6063 68.4054 11.4612C68.9263 12.9085 69.0978 14.4584 68.9061 15.9846Z" fill="url(#paint7_linear_427_352)"/>
<path d="M66.0382 9.04612C65.7983 11.4442 63.4872 12.4544 63.4872 12.4544C63.539 12.3577 63.5841 12.2576 63.6221 12.1547C63.7484 11.8717 63.8137 11.5653 63.8137 11.2554C63.8137 10.9455 63.7484 10.6391 63.6221 10.3561C62.9896 8.41362 60.4266 8.60547 60.4266 8.60547C61.9074 6.12944 58.9967 0.403974 58.9608 0.332031C59.3085 0.481912 59.6412 0.63179 59.956 0.787667L60.0429 0.829638C66.8235 4.20496 66.0382 9.04612 66.0382 9.04612Z" fill="url(#paint8_linear_427_352)"/>
<path d="M64.117 10.5249C64.117 10.5249 63.9941 11.8588 63.6314 12.1556C63.7991 11.7034 63.8388 11.2137 63.7463 10.7404C63.6537 10.2671 63.4325 9.82843 63.1068 9.47268C62.4594 8.81021 61.4971 8.64534 60.9246 8.60937C60.7649 8.59917 60.6047 8.59917 60.445 8.60937C61.9258 6.13333 59.0151 0.40788 58.9791 0.335938C59.3269 0.485819 59.6596 0.635696 59.9743 0.791573L60.1722 0.980425C60.1722 0.980425 64.4828 4.85035 64.117 10.5249Z" fill="#FDA704"/>
<path d="M63.1069 9.47142C62.4594 8.80894 61.4972 8.64407 60.9246 8.6081L60.9696 8.54515C62.5733 7.04634 60.6698 3.14943 60.6249 3.0625C63.4606 7.11229 63.1069 9.47142 63.1069 9.47142Z" fill="#FFE72E"/>
<path opacity="0.11" d="M56.9617 29.3831C58.6224 25.6091 57.6092 21.3524 57.6092 21.3524L59.4438 19.332C59.4438 19.332 61.3742 24.6468 56.9617 29.3831Z" fill="black"/>
<path d="M62.6299 14.5322L55.4866 14.3854L53.6041 14.5322L51.0051 14.7421L50.8223 14.5023C50.9164 14.3861 50.9794 14.2478 51.0051 14.1006C51.0337 13.8281 50.9681 13.5542 50.8193 13.3242C51.2922 13.3043 51.7636 13.2572 52.2312 13.1833C53.2224 13.0493 54.1931 12.7926 55.1209 12.4189C55.7823 12.1226 56.4249 11.7863 57.0453 11.4117C57.3208 11.2627 57.5835 11.0913 57.8307 10.8991C58.1769 10.6171 58.5602 10.3841 58.9698 10.2067C59.7361 9.84776 60.5941 9.73267 61.4279 9.87693C62.2108 10.054 62.9178 10.4736 63.4483 11.076C63.4483 11.076 65.079 12.8895 62.6299 14.5322Z" fill="url(#paint9_linear_427_352)"/>
<path opacity="0.11" d="M71.3345 21.3252C70.8137 23.6868 69.5949 25.8373 67.8363 27.4973L65.9628 25.3271C67.7963 23.9712 69.2642 22.1809 70.2344 20.1172L71.3345 21.3252Z" fill="black"/>
<path d="M59.4424 6.21258C58.981 6.34875 58.5365 6.5368 58.1175 6.77314C58.1175 5.92781 57.7548 4.72576 57.3441 3.64062C58.2964 4.25616 59.0306 5.15607 59.4424 6.21258Z" fill="#FDA704"/>
<path d="M65.4886 20.2584C65.4073 21.6553 65.0657 23.0247 64.4814 24.2962C63.3466 25.4508 62.0892 26.4781 60.7314 27.3597C60.1049 27.7674 59.7092 27.9593 59.7092 27.9593C59.9085 27.7192 60.0899 27.4647 60.2517 27.1979C61.7925 24.566 61.4208 20.9508 61.4208 20.9508C60.8213 17.0539 57.9436 16.4334 56.193 16.4334C55.731 16.43 55.2699 16.4742 54.8171 16.5653C51.1719 16.8261 50.2427 14.9436 50.2427 14.9436C50.7463 14.6978 50.9561 14.401 51.0041 14.1102C51.112 14.1282 51.2349 14.1612 51.3038 14.1672C52.8998 14.285 54.5044 14.1841 56.0731 13.8674C57.6648 13.5917 59.2985 13.3459 60.8902 13.7595C62.2003 14.1084 63.352 14.8941 64.1546 15.9868C65.0701 17.2185 65.5404 18.7245 65.4886 20.2584Z" fill="#FDA704"/>
<path d="M60.2524 27.1979C61.7932 24.566 61.4215 20.9509 61.4215 20.9509C60.822 17.054 57.9443 16.4335 56.1937 16.4335V16.4095C56.1937 16.4095 53.196 16.4754 51.997 15.6811C51.997 15.6811 53.4748 16.2296 56.8591 15.5971C56.8591 15.5971 59.9587 15.0276 61.8891 18.268C61.8742 18.259 64.3862 22.5096 60.2524 27.1979Z" fill="#FFE72E"/>
<path d="M65.4892 20.2583C65.4079 21.6553 65.0663 23.0247 64.4819 24.2961C63.3472 25.4508 62.0897 26.4781 60.7319 27.3597C66.2655 21.8051 64.2032 16.1306 64.1462 15.9688C65.0688 17.2042 65.5425 18.7173 65.4892 20.2583Z" fill="#FFE72E"/>
<path d="M68.9072 15.9832C68.3586 19.5174 66.4312 22.3022 64.4827 24.2956C65.4959 21.9755 65.6188 20.3208 65.412 18.9449C65.254 17.8177 64.795 16.7539 64.0834 15.8655C63.3717 14.9772 62.4338 14.2971 61.3682 13.8969C64.7405 13.1265 66.0745 17.0264 66.0745 17.0264C69.186 12.6529 66.3023 8.3333 66.2423 8.23438C66.5679 8.48348 66.8618 8.77139 67.1176 9.0917C67.6745 9.8023 68.1073 10.6019 68.3976 11.4568C68.922 12.9043 69.0966 14.4554 68.9072 15.9832Z" fill="url(#paint10_linear_427_352)"/>
<path d="M57.78 12.2776C57.8519 12.2956 58.0108 12.1547 58.0528 12.1187C58.3825 11.8459 58.5294 11.4292 58.8621 11.1624C59.159 10.9309 59.5156 10.7885 59.8903 10.7518C60.0677 10.7338 60.2465 10.7338 60.4239 10.7518C60.5258 10.7518 60.6277 10.7758 60.7237 10.7937C60.8196 10.8117 61.0024 10.8987 61.0564 10.8747C60.7986 11.0058 60.5834 11.2075 60.4359 11.4562C60.2571 11.7256 60.0256 11.956 59.7554 12.1337C59.4606 12.2864 59.131 12.3598 58.7992 12.3465C58.4579 12.374 58.1145 12.3508 57.78 12.2776Z" fill="black"/>
<path d="M49.512 13.7714C49.7487 13.7714 49.9406 13.5795 49.9406 13.3427C49.9406 13.106 49.7487 12.9141 49.512 12.9141C49.2752 12.9141 49.0833 13.106 49.0833 13.3427C49.0833 13.5795 49.2752 13.7714 49.512 13.7714Z" fill="black"/>
<defs>
<linearGradient id="paint0_linear_427_352" x1="92.6446" y1="30.4942" x2="92.6446" y2="3.06294" gradientUnits="userSpaceOnUse">
<stop stop-color="#0D51E2"/>
<stop offset="0.16" stop-color="#0F56E2"/>
<stop offset="0.36" stop-color="#1365E3"/>
<stop offset="0.57" stop-color="#1B7DE3"/>
<stop offset="0.8" stop-color="#259FE4"/>
<stop offset="1" stop-color="#31C4E5"/>
</linearGradient>
<linearGradient id="paint1_linear_427_352" x1="115.122" y1="30.4947" x2="115.122" y2="3.06342" gradientUnits="userSpaceOnUse">
<stop stop-color="#0D51E2"/>
<stop offset="0.16" stop-color="#0F56E2"/>
<stop offset="0.36" stop-color="#1365E3"/>
<stop offset="0.57" stop-color="#1B7DE3"/>
<stop offset="0.8" stop-color="#259FE4"/>
<stop offset="1" stop-color="#31C4E5"/>
</linearGradient>
<linearGradient id="paint2_linear_427_352" x1="141.855" y1="30.4928" x2="141.855" y2="3.06154" gradientUnits="userSpaceOnUse">
<stop stop-color="#0D51E2"/>
<stop offset="0.16" stop-color="#0F56E2"/>
<stop offset="0.36" stop-color="#1365E3"/>
<stop offset="0.57" stop-color="#1B7DE3"/>
<stop offset="0.8" stop-color="#259FE4"/>
<stop offset="1" stop-color="#31C4E5"/>
</linearGradient>
<linearGradient id="paint3_linear_427_352" x1="169.1" y1="30.4942" x2="169.1" y2="3.06294" gradientUnits="userSpaceOnUse">
<stop stop-color="#0D51E2"/>
<stop offset="0.16" stop-color="#0F56E2"/>
<stop offset="0.36" stop-color="#1365E3"/>
<stop offset="0.57" stop-color="#1B7DE3"/>
<stop offset="0.8" stop-color="#259FE4"/>
<stop offset="1" stop-color="#31C4E5"/>
</linearGradient>
<linearGradient id="paint4_linear_427_352" x1="9.68049" y1="29.4789" x2="9.68049" y2="1.66696" gradientUnits="userSpaceOnUse">
<stop stop-color="#0D51E2"/>
<stop offset="0.16" stop-color="#0F56E2"/>
<stop offset="0.36" stop-color="#1365E3"/>
<stop offset="0.57" stop-color="#1B7DE3"/>
<stop offset="0.8" stop-color="#259FE4"/>
<stop offset="1" stop-color="#31C4E5"/>
</linearGradient>
<linearGradient id="paint5_linear_427_352" x1="34.2273" y1="29.4766" x2="34.2273" y2="1.66465" gradientUnits="userSpaceOnUse">
<stop stop-color="#0D51E2"/>
<stop offset="0.16" stop-color="#0F56E2"/>
<stop offset="0.36" stop-color="#1365E3"/>
<stop offset="0.57" stop-color="#1B7DE3"/>
<stop offset="0.8" stop-color="#259FE4"/>
<stop offset="1" stop-color="#31C4E5"/>
</linearGradient>
<linearGradient id="paint6_linear_427_352" x1="59.6762" y1="6.31251" x2="55.7494" y2="2.38863" gradientUnits="userSpaceOnUse">
<stop stop-color="#BB862A"/>
<stop offset="0.06" stop-color="#C48E24"/>
<stop offset="0.17" stop-color="#DBA414"/>
<stop offset="0.24" stop-color="#F0B706"/>
<stop offset="0.68" stop-color="#FEF387"/>
<stop offset="0.84" stop-color="#ECCB64"/>
<stop offset="1" stop-color="#BB862A"/>
</linearGradient>
<linearGradient id="paint7_linear_427_352" x1="59.6164" y1="18.5086" x2="59.6164" y2="7.35442" gradientUnits="userSpaceOnUse">
<stop stop-color="#BB862A"/>
<stop offset="0.06" stop-color="#C48E24"/>
<stop offset="0.17" stop-color="#DBA414"/>
<stop offset="0.24" stop-color="#F0B706"/>
<stop offset="0.68" stop-color="#FEF387"/>
<stop offset="0.84" stop-color="#ECCB64"/>
<stop offset="1" stop-color="#BB862A"/>
</linearGradient>
<linearGradient id="paint8_linear_427_352" x1="58.9788" y1="6.39322" x2="66.0741" y2="6.39322" gradientUnits="userSpaceOnUse">
<stop stop-color="#BB862A"/>
<stop offset="0.06" stop-color="#C48E24"/>
<stop offset="0.17" stop-color="#DBA414"/>
<stop offset="0.24" stop-color="#F0B706"/>
<stop offset="0.68" stop-color="#FEF387"/>
<stop offset="0.84" stop-color="#ECCB64"/>
<stop offset="1" stop-color="#BB862A"/>
</linearGradient>
<linearGradient id="paint9_linear_427_352" x1="50.8433" y1="13.7019" x2="63.4633" y2="11.8973" gradientUnits="userSpaceOnUse">
<stop stop-opacity="0.1"/>
<stop offset="1" stop-opacity="0"/>
</linearGradient>
<linearGradient id="paint10_linear_427_352" x1="63.0199" y1="15.1589" x2="67.1476" y2="17.1103" gradientUnits="userSpaceOnUse">
<stop stop-opacity="0"/>
<stop offset="1" stop-opacity="0.1"/>
</linearGradient>
</defs>
</svg>
