<svg width="180" height="15" viewBox="0 0 180 15" fill="none" xmlns="http://www.w3.org/2000/svg">
<path d="M177.949 7.87622C176.104 6.68533 174.13 6.02725 172.127 5.93572C166.559 5.60152 160.989 5.10346 155.421 5.10131C116.62 5.07975 77.8202 5.11999 39.0218 5.22205H34.9229C35.0223 3.45835 36.276 2.30915 35.3659 0.909834C34.4772 -0.467919 33.2817 -0.122942 32.4753 0.896897C27.986 6.57824 22.6463 5.16168 17.484 5.21989C12.857 5.27164 8.23141 5.21989 3.6044 5.2393C2.87038 5.2393 2.11791 5.20265 1.40661 5.42257C0.664071 5.65112 -0.0472321 6.3346 0.0024596 7.61964C0.047892 8.81197 0.615797 9.65716 1.45772 9.73694C2.5055 9.83612 3.55897 9.83397 4.60959 9.84043C32.8913 10.0237 61.1758 9.40921 89.449 11.1988C116.971 12.9237 144.493 14.765 172.045 15C173.832 14.9946 175.617 14.8175 177.389 14.4696C178.545 14.254 179.764 13.6654 179.973 11.5653C180.193 9.35531 179.023 8.58989 177.949 7.87622ZM157.407 10.2479C154.683 10.9789 151.954 11.1772 149.22 9.99783H142.107C142.107 9.68088 142.107 9.36393 142.117 9.04483H157.45C157.431 9.43508 157.42 9.83612 157.407 10.2479Z" fill="#FDA211"/>
</svg>
