<svg width="308" height="68" viewBox="0 0 308 68" fill="none" xmlns="http://www.w3.org/2000/svg">
<path d="M0.65625 8C0.65625 3.58172 4.23797 0 8.65625 0H300C304.418 0 308 3.58172 308 8V60C308 64.4183 304.418 68 300 68H8.65624C4.23797 68 0.65625 64.4183 0.65625 60V8Z" fill="#F3F4F6"/>
<path d="M0.65625 8C0.65625 3.58172 4.23797 0 8.65625 0H300C304.418 0 308 3.58172 308 8V60C308 64.4183 304.418 68 300 68H8.65624C4.23797 68 0.65625 64.4183 0.65625 60V8Z" stroke="#E5E7EB"/>
<path d="M140.828 16H167.828V52H140.828V16Z" stroke="#E5E7EB"/>
<g clip-path="url(#clip0_1055_15290)">
<path d="M145.328 16C142.846 16 140.828 18.018 140.828 20.5V47.5C140.828 49.982 142.846 52 145.328 52H163.328C165.81 52 167.828 49.982 167.828 47.5V27.25H158.828C157.584 27.25 156.578 26.2445 156.578 25V16H145.328ZM158.828 16V25H167.828L158.828 16ZM148.703 34H159.953C160.572 34 161.078 34.5063 161.078 35.125C161.078 35.7437 160.572 36.25 159.953 36.25H148.703C148.084 36.25 147.578 35.7437 147.578 35.125C147.578 34.5063 148.084 34 148.703 34ZM148.703 38.5H159.953C160.572 38.5 161.078 39.0063 161.078 39.625C161.078 40.2437 160.572 40.75 159.953 40.75H148.703C148.084 40.75 147.578 40.2437 147.578 39.625C147.578 39.0063 148.084 38.5 148.703 38.5ZM148.703 43H159.953C160.572 43 161.078 43.5063 161.078 44.125C161.078 44.7437 160.572 45.25 159.953 45.25H148.703C148.084 45.25 147.578 44.7437 147.578 44.125C147.578 43.5063 148.084 43 148.703 43Z" fill="#9CA3AF"/>
</g>
<defs>
<clipPath id="clip0_1055_15290">
<path d="M140.828 16H167.828V52H140.828V16Z" fill="white"/>
</clipPath>
</defs>
</svg>
