<svg width="49" height="67" viewBox="0 0 49 67" fill="none" xmlns="http://www.w3.org/2000/svg">
<path d="M33.88 0H4.92603C2.20543 0 0 2.20566 0 4.92602V61.0916C0 63.8122 2.20566 66.0176 4.92603 66.0176H44.074C46.7946 66.0176 49 63.8119 49 61.0916V15.12L33.88 0Z" fill="#008AFE"/>
<path d="M38.8067 15.12H49.0006L33.8809 0.000244141V10.1942C33.8806 12.9146 36.0861 15.12 38.8067 15.12Z" fill="#55C2F9"/>
<path d="M24.4992 49.7084H24.5138M18.9824 33.2247C19.7706 30.9361 21.9429 29.2917 24.4992 29.2917C27.7209 29.2917 30.3325 31.9034 30.3325 35.1251C30.3325 37.5408 28.8642 39.6135 26.7713 40.4994C25.691 40.9567 25.1509 41.1853 24.9619 41.3619C24.7368 41.5722 24.6941 41.6367 24.5882 41.9258C24.4992 42.1687 24.4992 42.5431 24.4992 43.2918L24.4992 45.3334" stroke="white" stroke-width="3" stroke-linecap="round" stroke-linejoin="round"/>
</svg>
